<?xml version="1.0" encoding="utf-8"?>
<!-- Generator: Adobe Illustrator 18.1.1, SVG Export Plug-In . SVG Version: 6.00 Build 0)  -->
<svg version="1.1" id="Layer_1" xmlns="http://www.w3.org/2000/svg" xmlns:xlink="http://www.w3.org/1999/xlink" x="0px" y="0px"
	 viewBox="0 0 934 860" enable-background="new 0 0 934 860" xml:space="preserve">
<g id="cat-creek">
	
		<path id="t1_p585_3_" fill="none" stroke="#4CB68A" stroke-width="4" stroke-linecap="round" stroke-linejoin="round" stroke-miterlimit="10" d="
		M609.4,574.7v-0.2l-0.1-0.2l0.1-0.6l0.1-0.1v-0.2l-0.3-0.4l-0.6-0.6l-0.3-0.2l-0.1,0.1l0.6,0.1l0.1,0.1l0.1-0.1l0.1-0.1l0.5,0.1
		l0.1-0.3v-0.2l-0.1-0.2l0.1-0.2l-0.1-0.4v-0.3l-0.1-0.2l-0.1-0.4l-0.2-0.2l-0.1-0.5l-0.1,0.1l-0.1,0.3l-0.1,0.1v0.1l-0.3,0.2h-0.3
		h0.1l0.2-0.2l0.2-0.1v-0.6l-0.1-0.3l0.2-0.3l0.1-0.3h0.2l0.2-0.4v-0.1l0.1-0.1l-0.1-0.1v-0.3l-0.1-0.3l-0.1-0.3l0.1-0.3l-0.1-0.3
		l0.1-0.6l-0.1-0.1l-0.3,0.1l-0.3,0.2l-0.5-0.1l-0.1,0.2l-0.7,0.1l-0.2,0.2l-1.3-0.1l-0.2,0.2l-0.9-0.4l-0.6-0.4l-0.3-0.1l-0.2-0.3
		l-0.4-0.1l-0.5-0.2l-0.1,0.1l0.1,0.1l0.3,0.1v-0.2l-0.1-0.1l0.1-0.3l0.3-0.2l0.1-0.2v-0.2l0.1-0.1l0.3-0.2l0.9-0.1l0.8-0.3l0.3-0.2
		l0.3-0.4l0.1-0.1l0.1-0.3l-0.2-0.4V561l-0.2-0.4l-0.5,0.3l-0.3,0.1l-0.1-0.1v0.1l-0.1-0.1l-0.1,0.1c-0.5-0.2-1-0.4-1.5-0.6
		l-0.2-0.3l-0.6-0.6H602l-0.3-0.1l-0.1,0.1l-0.7-0.3l-0.5-0.1l-0.1-0.2l-0.3-0.3l-0.2-0.3l-0.3-0.3l-0.3-0.6l-0.4-0.3l-0.1-0.2
		l-0.3-0.2l-0.1,0.1l-0.1-0.1l-0.7-0.8l-1-0.5l-0.7-0.6l-0.5-0.3H595l0.1,0.1l0.2-0.2l0.3-0.1l0.1,0.2l0.3,0.3h0.7l0.1-0.1l0.6,0.1
		l0.3-0.1l0.6-0.6l0.2-0.1l0.4,0.1l0.3-0.1l0.3,0.2l0.1-0.1l0.1-0.1l0.7,0.2c0.4,0,0.8,0,1.2-0.1l0.8-0.4l0.1-0.2v-0.3l0.1-0.3v-0.2
		l0.1-0.3v-0.2l-0.2-0.7l-0.2-0.2l-0.1,0.1v0.2l-0.2,0.1h-1l-0.2-0.3l0.1-0.6l0.1-0.2v-0.3l0.1-0.2l0.3-0.3v-0.1l0.1-0.1l-0.1-0.2
		l0.1-0.1l0.1-0.7l0.1-0.1l0.1-0.4l-0.1-0.1l0.1-0.3l-0.1-0.2l-0.6-0.3l-0.6-0.4l-0.5-0.3H600l-0.4-0.4l-0.4,0.1l-0.1,0.2l-0.3,0.1
		l-0.3,0.1l-0.3-0.1l-0.1,0.1l-0.5,0.1l-0.1-0.1l-0.6-0.1l-0.5-0.1l0.1-0.1v-0.1l-0.1-0.2l-0.1-0.1l-0.6-0.1l-0.3,0.1l-0.1-0.1
		l-0.3-0.1l-0.3-0.3l-0.5-0.3l-0.8-0.3l-0.7,0.1l-0.5-0.3c-0.6,0-1.2,0-1.7,0.1h-0.7l-0.6,0.1c-0.7-0.2-1.4-0.4-2.2-0.6h-0.8
		l-0.7-0.6l-0.3,0.1l-0.4-0.1h-0.5l-0.5-0.3l-0.3-0.1c-0.1-0.2-0.3-0.4-0.4-0.6l-0.1-0.4l-0.1-0.2l-0.2-0.2l-0.8-0.3l-0.5,0.1
		l-0.1,0.1l-0.4,0.2l-0.1,0.1l-0.8-0.1l-0.3,0.1l-0.1-0.1l-0.1,0.1l-0.5-0.1l-0.1,0.1l-0.1-0.1l-0.2-0.1l-0.6,0.2H577l-0.6-0.1
		l-0.8-0.3l-0.1,0.1l-0.7-0.3l-0.7-0.1l-0.8-0.3l-0.3-0.1l-0.2,0.1l-0.6,0.6l-0.2,0.3l-0.1,0.1l-0.1,0.1l-0.8,0.1l-0.6,0.3l-0.1,0.2
		l-0.1-0.1l-0.3,0.2c-0.3-0.1-0.7-0.1-1-0.1h-0.8l-0.4,0.1l-0.2,0.2l-0.5-0.1v0.1l-0.5,0.1l-0.2-0.1l-0.9,0.1l-0.3-0.1l-0.3-0.1H564
		l-0.3-0.1l-0.2,0.2h-0.1l-0.1,0.4l-0.1,0.1l-0.1,0.3c-0.1,0.1-0.3,0.3-0.4,0.4h-0.1l-0.4,0.4l-0.6,0.1l-0.1,0.1l-0.1,0.2h-0.4
		l-0.8,0.3l-0.6-0.1l-0.1,0.1l-0.3-0.1l-0.3,0.1l-0.1,0.2l-0.6,0.1v0.2l-0.8,0.6l-0.3,0.1l-0.4,0.2l-0.2,0.2l-0.3,0.1l-0.6,0.5
		l-0.1,0.3l-0.2,0.2l-0.1-0.1l-0.3,0.2l-0.1,0.2v0.3l-0.2,0.1l-0.5,0.5l-0.1,0.1l-0.2,0.2l-0.1,0.2l-0.8,0.6v0.1h-0.3l-0.7,0.8
		l-0.3,0.1v0.2l-0.3,0.1l-0.6,0.4l-0.6,0.3v0.1l0.1,0.1l0.4-0.2l0.8-0.7v-0.6l0.3-0.5l-0.1-0.3l0.2-0.6l-0.1-0.2l0.1-0.3v-0.3v-0.1
		l0.1-0.3V548l0.2-0.4v-0.1l0.1-0.2l0.3-0.1l0.3-0.6l0.4-0.3l0.3-0.1v-0.2l0.4-0.3l0.1-0.3l0.2-0.3l0.1-0.3l0.1-0.1v-0.2l-0.2-0.1
		l-0.2-0.8l-0.1-0.3l0.1-0.6l-0.1-0.1h0.1v-0.4l0.1-0.2l-0.2-0.3l-0.1-0.3l0.6-0.3h0.3l0.9-0.3l0.7-0.1l0.1-0.2l0.5-0.3l0.2-0.3
		l0.3-0.2l-0.1-0.4l0.1-0.1l-0.1-0.2l-0.1-0.3l-0.5-0.1l-0.1,0.2L556,539h-0.2l-0.1,0.1l-0.5,0.2l-0.3-0.1l-0.3,0.1l-1.3-0.3
		l-0.6,0.1l-0.3-0.1l-0.5-0.1l-0.8,0.2l-0.1,0.2l-0.7,0.4l-0.1,0.2v0.3l-0.2,0.2l-0.5,0.8l-0.1,0.1v0.2l-0.1,0.2l-0.1,0.1l-0.1,0.4
		v0.1h-0.3l-0.8,0.8l-1,0.4l-0.3,0.2h-0.1l-0.1,0.3l-0.3,0.1l-0.8,0.3h-0.1l-0.2-0.1l-1,0.2l-0.1-0.1l-0.3,0.1l-0.2,0.2L543,545
		h-0.5l-0.6,0.1l-0.4-0.1l-0.5,0.3l-0.5,0.1l-0.1,0.1l-0.2-0.1l-0.5,0.2l-0.3,0.1l-0.1,0.1l-1.3,0.1l-0.1,0.1l-0.3,0.1l-0.3-0.1
		l-0.1,0.1l-0.2-0.1l-1.4,0.5l-0.3,0.1l-0.3-0.3h-0.5l-0.2,0.1l-0.1,0.3l-0.5,0.1l-0.2,0.2l-0.5,0.1l-0.1,0.1l-0.7-0.1l-0.1-0.1
		l-0.5,0.1l-0.8-0.1l-0.5,0.1l-0.6-0.3h-0.3l-0.1,0.1v0.1l-0.3-0.1l-0.6,0.2l-0.3-0.1l-0.6,0.2l-0.1-0.1l-0.4,0.3h-0.2l-0.6,0.4
		l-1-0.1l-0.6,0.1l-0.3,0.2h-0.3l-0.6,0.3h-0.5l-0.4-0.2l-0.4,0.1h-0.3l-0.3,0.3l-0.3-0.1l-0.1-0.1l-0.1,0.1v0.1l-0.3,0.1l0.1,0.1
		l-0.1,0.1l0.1,0.2v0.4l-0.1,0.1l-0.3,0.3l-0.2,0.3l0.1,0.3l-0.1,0.3l-0.2,0.4l-0.3,0.3l-0.2,0.1l-0.1,0.1l-0.1,0.3l-0.1,0.1
		l-0.1,0.2v0.3l-0.1,0.1l0.1,0.2l0.2,0.2l-0.1-0.1v-0.4l-0.1-0.1l-0.5-0.3l-0.2-0.3l-0.3-0.2l-0.5-0.5l-0.1-0.6l-0.4-0.8l0.1-0.1
		l-0.5-0.7l-0.3-0.1l-0.3-0.3l-0.5-0.2h-0.1l-0.3-0.3l-0.1-0.1l-0.1,0.1l-0.1-0.1l-0.3-0.3l-0.3,0.1l-0.5-0.2l-0.4,0.2l-0.1-0.1
		l-1.2,0.1l-0.3,0.2l-0.1,0.1l-0.5,0.3l-0.1,0.3v0.6l-0.1,0.9v0.4l0.3,0.4v0.3l0.1,0.1v0.2l0.1,0.2l0.1,0.3l-0.3,0.2l-0.3,0.4
		l-0.5,0.2l-0.3-0.1l-0.1-0.1l-0.2,0.1l-0.1-0.1l-0.6-0.1l-0.2,0.2l-0.7,0.2l-1.2-0.2l-0.5-0.3l-0.6,0.1l-0.3-0.1l-0.2,0.2l-0.4-0.1
		l-0.1-0.3l-0.3-0.2l-0.2-0.3v-0.1l-0.3-0.4l0.1-0.1l-0.4-0.3l-0.2-0.3l-0.2-0.1l0.1-0.1l-0.7-1.5l-0.6-0.6l-0.3-0.2l-0.1,0.1
		l-0.3-0.1l-0.8,0.1l-0.5,0.6l-0.8,0.1l-0.1-0.1l-0.1,0.1l-0.6,0.2l-0.1-0.1c-0.3,0.6-0.6,1.1-0.8,1.6l-0.3,0.2l-0.1,0.3l-0.2,0.1
		l-0.1,0.3l-0.4,0.4l-0.6,0.1l-0.6-0.3l-0.6-0.1l-0.1,0.1l-0.3,0.1l-0.3-0.3l-0.1-0.1l-0.5-0.1l-0.2-0.4l-1.4-1.7l-0.3-0.7l-0.2-0.3
		l-0.2-0.6l0.1-0.1l-0.1-0.7v-0.3l-0.1-0.3l0.1-0.2v-0.3l-0.1-0.3v-0.6l-0.2-0.5v-0.2l-0.8-0.8l-0.5-0.3l-0.3-0.3l-0.3-0.8l-0.3-0.4
		l-0.1,0.1v-0.8v-0.3l-0.1-0.9l-0.1-0.3"/>
</g>
<g id="gibraltor">
	
		<path id="t1_p752_2_" fill="none" stroke="#4CB68A" stroke-width="4" stroke-linecap="round" stroke-linejoin="round" stroke-miterlimit="10" d="
		M443.4,767v-0.5l0.3-0.5l0.1-0.4l-0.1-0.5l0.1-0.3l0.1-0.3l0.6-0.7l0.2-0.3l0.1-0.8l-0.1-0.5v-0.2l0.1-0.1l1.1-1l0.3-0.2l1.1-0.4
		c1.2-0.3,2.3-0.6,3.5-0.7l0.3,0.1l1.4-0.1l0.4-0.1l0.6,0.2l0.6,0.1l0.5,0.2l0.8,0.1l0.8-0.1l0.6-0.2l0.8-0.2l0.9-0.1l0.8,0.1l2,0.6
		l0.3-0.1l1.3,0.2l2,0.7l0.6,0.1h0.8l1.1,0.1l0.6-0.2l0.3,0.1l0.5-0.3l1-0.2c0.9-0.3,1.7-0.8,2.5-1.3c0.4-0.1,0.9-0.3,1.3-0.6
		l0.5-0.5l0.3-0.7l0.7-1c1.2-1.2,2.5-2.3,3.6-3.6l0.5-0.3l1.4-0.6l1.6-0.9l0.6-0.1c0.5-0.3,0.9-0.6,1.4-0.8c0.9-0.2,1.8-0.3,2.8-0.6
		l-0.8-0.3l-0.8-0.1c-0.8-0.1-1.5-0.3-2.2-0.6L482,748c-1.3-0.1-2.4-0.5-3.6-0.8l-0.9-0.3l-1-0.2l-1.7-0.5c-1.1-0.6-2.2-1.2-3.1-2
		l-0.8-1l-0.8-1.2c-0.3-0.7-0.6-1.4-1-2l-0.3-1.7l-0.1-0.2l-0.3-0.8l-0.3-1.9l-0.2-0.6l-0.3-1.9l-0.1-2l0.1-0.8l-0.2-1.2l-0.1-0.2
		c-0.1-0.2-0.1-0.3-0.1-0.6c0-0.4,0.1-0.8,0.2-1.2l0.6-0.7l0.2-0.6l0.3-0.6l0.6-1.3l0.1-1.3l0.1-0.6l0.2-0.3v-1l0.3-1l0.6-1.3v-0.7
		l0.2-0.8l0.4-0.9l0.1-0.6l-0.3-0.8l0.3-1.4v-0.6l-0.3-0.4l-0.2-0.1l-0.1-0.1v-0.2l0.5-2.2l0.2-0.6l0.6-0.9l0.2-0.2l0.3-0.1l0.8,0.8
		l0.3,0.5l0.5,0.5l0.6,0.8l0.3,0.2l0.7,0.3l0.7,0.1l0.3-0.1l0.9,0.3l0.6,0.4l0.8,0.3l1,0.1l0.8-0.1l1.2-0.8l0.3-0.1l0.8-0.7l0.3-0.2
		l0.6-0.2l0.3-0.4l0.9-1.5l-0.3-0.4l-0.8-0.8l-0.3-0.2l-1-0.1c-0.3-0.3-0.8-0.5-1.1-0.8l-0.6-0.6l-0.2-0.3l-0.3-0.8
		c-0.1-0.5-0.2-1-0.3-1.5l0.3-0.8l0.6-1l0.8-1.7l0.2-0.3l0.6-1l0.2-0.7l0.6-0.8l0.3-0.7l0.4-0.6l0.3-0.8l0.1-0.2v-0.4l-0.1-0.6
		l0.5-0.7l0.1-0.3l0.1-0.4l-0.1-0.4c0.1-0.7,0.3-1.5,0.5-2.2l0.1-0.8l0.1-0.3c0.1-0.7,0.1-1.4,0.3-2.2v-0.9l-0.1-0.3l0.1-0.4
		c0-0.9-0.1-1.7-0.3-2.6l-0.1-0.3c-0.1-0.3-0.1-0.7-0.1-1l0.2-0.6l-0.2-0.4l0.2-0.3l0.1-0.7l-0.6-0.8l-0.1-0.2l0.1-0.6l-0.1-0.3
		l-0.2-0.1l-0.3-0.2l-0.1-0.3v-0.3l-0.6-1l-0.8-0.8v-0.3l-0.1-0.2V673l0.1-0.1l1.1,0.5l0.7,0.2l0.8,0.5h0.6l0.8,0.4l0.9,0.1l0.3,0.1
		l0.3,0.2l1,1l1.5,1.9c0.6,0.6,1.3,1.3,2,1.8l0.7,0.8l0.5,0.4l0.5,0.3l0.8,0.3l1.3-0.1l1.3-0.7l0.3-0.3l0.3-0.7l0.6-1.7l0.3-2.5
		l-0.1-0.8l-0.2-0.3l-0.8-0.4l-1.4-0.3l-1.8-1l-0.6-0.1l-0.4,0.1l-0.5-0.3l-0.6-0.8l-0.9-0.6c-0.6-0.5-1-1-1.5-1.5
		c-0.3-0.4-0.6-0.8-0.8-1.3l-0.1-0.7l0.1-0.3h-0.1l-0.4-0.5l-0.6-1l-0.7-1l-0.1-0.3l-0.1-0.6l-0.1-0.4l-0.3-0.3l-0.1-0.4l-0.1-0.4
		l-0.6-1l-0.4-1.1l-0.2-0.3l-0.2-0.2l-0.8-0.6c-0.6-0.3-1-0.5-1.6-0.7l-0.7-0.5l-1.3-1.5l-0.7-0.6l-0.2-0.1l-1.7-1.2l-0.2-0.3
		l-0.9-0.8c-0.3-0.3-0.5-0.6-0.7-1l1,0.6l1.8,0.6l1.3,0.1l1.3,0.3l1,0.1l1.3-0.1l0.8-0.2l0.9-0.4c0.8-0.3,1.7-0.5,2.5-0.7l1.1-0.1
		l0.8-0.3h0.5l0.2-0.2l0.6-0.7l0.2-0.2l0.2-0.3l0.2-1v-0.1l-0.1-0.1l-1,0.8l-1.2,0.3h-0.3l-0.6-0.3l-0.8-0.1
		c-1.1-0.3-2.2-0.6-3.4-0.9l-2-0.9l-1.5-1l-1-1.7l-0.3-0.9l-0.5-0.9l-1.1-1l-0.3-0.2l-1.6-0.1c-1.5,0.2-3.1,0.3-4.5,0.3l-0.2-0.1
		l1-0.9l0.3-0.3c0.5-0.8,1.1-1.6,1.8-2.4l0.3-0.7l0.8-1.3l0.3-0.8l0.2-0.3l0.8-0.4l1.7-1.5l0.2-0.3v-0.1c-0.4-0.4-0.8-0.9-1.1-1.4
		l-1.3-1l-0.6-0.9l-1.3-1.4l-0.8-1.6c-0.3-0.8-0.6-1.7-1-2.5l-0.1-0.7l-0.3-0.8v-0.3l0.1-0.4l-0.1-1l0.1-0.6l-0.1-0.6l-0.4-1.2v-0.8
		l0.1-1l-0.1-0.6l0.1-0.7v-0.6l0.3-0.9l0.3-0.8c0.2-1.2,0.2-2.4,0.1-3.6l-0.1-0.4l-0.1-0.3l-0.3-0.7l-0.1-1.7l-0.2-0.3
		c-0.3-1.1-0.7-2.2-1-3.3l-0.3-0.8l-0.2-0.7c0-0.6,0-1.3,0-2l-0.2-1.5l-0.5-1.4l-0.8-1.5l-0.2-0.6v-0.3l0.3-2l-0.1-1v-0.9l-0.1-0.3
		l-0.1-0.8h0.1l0.3,0.3l0.5,0.2l0.2-0.1l0.2-0.2c0.6-1.5,1-3.1,1.7-4.7l0.3-0.5c0.1-0.1,0.1-0.3,0.1-0.4l-0.2-0.1l-0.6,0.4l-0.8,0.3
		l-0.5,0.1l-0.3-0.1l-0.6-0.7l-0.1-0.2V584l0.4-0.3l0.2-0.2l0.3-0.6l0,0l-0.1-0.4v-0.4c0.2-0.7,0.5-1.3,0.7-2v-0.4l0.3-0.8l0.3-0.6
		l0.5-1.5l0.1-0.1v-0.4l-0.3-0.6v-0.5l0.1-0.3l0.1-0.1l0.5,0.1h0.8l0.3-0.1l0.2-0.2l0.6-1.3l0.3-0.5l0.3-0.8l0.3-0.5l0.3-0.2
		c0-0.6,0.1-1.3,0.2-1.9v-1.2l0.1-0.7v-0.7c0.3-1.4,0.9-2.9,1.4-4.2l0.1-0.2l0.1-0.3c0.4-1,0.8-1.9,1.3-2.9c0.5-0.7,1-1.3,1.6-2
		l0.6-0.6l1.8-0.8l2.5-0.6l0.6-0.3l0.1-0.2l0.1-0.6c-0.1-0.8-0.3-1.7-0.4-2.6v-0.6l-0.1-0.6v-0.1l-0.1-0.3c-0.1-1.1-0.3-2.3-0.6-3.4
		v-0.7l0.1-0.8l0.1-0.8l0.2-0.4c0.1-0.5,0.2-1,0.3-1.5c0-0.5,0-1-0.1-1.5l-0.1-0.3l0.1-0.6l0.1-0.3l0.3-0.6l0.3-0.7v-0.4l0.8-1.3
		l0.5-1.3v-0.6l-0.5-1.2v-0.8l1-1l0.3-0.6l0.1-0.5l-0.2-2l-0.2-0.7c-0.1-0.7-0.2-1.4-0.4-2.2l-0.2-0.6l-0.1-0.7l-0.1-0.4l-0.1-0.4
		v-0.4l-0.2-1v-0.2l-0.1-0.6l-0.3-0.8l-0.1-0.6v-0.3l-0.1-0.6l-0.2-0.6l-0.4-0.9l-1-1.7c-0.3-0.7-0.8-1.4-1.2-2.1l-0.2-0.6v-0.3
		l0.1-0.3l0.2-0.5l0.6-0.6l0.2-0.1l0.1-0.1l1-0.3l0.4,0.1l1.1-0.3l0.8-0.3l0.6-0.6l0.6-0.2l0.4-0.3l0.6-0.8l0.3-0.3l0.7-1l0.3-0.9
		l0.1-0.2l0.1-0.5l0.3-1.2v-0.5l0.1-0.6l0.1-0.6l0.2-0.7l0.1-0.6l0.1-0.7c0-0.4,0.1-0.8,0.1-1.3v-1l-0.1-0.1v-0.6
		c0-0.3,0.1-0.8,0-1.1c-0.1-0.8-0.2-1.6-0.3-2.4c-0.3-0.6-0.5-1.3-0.7-2l-0.3-0.8L492,492l-0.3-0.7l-0.3-0.4l-0.2-0.6v-0.9l-0.3-0.6
		l-0.8-0.9l-0.8-1.3l-0.8-0.8l-0.6-0.3l-1.3-0.9c-1-1-2.2-1.7-3.2-2.7l-0.6-0.6c-1-0.7-1.9-1.5-2.9-2.2l-0.6-0.3l-0.6-0.1
		c-1.2-0.6-2.3-1.3-3.5-1.9l-0.8-0.8l-1.5-0.6l-1.4-0.2c-0.8-0.5-1.7-1-2.5-1.5l-1.8-0.5l-0.6-0.3l-0.4-0.4l-0.3-0.7l-1-1.7
		l-0.9-0.9l-0.8-0.6l-0.5-0.6l-0.1-0.1l-0.3-0.7l-0.4-0.6l-0.3-0.9l-0.2-0.2c-0.6-1.1-1-2.4-1.7-3.4l-0.3-0.3l-0.2-0.3l-0.8-1
		l-0.3-0.8l-1.3-1.7l-0.2-0.4l-0.6-1l-0.3-0.3l-0.2-0.4l-0.2-0.2l-0.3-0.6l-0.1-0.6l-0.4-0.4c-0.3-0.8-0.7-1.6-1-2.4l-0.1-0.2
		c-0.2-0.8-0.5-1.7-0.8-2.6l-0.1-0.4l-0.2-0.4v-0.7l-0.3-0.4l-0.9-1.3l-0.1-0.3l-0.1-0.1l-0.3-1.3l-0.1-0.2l-0.6-0.1h-1.2l-1-0.3
		l-0.2-0.1c-0.1-0.2-0.3-0.5-0.4-0.7l-0.2-0.6l-0.3-0.6l-0.1-0.1l-0.2-0.6l-0.2-0.3l-0.2-0.1l-0.7,0.4l-0.8,0.1l-0.2-0.1l-0.3-0.4
		l-0.1-0.3l-0.2-0.8l-0.1-0.6l-0.1-0.2c-0.3-0.4-0.6-0.8-0.8-1.2l-0.2-0.1c-0.2-0.3-0.3-0.5-0.6-0.8l-0.3-0.1l-0.4,0.1l-0.3-0.1
		l-1.6-1.4l-0.3-0.5l-1.3-0.9c-0.3-0.3-0.5-0.7-0.8-1.1l-0.6-1.2l-0.4-0.6l-0.3-0.6l-0.1-0.3v-1c-0.2-0.5-0.4-0.9-0.6-1.4
		c-0.2-0.6-0.4-1.3-0.7-1.8l-0.3-1.3l-0.6-1l-0.5-1.1l-0.7-0.9l-0.3-1l-0.3-0.4l-0.1-0.5l-0.3-0.4v-0.3l-0.1-0.2l-0.1-0.3l-0.2-0.4
		c-0.2-0.7-0.4-1.4-0.5-2.2l0.1-0.6l-0.4-1.1l-0.1-0.4v-0.7l-0.1-0.7l-0.2-0.3l-0.2-0.2v-0.1l0.2-0.2V411l-0.4-0.8l-0.2-0.1
		l-0.1-0.2l0.1-0.3l-0.2-0.2v-0.1l-0.4-0.2l-0.4-0.9l-0.3-0.3l-0.1-0.2l-0.3-0.2l-0.1-0.3l-0.6-1.2l-0.3-0.9l-0.2-0.9v-0.4l-0.2-0.5
		l-0.3-0.5l-0.3-0.8l-0.2-0.3l-0.6-1.7l-0.2-0.1l-0.1-0.3l-0.3-1.5l-0.8-1.6l-0.2-0.8v-0.4l-0.3-1.2c-0.1-0.3-0.3-0.7-0.4-1
		l-0.1-0.4l0.4-0.8l0.6-2.3c0.3-0.9,0.8-1.7,1.4-2.6l0.6-1.3l0.6-0.8l0.2-0.6l0.5-0.7l0.1-0.5c0.8-1.2,1.4-2.5,2.1-3.8l0.1-0.5
		l0.1-0.2l0.1-0.3l0.3-0.8c0.1-0.4,0.3-0.9,0.3-1.4l0.1-0.1l0.3,0.6l0.1,0.3l0.1,0.3l0.1,0.4l0.1,0.4l0.1,0.1c0.3-0.5,0.6-1,0.9-1.5
		l0.2-0.6l0.1-0.7l0.1-0.2l0.3-0.4l0.6-1.2l0.3-1.3v-0.3l-0.1-0.5l-0.5-0.7l-0.1-0.4l0.1-0.7l0.3-0.7l-0.1-0.5v-0.3l0.1-0.3l0.2-0.6
		l-0.1-0.5l0.2-1l0.1-1.7l0.1-0.1l0.1-0.1l0.5-0.7c0.3-0.3,0.6-0.7,0.9-1l0.2-0.1l0.5-0.2l0.4-0.3l0.1-0.2l0.3-0.3l0.3-0.6l0.3-0.3
		l0.2-0.1v-0.2l0.7-0.9l0.4-1l0.6-0.4l0.9-1.2l0.3-0.2l-0.1,0.2l-0.1-0.1l-0.2,0.3"/>
</g>
<g id="stahl-creek">
	
		<path id="t1_p475_2_" fill="none" stroke="#4CB68A" stroke-width="4" stroke-linecap="round" stroke-linejoin="round" stroke-miterlimit="10" d="
		M486.3,396.1l-0.1,0.3l-0.1,0.1v-0.3l-0.3,0.1l-0.3,0.1l-0.5,0.6l-0.6,0.3l-0.4,0.6l-0.1,0.1l-0.1,0.2v0.1l-0.5,1.3v0.6l-0.1,0.3
		v0.5l0.1,0.6v0.4l0.1,0.1v0.3l-0.1,0.3l-0.1,0.3l-0.1,0.1l-0.2-0.1l-0.6-0.4l0.1-0.3l-0.2-0.6l-0.1-0.6l0.1-0.1v-0.3l-0.1-0.2v-0.1
		l-0.2-0.6v-0.1l-0.1-0.2v-0.2l-0.1-0.2l0.1-0.2l-0.2-0.4l-0.1-0.4v-0.2l0.1-0.8v-0.2l-0.1-0.1v-0.4l-0.1-0.1l0.1-0.1l-0.1-0.2
		l0.1-0.2l-0.2-0.2l-0.1-0.6l-0.3-0.6l-0.1-0.1l-0.3-0.1l-0.1,0.1l-0.3,0.5l-0.2,0.6l0.1,0.3l0.2,0.3l0.1,0.6v0.6l-0.1,0.1l-0.1,0.3
		l0.1,0.2v0.1l-0.1,0.3v0.1l0.1,0.3l-0.1,0.3v0.6l-0.1,0.3l0.1,0.3l-0.1,0.6v0.1l-0.1,0.3v0.6l-0.1,0.2l0.1,0.5l-0.1,0.4v0.3
		l-0.1,0.3l-0.1,0.2l0.1,0.3v0.1l-0.1,0.1l-0.1,0.5l-0.1,0.1c0,0.3,0,0.6,0.1,1l0.2,0.3v0.3l0.1,0.4l0.1,0.9l0.1,0.1
		c0,0.3,0,0.6,0,0.8l0.2,0.8v0.6l0.1,0.6l0.5,0.4l0.3,0.5l0.4,0.4l0.3,0.6v0.2l-0.2,0.3l-0.3,0.1l-0.1,0.1l-1.3,0.2l-2.2,0.6h-0.4
		l-0.4,0.3l-0.3,0.1l-0.8-0.1l-0.3,0.1l-0.9-0.3l-0.7-0.6l-0.5-0.1l-0.1-0.1h-0.3l-0.1-0.1l-0.1-0.2h-0.2l-0.3-0.2l-0.1-0.3
		l-0.2-0.2V412l-0.6-0.7l-0.1-0.2l-0.3-0.3l-0.3-0.3l-0.1-0.1l-0.3-0.6l-0.2-0.2l-0.3-0.7l-0.7-1l-0.1-0.1l-0.2-0.3v-0.1l-0.2-0.3
		l-0.1-0.5l-0.3-0.3l-0.3-0.7l-0.3-0.4l-0.3-0.6l-0.3-0.3l-0.2-0.4l-0.6-0.6l-0.1-0.1l-1.1-0.4c-0.8,0.1-1.5,0.1-2.3,0.1l-0.7-0.2
		l-1.7-0.1l-0.3-0.2c-1,0-2-0.1-3-0.3l-0.6,0.1l-0.5-0.1l-1.1-0.6l-0.6-0.1l0.1-0.2l-0.3,0.1l-0.6-0.2l-0.3-0.2l-0.1-0.2l-0.3-0.2
		l-0.1-0.1l-0.2-0.4l-0.3-0.1l-0.1-0.1l-0.3-0.6l-0.4-0.6l-0.1-0.4l-0.6-0.8l-0.2-0.7l-0.3-0.5l-0.1-0.9l-0.1-0.1V395l-0.1-0.1
		l-0.1-0.3v-0.6l0.2-0.3l-0.1-0.8l0.1-0.2v-0.4l0.1-0.2l-0.1-0.3l0.1-0.3l-0.1-0.7l0.1-0.5l-0.1-0.1l0.2-0.8l0.1-1l0.4-0.7l0.1-0.1
		v-0.3l0.1-0.3l0.1-0.1l0.2-0.4l0.1-0.3l0.1-0.1l0.7-0.6l0.3-0.2l0.1,0.1l0.1-0.2h0.3l0.5-0.2l0.6-0.6v-0.1l0.2-0.3v-0.3l0.2-0.6
		v-0.3l0.1-0.1v-0.1l0.2-0.4l0.3-0.3l0.3-0.1l0.1-0.1v-0.2l0.8-0.6l0.1-0.3v-0.5l-0.1-0.6l-0.2-0.2l-0.1-0.3v-0.4l-0.1-0.3l-0.1-0.1
		l-0.8-0.2l-0.1-0.1l-0.3-0.1l-0.6-0.2l-0.1,0.1l-0.3,0.3l0.1-0.4v-0.1l-0.1-0.1l-0.2-0.4l-0.3-0.3l-0.6-0.5L452,376l-0.1-0.1
		l-0.1-0.2l-0.6-0.2H451l-0.1-0.1c-0.4-0.3-0.8-0.6-1.3-0.8h-0.2l-0.3-0.1l-0.6-0.6l-0.3-0.4l-0.3-0.2c-0.2-0.3-0.3-0.6-0.5-0.8
		h-0.1l-0.1-0.1l-0.3-0.2l-0.2-0.5l0.1-0.2v-0.1l-0.1-0.1l0.1-0.3l-0.1-0.5V370l0.1-0.2v-1.3l-0.1-0.2l-0.1-0.4l-0.2-0.3l-0.1-0.2
		l0.1-0.2c-0.1-0.2-0.1-0.4-0.2-0.6l-0.1-0.1l-0.1-0.3l-0.1-0.6l0.2-0.3v-0.3l-0.3-0.3L445,364l-0.1-0.1v-0.2l0.1-0.1v-0.1l-0.1-0.1
		v-0.2l-0.3-0.2v-0.8l0.1-0.2l-0.1-0.1l0.1-0.2l-0.1-0.3l-0.1-0.2v-0.5l-0.2-0.2v-0.2l-0.1-0.1l-0.3-0.4l0.1-0.1l-0.1-0.1v0.3
		l-0.1-0.2l0.1-0.1l-0.2-0.6v-0.3l-0.1-0.1l-0.2-0.3l-0.2-0.1l-0.2-0.3l-0.1-0.1l-0.1,0.1v-0.1l-0.2-0.1l-0.7-0.8
		c-0.2-0.1-0.4-0.1-0.6-0.2c-0.6-0.5-0.6-1,0-1.5"/>
</g>
<g id="stahl-peak">
	
		<path id="t1_p475_5_" fill="none" stroke="#4CB68A" stroke-width="4" stroke-linecap="round" stroke-linejoin="round" stroke-miterlimit="10" d="
		M470.1,329.3c0,0.1,0.3,0.2,0.3,0.2l0.1-0.1l0.1-0.2l0.1,0.4l0.3,0.4l0.1-0.1l0.3,0.3l0.2-0.1h0.1l0.2,0.3v0.2l0.3,0.3l0.2,0.1
		l0.1,0.3c0.1,0.2,0.3,0.4,0.5,0.6h0.1v0.1l0.2,0.1l0.2,0.4h0.1l0.1,0.2l0.3,0.1l0.5,0.3l0.3,0.3l0.3,0.1l0.1,0.2v0.1l0.3,0.2h0.1
		v0.1l0.1,0.2v0.1l0.4,0.4v0.1l0.1,0.1v0.1l0.1,0.1l0.1,0.3l-0.1,0.3l0.1,0.3l0.2,0.3l0.2,0.1l0.6,0.9l0.4,0.2l0.1,0.3l0.3,0.2
		l0.1,0.4l0.1,0.1l0.1,0.2v0.3l0.2,0.1v0.1l0.2,0.4l0.1,0.4l1.3,2l0.3,0.1l0.1,0.3h0.1l0.1,0.3h0.1v0.2l0.3,0.5l0.1-0.1l0.1,0.2
		l0.1-0.1l0.1,0.1l0.1,0.1l0.1,0.5l0.1,0.3v0.1l0.1-0.1l0.1,0.1l0.2,0.4l0.1,0.3l0.3,0.5l0.1,0.2v0.1h0.1l0.1,0.1v0.1l0.1,0.2
		l0.4,0.3v0.1l0.1,0.1l0.1,0.1l0.1,0.1l0.1,0.2l0.2,0.3l0.5,0.3l0.1,0.3l0.4,0.1v0.1l0.2,0.1l0.3,0.1h0.3l0.2,0.2l0.1-0.1l0.1,0.1
		l0.3-0.1l0.1,0.3l0.1-0.1h0.1l0.3,0.1l0.3-0.1l0.2,0.2l0.4,0.2h0.1l0.1,0.2l0.1-0.1v0.1l0.1,0.1l0.1-0.1l0.1,0.1l0.3,0.1l0.4,0.3h1
		l0.3,0.2h0.2l-0.2-0.1l-0.3-0.3l-0.3-0.1l-0.1-0.8l0.1-0.2l0.3,0.1l0.6,0.4l0.5-0.1l0.7,0.1l0.1,0.1l0.2-0.1l0.3,0.1l0.1,0.1
		l0.3-0.1l0.3,0.1l0.1,0.1l0.1-0.1l0.3,0.1l0.1-0.1l0.1,0.1h0.2l0.1-0.1l0.3-0.2l0.2-0.3l0.1-0.1l0.1-0.1v-0.1l0.2-0.2v-0.2l1-1.1
		l0.3-0.1l0.5-0.6l0.2-0.1l0.1-0.3l-0.1,0.1l0.1-0.2l0.3-0.3c0.1-0.3,0.2-0.3,0.2-0.3v0.2l-0.1,0.3l-0.1,0.2l-0.1,0.1v0.1l-0.3,0.2
		v0.3l0.1,0.2l0.1,0.1l0.3-0.1l0.1,0.1c0.5-0.1,1-0.2,1.5-0.3l0.9,0.1l0.3,0.1h0.3l0.3-0.1l0.8-0.1l0.1,0.1h0.1v0.1l-0.1,0.2
		l-0.3,0.2l-0.3,0.1l-0.6,0.6l-0.8,0.4l-0.2,0.2l-0.3,0.5l-0.4,0.1L500,351l0.7-0.3h0.2l0.6-0.2l0.8-0.1l0.3,0.2l0.8,0.1l0.3-0.1
		l0.5,0.2l0.2-0.1l0.2,0.1l0.1-0.1l-0.1,0.3l-0.4,0.3l-0.9,0.6l-0.2,0.2l-0.6,0.2l-0.1,0.2c-0.7,0.6-1.4,1.2-2.1,1.7
		c0.6-0.1,1.2-0.3,1.7-0.4l0.4,0.1l0.3,0.2l0.6,0.2l0.8-0.1l0.8,0.1l0.6,0.3l0.6-0.1l-0.1,0.2l-0.2,0.2c-0.3,0.1-0.5,0.3-0.8,0.4
		l-0.4,0.6l-0.2,0.1l-1.1,0.3l-0.2,0.1l-0.1-0.1l-0.1,0.3l-0.8,0.1l-0.3,0.3l-1.3,0.6l-0.1,0.1l0.6-0.1l1.6,0.4
		c0.7,0,1.5,0.1,2.2,0.1l0.7,0.3l0.8,0.1c0.5,0.2,1,0.3,1.5,0.4l0.6,0.3l0.7,0.1l2,1.5l1.1,0.3l0.3,0.2l1.2,0.5l0.6,0.1l0.3-0.1
		l0.2,0.1l0.2-0.2l0.3-0.1l0.1-0.1l0.1,0.1v0.1l-0.2,0.3c-0.2,0.2-0.4,0.3-0.6,0.5l-0.2-0.1l-0.1,0.1l-0.1,0.1l-2.4,1.2l-0.1,0.2
		l-0.7,0.1l-0.7,0.3l-0.1-0.2l-0.2,0.1l-0.4,0.3l-2,0.7l-1.7,0.3l-0.8,0.6l-1.2,0.4h-0.3l-0.1,0.1l-1.1,0.4l-0.2-0.1l0.3-0.1h0.4
		l0.3,0.3l1.1,0.5h1l1.3,0.4l0.5,0.3l1.2,0.1l0.3,0.2l1.5,0.5l0.3-0.1l1,0.1l0.5-0.1l0.2,0.1l0.3-0.1l0.7,0.1l0.6-0.1l0.3,0.1
		l0.6-0.1l0.6-0.2l1.3-0.8l0.3-0.1l1.7-1l0.2-0.1h0.3l0.2-0.1l0.8,0.4l1.1,0.3l0.4-0.2l0.1-0.2l0.3-0.3l0.2-0.3l0.6-0.1l0.3-0.3
		l0.4-0.3l0.2-0.2l0.8-0.4l0.1-0.3v-0.3l0.1-0.2l0.2-0.4l0.2-0.3V364c0.1-0.1,0.3-0.3,0.5-0.5v-0.1l0.3-0.4l0.3-0.1l0.3-0.2l0.6-0.1
		l0.2-0.3l0.2-0.1l0.5-0.3l0.2-0.1l0.2-0.3l0.7-0.5l0.1-0.1l0.5-0.4l0.3-0.1c0.1-0.2,0.3-0.4,0.5-0.7l0.3-0.2
		c0.1-0.2,0.3-0.4,0.4-0.6l0.2-0.1l0.3-0.3l0.1-0.3l0.5-0.6v0.2l-0.1,0.1l-0.1-0.1l0.1-0.4l0.6-1l0.2-0.3v-0.2l0.3-0.3
		c0.3-0.2,0.8-0.4,1.1-0.6l0.2,0.1l0.1-0.1l0.1-0.6l-0.1-0.3l0.2-0.4l-0.1-0.1l0.3-0.8l0.3-0.3l0.8-0.5l0.3-0.4l0.1,0.1l0.3-0.1
		l0.1-0.1l0.6-0.1l0.8-0.3l0.3-0.3l0.5-0.6l0.1-0.2l0.1-0.1l0.3,0.1l0.3-0.1l0.6-0.1l0.2-0.2l0.3-0.1l0.3-0.2l0.1-0.2l0.2-0.1
		l0.1-0.3l0.3-0.4v-0.2l-0.1-0.1v-0.2l-0.1-0.1v-0.3l-0.1-0.2l0.1-0.4l0.2-0.4l1-1l0.3-0.1l0.6-0.3l0.6-0.1l0.2-0.1l0.2,0.1l0.3-0.4
		v-0.1l0.5-0.5l0.5-0.8l0.1-0.1l0.1-0.3l0.3-0.4v-0.2l0.3-1.2l0.5-0.3l-0.1-0.1V340l0.1-0.1v-0.1l0.2-0.2l0.1,0.1l0.2-0.2l0.1-0.3
		l0.3-0.3l0.5-0.2l0.4,0.6v0.3l0.3,0.3l0.8,0.3l0.3-0.2l0.6,0.1l0.2-0.2l0.6-0.2l0.3-0.3l1-0.4l0.3,0.1l0.8-0.4l0.7-0.6l0.3-0.1
		l0.9-0.2l0.9-1l0.7-0.4l0.5-0.6l0.3-0.3h0.2l0.6-0.2h0.8l0.1-0.1h0.1l0.3-0.3l0.6-0.3l0.8-0.3l1.3-0.7h0.3l0.3-0.2v-0.3l0.1-0.2
		l-0.1,0.1h-0.2l-0.4-0.3l-0.6-0.2l-0.3-0.2h-0.3l-0.6-0.4l-0.2,0.1v-0.2l0.1-0.2l-0.1,0.2l-0.2-0.1l0.6-0.1l0.5-0.2l0.5-0.4
		l0.3-0.3l0.2-0.4l0.3-0.4l0.8-0.4l0.6-0.2l0.3,0.2l1,0.3l0.8,0.4l0.4,0.1l0.3,0.2l0.3-0.1l0.2-0.3l0.6-0.3l0.6-0.2l0.4-0.1l0.2-0.1
		l0.8-0.1l0.8-0.3l1.5-0.8l0.8-0.2l1-0.5l0.8,0.1l1.7-0.3l1.3-0.6l0.2-0.3l0.5-0.2l0.2,0.1l0.3-0.1h0.3l1-0.2l0.2-0.2l0.1-0.2
		l0.3-0.2h0.3l1.2-0.4l0.8-0.4l0.7,0.1l0.3-0.1l2.2,0.2l0.7-0.1l0.3-0.1l0.8,0.3l1,0.2l0.6,0.3l0.3-0.1l0.7,0.3h0.4l0.7,0.4l0.7,0.6
		l1.3,1.4l0.4,0.3l0.9,0.4l0.2,0.2l0.6,0.3l0.6,0.6l0.3,0.6l0.1,0.5l0.6,0.8l0.2,0.1h0.1l0.4-0.1l-0.1-0.6l-0.1-0.2l-0.3-0.5
		l-0.3-0.6l-0.5-0.6l-0.5-1l-0.5-0.7l-0.6-0.4l-0.1-0.3l-0.7-0.7l-0.3-0.6l-0.8-0.7l-0.6-1l-0.2-0.2l-0.9-0.3l-0.2-0.2l-0.2-0.1
		l-0.6-0.5l-1.5-0.6l-0.8-0.6l-0.3,0.1h-0.3l-0.7-0.3l-0.3-0.4l-0.7-0.2l-0.6-0.3l-1.1-0.2l-1-0.3l-0.8-0.1l-0.3-0.1l-0.1-0.2
		l-0.6-0.2l-0.5-0.3l-0.3-0.1l-0.3-0.2l-0.7-0.1l-0.3-0.2l-0.8-0.2l-1.9-0.3h-0.3c-0.4-0.1-0.9-0.2-1.3-0.3l-0.3-0.2l-0.3-0.1
		c-0.6-0.2-1.3-0.3-2-0.3l-1-0.3l-0.8-0.1l-1.7,0.4l-0.3-0.1l-0.6-0.3l-0.1-0.2l-0.5-0.2l-1.5-0.1l-0.1-0.1l-0.5,0.1l-0.1-0.1
		l-0.2,0.1l-1.3,0.1l-1-0.2l-0.6,0.1l-0.5-0.2h-0.2l-0.6-0.1h-1.5l-0.8-0.1l-0.3-0.1l-0.2-0.1l-0.6-0.2l-0.8-0.4l-0.3-0.3l-0.1-0.2
		l-0.6-0.5l-0.2-0.3l-0.1-0.3l0.2-0.8l0.2-0.2l0.9-0.2l0.5-0.3l0.1-0.2h0.3l0.2-0.2l0.3,0.1l0.2-0.1l0.1-0.2l0.6-0.2l0.1-0.2
		l0.4-0.2l0.3,0.1l0.2-0.1l0.4-0.2l0.6-0.2l0.2-0.2l0.1-0.1l0.1,0.1l0.3-0.1l0.8-0.3l0.5-0.1"/>
</g>
<g id="highline">
	
		<path id="t1_p363_1_" fill="none" stroke="#4CB68A" stroke-width="4" stroke-linecap="round" stroke-linejoin="round" stroke-miterlimit="10" d="
		M384,433.2l0.2-0.1l0.1-0.3l0.1-0.1v-0.1l0.6-0.6l0.1-0.2l0.1-0.3l-0.1-0.4v-0.3l0.1-0.3l0.3-0.2l0.2-0.4l0.1-0.1l0.3,0.3l0.3,0.1
		l0.3,0.6v0.3l0.1,0.1l0.2-0.3l0.1-0.1v-0.3l0.1-0.6l0.6-2.2V427l-0.1-0.1l0.1-0.2l0.1-0.1l0.2-0.3l0.3-0.3l0.1-0.2l0.1-0.3l0.3-0.3
		l0.1-0.6l0.1-0.7l0.3-0.4l0.1-0.6l0.2-0.3l0.1-0.3l0.1-0.1l-0.2-0.6v-0.6l0.2-0.2h0.3l0.2,0.2h0.2l0.2,0.2l0.1-0.1l0.1-1.2l0.1-0.4
		l0.8,0.3l0.2,0.2l0.2,0.4l0.3,0.3l0.1,0.2l0.8,0.9l0.1,0.3v0.4l0.2,0.6v0.1l0.1,0.4l-0.1,0.5l-0.1,0.3v0.4l-0.1,0.5l0.1,0.2
		l0.1-0.4l0.8-1l0.1-0.4l0.1-0.4l0.2-0.2l0.4-0.7l0.4-0.4l0.1-1l0.3-0.6l0.1-0.6v-0.7l0.1-0.5l0.3-0.8v-0.4l-0.1-0.1v-0.8l0.1-0.2
		V416l-0.1-0.1v-0.2l0.4-1l0.3-1.1v-0.2l-0.3-0.6l-0.2-0.8l-0.1-0.1l-0.1-0.5l-0.1-0.4l-0.1-0.6c-0.2-0.5-0.3-1-0.6-1.5l-0.4-0.3
		l-0.1-0.1l0.8-0.1l0.7,0.2l0.3,0.3l0.3,0.2l0.4,0.2l0.3,0.2l0.9,1l0.4,0.3l0.1,0.2l0.3,0.1l0.1,0.1c0.1,0.6,0.3,1.2,0.6,1.7
		l0.6,0.8l0.2,0.6l0.2,1v0.6l0.1-0.1v-0.3l0.4-1.3v-0.8l-0.1-0.5l0.1-0.8c0.1-0.7,0.3-1.5,0.6-2.2l0.3-0.6l0.1-0.4v-0.5l0.1-1
		c0-0.6,0-1.3,0-1.9l-0.1-0.7l-0.1-0.3l-0.1-2.5c-0.1-0.3-0.1-0.8-0.2-1.1l-0.6-1l-0.4-0.5l-0.6-0.4l-0.7-0.3l-0.8-0.6l-0.8-1.3
		l-0.2-0.4l-0.8-1.3l2,0.9l0.6,0.1l0.3-0.1l0.5-0.1l0.1-0.3v-0.2l0.1-0.6l0.2-0.4l0.6-0.1l-0.6-0.4l-0.5-0.5l-0.7-1l-0.1-0.3
		l0.2-1.3l0.3-0.7l0.2-0.8l0.3-0.3l0.5-0.8v-0.2l-0.2-0.3v-0.2c0.1-0.1,0.1-0.3,0.2-0.4l0.1-0.4l0.1-0.2l0.1-0.3l0.2-0.4l0.2-0.1
		l0.2-0.3l0.1-0.4l0.7-1.5l0.3-0.3l0.4-0.2l0.3-0.5l0.1-0.4v-0.6l0.1-0.6l-0.1-0.8l0.1-0.7l0.4-0.8l0.7-1l0.1-0.2l0.1-0.5l0.3-0.6
		l0.1-0.4l0.1-0.1l0.1-0.6l0.1-0.3l0.1-0.6l0.2-0.6l0.1-0.4l0.2-0.3V373l0.2-0.4l0.4-0.6l0.4-0.2l0.1-0.2l0.6-0.4l1.1-0.2l0.3-0.1
		l0.3-0.4l0.3-0.3l0.1-0.2v-0.2l0.1-0.1v-0.1c0.3-0.6,0.7-1.1,1-1.7l0.4-0.6l0.5-0.2l0.3-0.6l0.2-0.1l1.6-0.9h0.3l0.4,0.1h1.3
		l0.6,0.1c1.3,0,2.9,0.5,4.1-0.3l2.2-1.6l0.6-0.3l0.9-0.2l1-0.6l0.4-0.1l0.6-0.3l0.6-1c0.2-0.1,0.4-0.3,0.7-0.5l1.3-0.5l2-1.4
		l0.7-0.3l0.3-0.4l0.2-0.1l1.2-0.4v0.1l0.4-0.2l0.3-0.1l1.8-1.1l0.5-0.1l0.2-0.1l0.2-0.3l0.5-0.3l0.8-0.1l0.4-0.2
		c0.3-0.3,1-0.1,1-0.1l0.1-0.1l0.1,0.1l0.4-0.2l0.3-0.1l0.3-0.2l0.5-0.3l0.3-0.6l0.3-1.1l0.1-0.3V352l0.6-0.9l-0.1-0.1l0.1-0.2
		l0.4-0.3l0.1-0.3l0.3-0.3l0.3-0.4l0.5-0.2l0.5-0.4l0.1-0.1l0.3,0.1l0.1-0.3l0.3-0.2l0.2-0.3v-0.6l0.1-0.1l-0.1-0.3v-0.4l-0.1-0.1
		l0.2-0.3l0.3-0.2l0.1,0.1l0.2-0.1l0.3-0.3l0.1-0.1l0.3,0.1l0.6-0.2l0.2-0.1l0.5-0.7l0.6-0.4l0.2-1.6l0.1-0.1v-0.1l0.1-0.4v-0.1
		l0.1-0.3v-0.4l0.1-0.3l0.3-0.6l0.1-0.4l0.1-0.1v-0.1l0.2-0.2l0.1-0.1l0.1-0.1l0.1-0.4l0.2-0.1l0.3-0.3l0.1-0.1v-0.3l0.1-0.1
		l0.7-0.2l0.1,0.1l0.4,0.3l0.3-0.1l0.7,0.3l0.2,0.3h0.1l0.2,0.2l0.3,0.5l0.1,0.1l0.1-0.1l0.1-0.2l0.2-0.6l0.1-0.1v-0.2l0.1-0.4
		l0.1-0.4l-0.1-0.4l0.1-0.1l0.7-0.5l0.5-0.1l0.3,0.1l0.2-0.2h0.5l0.3-0.2l0.3-0.1l0.1-0.1l0.3-0.1l0.1-0.2v-0.3l0.3-0.5l0.1-0.3
		l0.4-0.6h0.1l0.3-0.3v-0.1l0.1-0.4l0.2-0.2l0.2-0.1h0.2l0.6-0.1l0.1-0.2l0.1-0.1l0.1-0.1l0.1-0.1l0.3-0.1l0.3-0.3l1.2-0.6l0.2-0.2
		l0.1-0.5l0.1-0.3l0.3-0.2l0.3-0.1l0.1-0.1l0.1-0.2h0.1l0.1-0.2l0.6-0.1l0.1,0.1l0.1-0.1l0.5,0.1l0.1-0.1l0.2-0.1l0.4,0.1
		c0,0,0.2,0.1,0.2-0.1v-0.2l0.2-0.6V328l0.8-0.6l0.3-0.1l0.6-0.7l0.1-0.6l0.1-0.2l0.2-0.5l0.1-0.1v-0.2l0.1-0.4v-0.3l-0.1-0.1v-0.1
		V324l0.2-0.2v-0.3l0.1-0.3l0.1-0.1v-0.8l0.1-0.3l0.2-0.8c-0.1-0.6-0.3-1.3-0.3-1.9l-0.3-0.4l-0.1-0.4v-0.1l-0.2-0.3V318l-0.1-0.2
		l-0.2-0.1l-0.1-0.3v-0.2l-0.1-0.1l-0.3-0.6h-0.1l-0.1-0.2l-0.1-0.6l-0.5-0.5l-0.4-0.6h-0.1v-0.2v-0.1l-0.1-0.3l-0.2-0.2l-0.1-0.1
		l0.1-0.2l-0.2-0.4l-0.2-0.2l-0.1-0.4l-0.3-0.4h0.1v-0.2l-0.1-0.1l-0.1-0.3l-0.1-0.3l0.1-0.1h-0.1l0.2-0.6l-0.1-0.1v-0.3l0.2-0.3
		l0.1-0.3l-0.1-0.1v-0.1l0.2-0.2l0.2-0.8v-0.7l0.2-0.2v-0.3l0.3-0.4l0.6-1l0.3-0.3l0.1-0.2l0.2-0.3c0.1-0.3,0.3-0.5,0.6-0.7l0.7-0.2
		l0.8-0.6l0.1-0.1l0.6-0.3l0.3-0.3l0.1-0.4l0.5-0.6v-0.1l0.3-0.3l0.4-0.7l0.5-0.3v-0.2l0.2-0.3v-0.1l0.1-0.3h0.1l-0.1-0.1l0.4-0.8
		l0.1-0.8l0.1-0.3l0.1-0.8l-0.1-1.4v-0.8c-0.1-0.2-0.1-0.4-0.2-0.7l-0.1-0.5v-0.2l0.2-0.6v-0.2l-0.1-0.8l0.1-0.3v-0.8l-0.1-0.2
		l0.1-0.1l0.1-0.1l0.1-0.6l0.1-0.2l0.1-0.1l0.5-0.1l0.1-0.1V288l-0.1-0.3l-0.3-0.3l-0.1-0.6l-0.1-0.2l-0.2-0.6l-0.2-0.3l-0.5-0.6
		l-0.3-0.9v-0.6l0.2-0.2l-0.1-0.7l-0.5-1.5v-0.3l-0.3-0.6V280l-0.1-0.1l-0.3-0.1l-0.2-0.2v-0.3l-0.3-0.5l-0.1-0.3l-0.2-0.2l-0.1-0.3
		l-0.1-0.1l-0.1,0.1l-0.1-0.1l-0.1,0.1l-0.1-0.1h-0.1l-0.3-0.9l0.2-0.2l0.3-0.3l0.2-0.1l0.2-0.3h0.1l0.2-0.4l0.1-0.1l0.2-0.2
		l0.2-0.4l0.2-0.2v-0.1l0.2-0.2v-0.1l-0.1-0.2l-0.1-0.4h-0.3l-0.8-0.3l-0.2-0.2l-0.5,0.1l-0.3-0.1l-0.2,0.1l-0.1-0.1l-0.1,0.1
		l0.1-0.1v-0.3l0.4-0.6l0.2-0.2l0.1-0.1l0.4-0.4v-0.2l-0.1-0.1l0.3-0.3h0.1l0.1-0.3l0.3-0.2l0.2-0.2l0.1-0.3l0.1-0.1v-0.1l-0.1-0.1
		h-0.1l0.3-0.2l0.1-0.2v-0.5l0.1-0.1l0.1-0.3l0.1-0.6l0.2-0.3l0.3-0.2l0.3-0.7v-0.2l0.1-0.4v-0.2l0.2-0.2l0.3-0.1l0.2-0.6l0.3-0.4
		v-0.1l0.1-0.1v-0.2v-0.2l-0.1-0.1l0.6-0.9l0.1-0.3l0.1-0.1l0.2-0.2v-0.8l0.3-0.4l0.6-0.5l0.6-0.8l0.5-0.3l0.3-0.3l0.6-0.1l0.2-0.1
		v-0.1l0.8-0.5h0.5l0.9-0.2l0.1-0.3h0.1l0.1-0.1l-0.1-0.3l0.2-0.4l0.1-0.1l0.3-0.6l0.5-0.4v-0.3l0.3-0.4l0.3-0.9l0.1-0.1l0.6-0.1
		l0.6-0.8l0.5-0.1l0.3-0.3h0.1l0.2,0.2v0.1l0.1,0.1l0.6,0.4l1,0.3l0.3,0.3l0.9,0.2l0.2,0.2v0.1l0.6,0.5v0.3l0.2,0.3l0.1,0.1l0.3-0.3
		l1.1-0.1l0.2-0.1h0.2l0.2-0.1l0.3,0.2l0.2,0.2l0.6,0.3l0.3,0.3l0.2,0.4l0.4,0.3v0.2l0.2,0.2l0.2,0.2l0.1,0.1l0.2,0.2l0.1,0.1
		l0.2-0.1l0.1,0.1l0.1-0.1l0.1,0.3h0.2l0.1,0.1l0.2-0.1l0.1,0.1l0.2,0.3h0.1l0.6,0.4l0.1-0.1l0.6,0.1l0.5-0.2l0.6,0.1l0.6,0.1h0.3
		l0.1-0.1l0.3,0.1l0.3-0.1v-0.1l0.6-0.1l0.1-0.1l0.8-0.3l1-0.2l0.3-0.1l0.4,0.2l1.1,0.1l0.2-0.1l0.3-0.4l0.6-0.3v-0.2l-0.1-0.2
		l0.8-0.1l0.7-0.3l0.3,0.1l0.2,0.2l0.5,0.2l0.2-0.1l1-0.2c0.3-0.3,0.6-0.6,0.8-0.8v-0.2l0.2-0.5l0.2-0.2l0.5-0.2l0.3,0.1l0.1-0.1
		l0.3,0.1l0.6,0.1l0.2-0.1l0.1-0.1l0.3,0.1l0.7-0.2h0.4l0.2-0.2l0.3-0.1h0.3l0.6-0.3l0.3-0.3l0.1,0.1l0.7-0.1l0.6,0.3l0.6,0.1
		l1.9-0.1l0.4,0.2l0.3-0.1l0.3-0.2l0.3-0.1l0.6-0.2l1,0.1l0.1-0.1v-0.7l-0.1-0.1l0.1-0.2h0.2l0.1,0.1c0.2,0,0.4,0.1,0.6,0.1l0.3-0.2
		l0.1-0.1l-0.1,0.1v-0.3l-0.1-0.1l0.1,0.1l0.1-0.1l0.2,0.2l0.1-0.1l0.2,0.1h0.4l0.3,0.1l0.4,0.3l0.1,0.5l0.3,0.2l0.2-0.3l0.1-0.7
		l0.2-0.2l0.4,0.1l0.3-0.1l0.1,0.1v0.1l0.3,0.5l0.1,0.1l0.2,0.1v-0.3l-0.1-0.3v-0.1l0.3-0.8l0.6-0.1l0.3-0.3l0.6-0.1l0.8,0.1
		l0.8-0.2l0.3,0.2l0.8,0.1l0.3-0.1v-0.2l0.5-0.4l0.3-0.1l0.1,0.1l0.1-0.1l0.6,0.3l0.3,0.1h0.3l0.1,0.2l0.6,0.2l0.5,0.3h0.1l0.5,0.2
		l1.1,0.1l0.1-0.1h0.3l0.3-0.3l0.1,0.1l0.6-0.4h0.3l0.3-0.1h0.3l0.3,0.2l0.5-0.1l0.1-0.1l0.1-0.1l0.6-0.1h0.5l0.2,0.1l0.3-0.1
		l0.4,0.1l0.1-0.1l0.6,0.1h0.3l0.6-0.2l0.2-0.2l0.1,0.1v-0.1l0.1-0.1v-0.5l-0.1-0.4c0.1-0.3,0.1-0.5,0.1-0.8l0.2-0.2v-0.2l0.1-0.1
		l0.1-0.3l0.4-0.3v-0.1l0.1-0.1l0.1-0.1v-0.1l0.2-0.2l0.3-0.4l0.2-0.2l0.4-0.7l0.2-0.2l0.2-0.3l0.1-0.1v-0.1l-0.1-0.3l0.1-0.1
		l0.1-0.4c0-0.2-0.1-0.5-0.1-0.7v-0.2h0.1l0.3-0.6l0.1-0.3l0.1-1.3l0.3-0.4l0.1-0.1l0.1-0.4l0.1-0.1v-0.3l0.1-0.4l0.1-0.2l0.1-0.1
		l0.1-0.3l0.1-0.1l0.1-0.1l0.2-0.5v-0.2l0.2-0.6h0.2l0.1-0.1l0.6,0.1c0.2,0,0.4,0.3,0.4,0.3l0.1,0.1l0.3,0.1l0.1,0.2l0.6,0.1
		l0.2,0.2l0.1,0.3l0.1,0.2l-0.1,0.3l0.1,0.1v0.2l0.2,0.3l0.5,0.3l0.3,0.3l0.1,0.3l-0.1,0.7l-0.2,0.6l-0.1,0.1l-0.1,0.3l-0.3,0.4
		l-0.1,0.4L556,244l0.2,0.5v0.8l0.2,0.3h0.1l0.1,0.4l0.2,0.1l0.2,0.4l0.2,0.1v0.1l0.1,0.3l0.8,0.6l0.9,1.2v0.4l0.1,0.1v0.1l0.1,0.3
		v0.3l0.1,0.3l0.1,0.2l0.1,0.1v0.3l0.1,0.1v0.1l0.1,0.2l0.2,0.8l0.2,0.3v0.2l0.3,0.5l0.6,0.3l0.3,0.3l0.2,0.1
		c0.2,0.2,0.4,0.4,0.6,0.6v0.2l0.3,0.3l-0.1,0.1v0.1c0.1,0.2,0.2,0.4,0.3,0.7v-0.1l0.1,0.2l0.4,0.7l0.1,0.1l0.1-0.1l0.1,0.1l0.1,0.3
		l0.2,0.1l0.3,0.3l0.3,0.2l0.1,0.2v0.1l0.1,0.2l0.3,0.4v0.1l0.1,0.1l0.1,0.2l0.1-0.1l0.1,0.1l0.3,0.8l0.6,0.8l0.1,0.3l0.2,0.3
		l0.1,0.4l0.5,0.7l0.3,0.1l0.7,0.6l0.2,0.1l0.2,0.1l0.5,0.4l0.2,0.3l0.1,0.2l0.2,0.2v0.3l0.2,0.2v0.1l0.1,0.1l0.2,0.4v0.3l0.1,0.2
		l-0.1,0.1l0.1,0.1l-0.1,0.1l0.2,0.6v0.2l0.1,0.1l-0.1,0.2l0.5,0.6l0.1,0.3l0.1,0.1l0.1,0.1v0.3l0.3,0.4v0.2l0.1,0.1l0.3,0.4
		l-0.1,0.4l-0.1,0.1v0.3l0.2,0.3l-0.2,0.3v0.3l-0.1,0.1l0.1,0.1l-0.1,0.1v0.3l-0.1,0.2v0.2l0.2,0.6l-0.2,0.1l-0.2,0.6v0.4l-0.3,0.2
		l-0.2,0.2l0.1,0.3v0.3l-0.2,0.4v0.2l-0.1,0.3v0.4h-0.1l-0.1,0.2h-0.3l-0.2-0.1h-0.4v0.1h-0.1l-0.1,0.3l0.1,0.3l-0.1,0.2l-0.1-0.1
		l-0.5,0.1l-0.1-0.1l-0.2,0.1h-0.3l-0.1-0.1l-0.3,0.1l-0.9,0.6v0.3l0.1,0.1v0.2l0.1,0.2l0.2,0.1l0.6,0.7l0.1,0.4l-0.1,0.1v0.1
		l0.2,0.2l0.1,0.2v0.2l-0.2,0.2l-0.2,0.6l-0.1,0.1v0.2l0.2,0.3l0.1,0.4v0.3l-0.1,0.5l-0.1,0.2l0.3,0.3v0.3l-0.3,0.1l-0.2,0.2
		l-0.5,0.1l-0.3,0.2l-0.3,0.1l-0.4,0.7l0.1,0.3l-0.1,0.1l-0.6,0.3l-0.7-0.2l-0.1,0.1v0.1l-0.8,0.3l-0.3-0.1l-0.1-0.1h-0.1l-0.2,0.2
		l-0.1-0.1l-0.2,0.2v0.3l-0.1-0.1l-0.4,0.2l-0.1-0.1l-0.3,0.3l-0.1,0.1l-0.2,0.1l-0.2,0.3v0.1L561,289v0.2l-0.3,0.2l-0.1,0.1v0.2
		l-0.5,0.2v0.2l-0.3,0.1v0.2l-0.1-0.2l-0.1-0.1l-0.1,0.1v0.2l-0.3-0.1l-0.3,0.3v0.1l-0.6,0.6l-0.1,0.5l-0.1,0.9l0.1,0.4l-0.1,0.6
		l-0.2,0.2h-0.1v0.1l-0.2,0.2v0.1l-0.5,0.3h-0.3l-0.3,0.4l-0.1,0.3l-0.2,0.3v0.3l-0.3,0.3l0.1,0.1l-0.1,0.1v0.3l0.1,0.3l-0.1,0.6
		l-0.1,0.8v0.6l-0.1,0.3l-0.2,0.3v0.3l-0.1,0.1v0.1l-0.1,0.1c0.1,0.3,0.1,0.8,0.2,1.2l-0.1,0.1v0.4l-0.1,0.3l-0.4,0.6l-0.3,0.3
		l-0.3,0.1v0.1h-0.1l-0.1,0.5v0.1l-0.1,0.4v0.5l0.6,0.1l0.7,0.4h0.6l0.3,0.1l0.2-0.2l0.6-0.1l1.3,0.1l0.4,0.1l0.2,0.3v0.7l0.1,0.4
		l-0.1,0.2l-0.1,0.1v0.1l-0.1,0.1l0.1,0.2l-0.1,0.1v0.4l-0.1,0.3v0.2l-0.2,0.1v0.1l0.1,0.3l0.6,0.3l0.6,0.1l0.4-0.2l0.4,0.1l0.5-0.1
		l0.5-0.3h0.3l0.1-0.1l0.3,0.1l0.6,0.3h0.5l0.3-0.1l0.3,0.4l0.1,0.1l0.1,0.2l0.2-0.1l0.6,0.5h0.8l0.6,0.2l0.6,0.1l0.2,0.1l1-0.3
		l0.4-0.3l0.2-0.3l0.3-0.3l0.2-0.3l0.1-0.1l0.8-0.1l0.3,0.2l0.4,0.1l0.1,0.1l0.8-0.1l0.9,0.1l1-0.2l0.3,0.1l0.5-0.1l0.5,0.2l0.7,0.1
		l0.1,0.1c0.4,0,0.9,0,1.3,0.1l0.4-0.1l0.3-0.1l1.2-0.1l0.4,0.3l0.2,0.1l0.2,0.2l0.3,0.4l0.3,0.1l0.7,0.7l0.6,0.2h0.4l0.2,0.1
		l0.2,0.1l0.6,0.1l0.5-0.2l0.1-0.1l0.1,0.1l0.1-0.2l0.1-0.1l0.1-0.3l0.2-0.3l0.3-0.3v-0.2l0.1-0.3l0.1-0.8l-0.1-0.2l0.1-0.6
		l-0.1-0.4l0.5-0.3"/>
</g>
<g id="theriault-lake">
	
		<path id="t1_p108_2_" fill="none" stroke="#4CB68A" stroke-width="4" stroke-linecap="round" stroke-linejoin="round" stroke-miterlimit="10" d="
		M416.8,317.4l-0.4,0.2l-0.3,0.3v1l0.1,0.5l0.5,0.5l0.8,0.6l0.7,0.1l0.5,0.4l0.3,0.6l0.2,0.1l0.3-0.1l0.3,0.2l0.6,0.6l0.3,0.6
		l0.2,0.2c0.1,0.3,0.2,0.6,0.3,0.8v0.3l0.2,0.7l0.2,0.3c0.1,0.1,0.1,0.3,0.1,0.6v0.3l0.1,0.7l0.3,0.6l0.5,0.4l0.4,0.3l0.3,0.7
		l0.3,0.3l0.8,0.8l0.6,0.4l0.1,0.2l0.6,0.6l0.5,0.7l0.3,0.3l0.4,0.1l0.4,0.4l0.2,0.1l0.3,0.4l1.5,0.9l0.3,0.1l0.9,0.5l0.5,0.4
		l0.3,0.1l0.6,0.5l0.1,0.6v0.4l0.2,0.6l0.6,0.5l0.1,0.4c0,0.4,0,0.8-0.1,1.3l-0.3,1.5l-0.2,0.3l-0.1,0.3l-0.6,0.6l-0.1,0.3l0.1,0.2
		l-0.5,0.1l-1.4-0.1l-1,0.1l-0.7,0.3l-0.7,0.1v0.1l0.3,0.4l0.2,0.3l0.6,0.4l0.4,0.7l0.5,0.5l0.4,0.6l0.6,0.6l0.2,0.3l0.9,0.7l1,0.6
		l0.3,0.3l0.2,0.2l0.3,0.6l0.3,0.6l0.1,0.3l-0.1,0.6l0.1,0.2l0.3,0.3l0.1,0.2l0.5,0.3h0.3l1.1-0.3l0.7-0.1l1.1-0.3
		c0.7-0.3,1.5-0.7,2.2-1l0.2-0.2c0.4-0.2,0.8-0.4,1.3-0.6l0.1,0.1l0.2,0.7l0.1,0.8l0.3,0.3h0.2l0.1,0.1l0.7,0.3l0.7,0.6"/>
</g>
<g id="bluebird-lake">
	
		<path id="t1_p192_2_" fill="none" stroke="#4CB68A" stroke-width="4" stroke-linecap="round" stroke-linejoin="round" stroke-miterlimit="10" d="
		M259.8,246.5c0.2-0.1,0.3-0.1,0.6-0.1l0.3-0.3h0.1l0.3-0.3l0.1-0.2l0.3-0.2l0.6-0.1l1.1,0.1l0.3,0.1l0.3,0.3l0.4,0.1l0.9,0.4
		l0.1,0.1l1,0.3l0.6,0.1l0.3,0.1l0.3,0.1l0.3,0.3l0.6,0.7l0.3,0.8l0.8,0.7l1.3,0.8l0.2,0.2l0.5,0.3l0.3,0.3l0.2,0.6l-0.1,1.8
		l-0.2,0.4l-0.1,0.2l0.1,0.1l0.2,0.2l0.6,0.4l0.1,0.1l1-0.5h0.1l1.7,0.4l1.1,0.7l0.6,0.2l0.7-0.2h0.7v-0.1l0.3-0.1
		c0.2,0,0.4,0.1,0.6,0.1l0.1,0.2l0.1,0.2l0.1,0.1l0.1-0.1l0.2-0.4l0.5-0.5l0.3-0.6v-0.3l0.2-0.4l0.1-0.5c0-0.3,0.1-0.7,0.1-1
		l-0.1-0.2l-0.3-0.4l-0.3-0.8c0-0.5,0-1,0-1.5l0.1-0.3v-0.3l0.1-0.3l0.2-1l0.3-0.4l0.6-0.5l0.1-0.5l0.2-0.3l0.2-0.1l0.8,0.1l0.5,0.4
		l0.3,0.1l0.3-0.1l0.6-0.2l1.3-0.1l0.8,0.1l0.8-0.1l0.5,0.4l0.6,0.8v0.6l0.1,0.3v0.2l0.1,0.5l-0.1,0.2v0.1l-0.1,0.1l-0.2,0.5v0.3
		l-0.1,0.5l0.1,0.3l-0.1,0.3l0.3,0.1l0.3,0.2l0.8,1l1.6,1.4v0.1l0.3,0.4l0.3,0.1l0.3,0.3l0.1-0.1l-0.1-0.8l0.1-0.9l0.5-1v-0.1
		l0.1,0.1l0.4,1l0.1,0.1l0.2,0.6l0.3,0.2l0.3,0.1l0.3,0.3l0.2,0.4l0.8,0.4l1.1,0.3l1,0.4l0.8,0.6c1,0.3,1.9,0.8,2.7,1.3l1.5,0.6
		l0.5,0.4l0.6,0.4l0.6,0.7l0.3,0.1l0.7-0.2h0.7l0.7,0.1l1.5-0.2l0.9-0.6l0.4-0.1l0.3-0.2l0.1-0.2l0.1-0.4l0.1-0.3l-0.1-0.4l0.2-0.4
		l0.2-0.9l0.3-0.7l0.6-0.6l0.4-0.3l1.5-0.2l0.5,0.1l0.9-0.3l0.5-0.3l0.3-0.6l0.4-0.3l0,0l0.3-0.1l0.3,0.1l0.6-0.3l0.6-0.4l1-0.4
		l0.3-0.1l0.4,0.1l1.8-0.1l1,0.1l0.9-0.2l0.6,0.1l0.4-0.2h0.2l2.9,0.5l0.5,0.2l1.1,0.1l0.9-0.1l1.5,0.3l0.3,0.1l0.4-0.1l1.3,0.3
		l1.3,0.1l0.6,0.1l1-0.4h0.8l1.1-0.6l1.5,0.1c0.7-0.1,1.4-0.1,2.1-0.1l2.1-0.3l1.1-0.3l0.3-0.1l1.1-0.6l0.2-0.2v-0.3
		c-0.4-1.2-0.7-2.4-1-3.7c-0.3-0.7-0.6-1.4-0.8-2.2v-0.4l-0.1-0.5l-0.7-0.3l0.5,0.1"/>
</g>
<g id="wolverine">
	
		<path id="t1_p150_2_" fill="none" stroke="#4CB68A" stroke-width="4" stroke-linecap="round" stroke-linejoin="round" stroke-miterlimit="10" d="
		M373.5,303.1L373.5,303.1L373.5,303.1L373.5,303.1l0.1-0.1l0.3-0.2l0,0l0,0l0,0l0.1-0.1l0.1,0.1h0.1c0.1,0,0.1,0,0.1,0h0.1h0.1
		c0.1,0,0.1,0,0.1,0h0.1l0,0l0,0h0.1h0.1l0.3,0.1l0.1,0.1h0.1l0,0l0,0l0,0l0.1,0.1l0.3,0.3l0,0l0,0l0,0l0,0l0.1,0.1h0.1h0.1h0.1l0,0
		l0.2-0.1h0.1h0.1c0.1,0,0.1,0,0.1,0l0.5,0.1c0.1,0,0.1,0,0.1,0.1h0.1l0,0l0,0l0,0l0.1-0.1c0.1,0,0.1-0.1,0.1-0.1v-0.1v-0.1
		l-0.1-0.2v-0.1c0,0,0,0,0-0.1l0,0l0,0l0,0v-0.1l0,0l0,0c0-0.1,0-0.1,0-0.1c0-0.1,0-0.1,0.1-0.1v-0.1c0-0.3,0-0.5-0.1-0.8v-0.1v-0.1
		c-0.1-0.3-0.1-0.6-0.1-0.8l0,0l0,0l0,0l0,0l-0.1-0.2l0,0v-0.1v-0.1l0,0l-0.1-0.3l0,0l0,0l0,0l0,0l0,0v-0.1v-0.1v-0.1l0,0
		c-0.1-0.1-0.2-0.2-0.3-0.3l-0.1-0.3V299V299v-0.1l0,0l0,0l0,0l-0.1-0.2l0,0l0,0v-0.1l0.1-0.3l0.1-0.1c0-0.1,0-0.1,0-0.1
		c0-0.1,0-0.1,0-0.1l0-0.3v-0.1v-0.1v-0.1h-0.1l-0.1-0.1l-0.1-0.1v-0.1v-0.1l-0.1-0.1l0,0l0,0l0,0l0,0l0,0c-0.1,0-0.1-0.1-0.2-0.1
		h-0.1l0,0l0,0l0,0l0,0l-0.1-0.1l0,0l0,0c-0.1-0.1-0.3-0.3-0.4-0.4l0,0l0,0l0,0v-0.1l-0.3-0.1h-0.1l-0.1,0.1l-0.1,0.1v0.1H375h-0.1
		h-0.1h-0.1c-0.1,0.1-0.3,0.2-0.5,0.3h-0.1l0,0l0,0l0,0c-0.1-0.1-0.3-0.1-0.4-0.1h-0.1v-0.1c0-0.1,0-0.1,0-0.1l-0.1-0.3
		c0,0,0-0.1-0.1-0.1l-0.1-0.1V296l-0.1-0.1v-0.1v-0.1v-0.1v-0.1l-0.1-0.6v-0.1v-0.1v-0.1v-0.1l-0.3-0.5l0,0l0,0v-0.1v-0.1V294
		l-0.3-0.1l-0.1-0.1l-0.1-0.1l-0.1-0.1v-0.1v-0.1l-0.1-0.1c-0.1-0.1-0.1-0.1-0.1-0.1v-0.1v-0.1l-0.1-0.1l-0.1-0.1
		c-0.1-0.1-0.3-0.2-0.3-0.3l-0.1-0.1h-0.1l-0.1-0.1l0,0l0,0l0,0v-0.1v-0.2h-0.1l-0.1,0.1v-0.1v-0.1V292v-0.1v-0.1v-0.1
		c0-0.1,0.1-0.1,0.1-0.2v-0.1l0.1-0.2l0.1-0.1v-0.1c0,0,0-0.1,0.1-0.1c0.1-0.1,0.1-0.1,0.2-0.3v-0.1c0.1-0.2,0.1-0.3,0.1-0.6V290
		l0,0c0-0.1,0-0.1,0.1-0.2h0.1l0.2-0.1l0.3-0.1l0.1-0.1h0.1h0.1l0,0c0.1,0,0.1-0.1,0.2-0.1l0,0c0-0.1,0.1-0.1,0.1-0.1
		c0.1-0.1,0.1-0.1,0.3-0.2c0.1-0.1,0.1-0.1,0.1-0.1v-0.1c0.1-0.1,0.2-0.1,0.3-0.1l0.1-0.1c0.1-0.1,0.1-0.1,0.1-0.1l0.1-0.1l0,0h0.1
		c0.1-0.1,0.2-0.1,0.3-0.1v-0.1h0.1l0.1-0.1l0.1-0.1l0.1-0.2v-0.1v-0.1c0-0.1,0-0.1,0.1-0.1s0.2-0.2,0.3-0.3v-0.1v-0.1V287V287l0,0
		c-0.1-0.2-0.1-0.4-0.1-0.7l-0.1-0.1v-0.1V286c-0.1-0.3-0.1-0.6-0.2-0.8l0,0v-0.1c0-0.1,0-0.3,0-0.5v-0.1v-0.1
		c0.1-0.1,0.1-0.2,0.1-0.3l0.1-0.1h0.1l0.1-0.1l0.1-0.1c0.1-0.1,0.1-0.1,0.1-0.2l0.1-0.1v-0.1v-0.1l0.1-0.1v-0.1v-0.1v-0.1v-0.1
		v-0.1c0,0,0-0.1,0.1-0.1v-0.1v-0.1c0-0.1,0-0.1,0-0.1v-0.1v-0.1v-0.1c0-0.1,0-0.1,0-0.1l0.1-0.1v-0.1l0.1-0.1V282l0,0v-0.2h0.1
		l0.1-0.1h0.1c0.1-0.1,0.1-0.1,0.2-0.3h0.1c0.1,0,0.1,0,0.1,0l0.1,0.1h0.1c0.1-0.1,0.3-0.2,0.4-0.3h0.1l0,0c0.1,0,0.2-0.1,0.3-0.1
		l0,0h0.1h0.1l0,0l0.2-0.3l0,0l0,0v-0.1l0.2-0.3c0.1-0.1,0.1-0.2,0.2-0.3l0,0l0,0l0,0l0.1-0.1l0.1-0.1l0.1-0.1l0,0h0.1h0.1v-0.1
		l0.1-0.1v-0.1v-0.1l0.1-0.1l0.1-0.1l0.1-0.1l0.3-0.4h0.1c0.1-0.1,0.1-0.1,0.1-0.1c0.1-0.1,0.3-0.1,0.3-0.2l0.6-0.6l0.2-0.3h-0.1
		v-0.1l0,0l0,0l0,0c0.1-0.1,0.2-0.1,0.3-0.2c0,0,0-0.1,0.1-0.1v-0.1c0-0.1,0-0.1,0-0.1c0.2-0.3,0.5-0.6,0.8-0.9
		c0.1-0.1,0.2-0.3,0.3-0.4h0.1l0.1-0.1v-0.1c0.1-0.1,0.1-0.3,0.2-0.4l0.1-0.1l0,0v-0.1l0.1-0.1V275l0.1-0.1l0.2-0.5l0,0l0,0l0,0l0,0
		l0.1-0.1v-0.1v-0.1v-0.1l0.1-0.1c0-0.1,0.1-0.2,0.1-0.3l0.1-0.1c0.1-0.1,0.1-0.1,0.1-0.2c0-0.1,0.1-0.1,0.1-0.1l0,0l0.1-0.1l0,0
		l0,0l0,0l0.1-0.1l0.1-0.1c0.1,0,0.1-0.1,0.1-0.1l0.1-0.1l0.1-0.1c0.1-0.1,0.2-0.2,0.3-0.3v-0.3l-0.1-0.1l0,0l0,0c0,0,0,0,0-0.1h0.1
		v-0.2v-0.1l0,0v-0.1l0.1-0.2v-0.1c0-0.1,0-0.2,0.1-0.3l0,0v-0.1l0,0v-0.1v-0.1l0.3-0.3l0.1-0.5c0,0,0,0,0-0.1l0,0l0,0l0,0v-0.1
		v-0.1l0,0c0-0.1,0.1-0.2,0.1-0.3l0,0l0,0h0.1c0-0.1,0.1-0.2,0.1-0.3l0.1-0.1v-0.1c0.1-0.1,0.1-0.3,0.1-0.4v-0.1v-0.1l0,0l0,0l0,0
		V268l0,0v-0.1l0,0v-0.1c0-0.1-0.1-0.3-0.1-0.4v-0.1l0,0l0,0l0,0l-0.1-0.2c-0.1-0.1-0.3-0.1-0.4-0.2c0,0-0.1,0-0.1-0.1h-0.1
		l-0.1-0.1l-0.1-0.1v-0.1h-0.1l-0.1-0.1l-0.1-0.2h-0.1l0,0l0,0l0,0c-0.1-0.1-0.2-0.1-0.3-0.3c0-0.1-0.1-0.1-0.1-0.1
		c-0.1-0.1-0.1-0.1-0.1-0.1l-0.3-0.3l-0.4-0.7l-0.8-1l-0.1-0.1l-0.1-0.1c0-0.1,0-0.1-0.1-0.2c-0.1-0.2-0.2-0.4-0.3-0.6l0,0l0,0
		c0,0,0,0-0.1-0.1l0,0l0,0l0,0l0,0H381l0,0l0,0l0,0l0,0l0,0v-0.1v-0.1l0.3-0.5l0.8-0.7l0.3-0.7c0.5-0.3,0.9-0.7,1.3-1.1l0.7-0.5
		l0.7-0.7l0.6-0.5h0.3l0.2-0.1c0.2-0.3,0.4-0.8,0.6-1.2c0-0.1,0.1-0.2,0.1-0.3c0.1-0.5,0.2-1,0.3-1.5l-0.1-0.6l-0.4-0.9l-0.6-0.6
		l-1,0.3l-0.8-0.3l-0.6-0.5l-0.4-0.7c-0.1-0.1-0.1-0.2-0.2-0.3c-0.1-0.1-0.1-0.3-0.2-0.3l-0.1-0.1l-0.3-0.3l-0.1-0.1h-0.1
		c-0.1-0.1-0.1-0.1-0.2-0.1l0.1-0.7l0.3-0.3v-0.1l-0.1-0.2c-0.4,0.1-0.8,0.3-1.2,0.5c-0.3,0.1-0.7,0.1-1.1,0.1l-0.6-0.1l-0.1-0.1
		l-0.1-0.1c-0.1-0.3-0.1-0.5-0.2-0.7l-0.1-0.1l-0.2-0.1l-0.1-0.1h-0.1h-0.3l-0.1-0.1v-0.2c0.2-0.5,0.4-1,0.6-1.6
		c0.1-0.2,0.3-0.4,0.5-0.6c0.1-0.1,0.2-0.2,0.3-0.3l0.4-0.2l0.1-0.1l0.5-0.3l0.3-0.6l-0.1-0.5l-0.1-0.3c-0.2-0.3-0.4-0.5-0.6-0.7
		l-0.5-0.2c-0.8-0.2-1.6-0.5-2.4-0.7l-0.8-0.1l-0.7,0.4c-0.6,0.6-1,1.2-1.5,1.8c-0.3,0.4-0.8,0.8-1.2,1.1c-0.1,0.1-0.1,0.1-0.3,0.2
		l-0.1,0.1l-0.1,0.1c-0.4,0.2-0.8,0.4-1.3,0.6c-0.1,0.1-0.3,0.3-0.5,0.3c-0.1,0.1-0.3,0.1-0.5,0.2l0,0l0,0l-0.1-0.1l-0.1-0.1
		l-0.5-0.2l-0.3-0.1l-0.1-0.1c-0.8-0.3-1.7-0.6-2.7-0.8h-0.3L365,245l-1.1-0.8l-0.6-0.3l-0.4-0.3c-0.7-0.7-1.3-1.5-1.9-2.2l-0.3-0.5
		l0.1-0.4v-0.1l0.1-0.9v-0.1l0.1-0.1l-0.1-0.9l-0.1-0.1c0-0.5,0-0.9,0.1-1.4c0.2-0.6,0.5-1.2,0.8-1.7l0.1-0.2
		c0.1-0.2,0.2-0.4,0.3-0.6c0.2-0.6,0.5-1.2,0.8-1.7c0.6-1,1.4-1.8,2-2.9l0.6-1.4l0.3-1l0.6-0.8l0.2-0.1c0.5-0.1,1-0.3,1.5-0.3
		l0.3-0.3l0.1-0.2c0.1-0.3,0.3-0.7,0.4-1.1l0.3-0.6l0.1-0.1l0.4-0.2c0.1-0.1,0.3-0.1,0.5-0.1c0.2,0,0.3-0.1,0.6-0.1l0.2-0.1l0.3-0.1
		l0.2-0.3c0-0.4,0-0.8,0-1.3v-0.1v-0.1V221c0-0.1,0-0.2,0-0.3c0.1-0.2,0.1-0.4,0.2-0.6l0.3-0.7c0.5-0.3,0.9-0.7,1.3-1.1
		c0.1-0.1,0.2-0.2,0.3-0.3l0.1-0.2l0.1-0.1c0.1-0.2,0.3-0.3,0.5-0.6l0.5-0.3l0.4-0.4c0.1-0.1,0.3-0.2,0.4-0.3l0.1-0.1l0.1-0.2
		l0.1-0.5l-0.4-0.8l0.1-0.3h0.1h0.1l-0.2-0.2l0.1-0.2l0.3-0.4v-0.1l0.2,0.1h0.1h0.1h0.1h0.1l0.1-0.1v-0.1v-0.1l0,0V213l0.1-0.1
		l0.3,0.1l0.1-0.1c0.1-0.1,0.3-0.1,0.4-0.2v-0.1c0.1-0.1,0.1-0.1,0.1-0.1v-0.1v-0.1l0.2-0.3l0.1-0.1c0.1-0.1,0.1-0.1,0.3-0.1
		l0.1-0.1c0.1,0,0.1-0.1,0.2-0.1c0.3-0.1,0.6-0.3,0.8-0.4l0,0l0.2-0.1l0.1-0.1c0.2-0.1,0.3-0.1,0.6-0.1h0.1h0.1
		c0.1,0,0.1-0.1,0.2-0.1v0.1l0,0l0.1-0.1h0.1h0.1l0.3-0.1v-0.1v-0.1h0.1h0.1l0.5-0.2l0.1-0.1v-0.1h0.1l0.1-0.1l0,0h0.1l0.1-0.1
		c0.1-0.1,0.1-0.1,0.2-0.1l0,0l0,0l-0.1-0.1c0.1,0,0.3,0,0.3,0h0.1h0.1c0.1,0,0.1,0,0.1,0l0.1-0.1l0.1-0.1c0-0.1,0.1-0.1,0.1-0.1
		c0.1-0.1,0.3-0.3,0.4-0.4l0.3-0.1l0.1,0.1l0.1-0.1h0.1c0,0,0,0-0.1,0l0,0l0,0c0.1-0.1,0.1-0.1,0.2-0.1h0.1l0,0l0,0v-0.1h0.1
		c0.1-0.1,0.1-0.1,0.3-0.2l0.1-0.1h0.1h0.1h0.1c0.1,0,0.1,0,0.1,0h0.1h0.1l0,0h0.1l0,0l0.2-0.1h0.1v-0.1l0.1-0.1v-0.1l0.3-0.2
		l0.1,0.1l0.1,0.1h0.1l0,0v0.1c0.1-0.1,0.1-0.2,0.1-0.3l0.1-0.1h0.1l0,0c0.1-0.1,0.2-0.1,0.3-0.1v0.1h0.1v-0.1h0.1
		c0.1,0,0.1,0,0.1,0l0.1,0.1c0.1-0.1,0.3-0.1,0.4-0.2l0.1-0.1v-0.1l0,0h0.1l0,0l0.1-0.2c0.1-0.1,0.1-0.1,0.1-0.2h0.1h0.1h0.1
		l0.1-0.1v-0.1l0.1-0.1c0.1-0.1,0.1-0.1,0.2-0.2c0-0.1,0-0.1,0.1-0.1l0.5-0.3h0.1l0.1-0.1h0.1l0.1-0.1v-0.1l0.3-0.1h0.1
		c0.1,0,0.1-0.1,0.1-0.1l0.1-0.1l0.3-0.1h0.1h0.1c0.1,0,0.3,0,0.4-0.1l0.4,0.2c0.1,0,0.1-0.1,0.1-0.1l0,0v-0.1
		c0.1,0,0.3-0.1,0.4-0.1c0-0.1,0.1-0.1,0.1-0.1c0.1-0.1,0.3-0.1,0.3-0.2c0.1-0.1,0.1-0.1,0.1-0.1h0.1c0.1-0.1,0.3-0.3,0.5-0.4
		l0.1-0.1c0.1,0,0.1-0.1,0.1-0.1l0,0l0.1-0.1V204V204l0.1-0.1l0.1-0.1l0.1-0.1l0.4-0.4l0.3-0.2l0.1-0.1l0.1-0.1h0.1h0.1l0.3-0.4
		c0.1-0.1,0.1-0.1,0.2-0.1l0.1-0.1l0.1-0.1v-0.1l0.4-0.3l0.1-0.1h0.1h0.1h0.1h0.1l0.3-0.1c0.2,0,0.3,0,0.6,0
		c0.2-0.1,0.5-0.1,0.8-0.1h0.1c0.1,0,0.1,0,0.2,0l0.3-0.2c0.1,0,0.1,0,0.2,0h0.1l0,0h0.1c0.1-0.1,0.3-0.1,0.5-0.1c0.1,0,0.1,0,0.2,0
		l0.5-0.1l0.2-0.1l0.1-0.1l0.1-0.1l0.1-0.1l0.1-0.1l0.1-0.1c0.3-0.4,0.6-0.8,0.8-1.3l0.1-0.1c0-0.1,0.1-0.1,0.1-0.1l0.1-0.3v-0.2
		c0.3-0.4,0.6-0.8,0.8-1.3l0.3-0.6l0.3-0.2c0.1-0.1,0.2-0.3,0.3-0.3c0.2-0.2,0.3-0.4,0.6-0.7l0.1-0.1l0.1-0.1
		c0.3-0.2,0.6-0.4,0.8-0.6l0.5-0.7l0.1-0.9c0-0.3,0-0.5,0-0.8c0.1-0.2,0.1-0.4,0.1-0.7c0.1-0.1,0.1-0.2,0.1-0.3v-0.1l0.1-0.6
		l0.3-0.4c0.2-0.3,0.3-0.6,0.5-0.8l0.3-0.3l0.1-0.1c0.1-0.1,0.2-0.2,0.3-0.3c0.1-0.2,0.2-0.4,0.3-0.6c0.1-0.1,0.1-0.1,0.1-0.2
		c0.2-0.3,0.4-0.6,0.6-0.8l0.1-0.1l0.1-0.1v-0.1c0.1-0.1,0.3-0.2,0.5-0.3c0.1-0.1,0.1-0.1,0.2-0.1c0.3-0.1,0.5-0.3,0.7-0.5l0.1-0.1
		l0.1-0.1v-0.1c-0.1-0.1-0.1-0.3-0.2-0.5l-0.1-0.2l-0.1-0.3l-0.1-0.2l-0.1-0.2l-0.1-0.2v-0.8l0.1-0.3l0.1-0.3c0-0.6,0.1-1.1,0.1-1.7
		c0.1-0.3,0.1-0.6,0.1-0.8c0.1-0.2,0.1-0.3,0.1-0.6c0.1-0.2,0.2-0.4,0.3-0.6l0.1-0.3c0-0.9,0.1-1.9,0.3-2.7v-0.3
		c0.3-0.8,0.7-1.7,0.9-2.7c0.1-0.2,0.2-0.4,0.3-0.6l0.1-0.2l0.1-0.5c0.3-1.6,1.2-2.9,1.9-4.4l0.1-0.3l0.1-0.3l0.1-0.3v-0.3l0.1-0.3
		c0-0.2,0.1-0.3,0.1-0.6c0.1-0.5,0.2-1,0.3-1.5c0.1-0.3,0.2-0.7,0.3-1l0.1-0.3l0.1-0.3l0.1-0.3c0.1-0.3,0.1-0.6,0.3-1l0.1-0.1
		c0.1-0.1,0.1-0.2,0.1-0.3l0.1-0.3l0.1-0.1c0.1-0.1,0.1-0.3,0.2-0.5c0.1-0.1,0.1-0.3,0.2-0.4c0.1-0.3,0.1-0.6,0.3-0.9
		c0-0.1,0.1-0.3,0.1-0.5c0.1-0.3,0.2-0.7,0.3-1c0-0.1,0.1-0.3,0.1-0.5l0.1-0.3l0.1-0.3c0.1-0.4,0.3-0.8,0.4-1.3l0.1-0.3
		c0-0.3,0.1-0.5,0.1-0.8c0-0.1-0.1-0.2-0.1-0.3l-0.1-0.2c-0.1-0.1-0.2-0.3-0.3-0.4c-0.1,0-0.3-0.1-0.4-0.1l-0.2,0.1l-0.8,0.4h-0.1
		l-0.2-0.3l-0.1-0.6v-0.1c0-0.1,0-0.1,0-0.2l-0.1-0.1c-0.1-0.3-0.2-0.6-0.3-0.9l-0.1-0.1v-0.1v-0.1l-0.2-0.3l-0.1-0.3v-0.1
		c0,0,0,0,0-0.1v-0.1v-0.1v-0.1v-0.1c0-0.1,0-0.1,0-0.3l-0.1-0.3v-0.1l-0.1-0.1l-0.1-0.1v-0.1v-0.1c-0.1-0.3-0.3-0.6-0.5-0.8
		c-0.1-0.6-0.2-1.2-0.3-1.8V145l-0.1-0.8l-0.2-0.6l-0.1-0.2l-0.2-0.6l-0.8-0.6l-0.3-0.6v-0.1l-0.1-0.3l-0.1-0.1
		c-0.5-0.5-1-1-1.4-1.5c-0.1-0.1-0.3-0.3-0.5-0.3h-0.1c-0.1,0-0.2,0.1-0.3,0.1h-0.2c-0.1,0-0.1,0.1-0.2,0.1s-0.1,0-0.3,0.1H409
		l-0.2-0.1c-0.1-0.1-0.2-0.2-0.3-0.3h-0.1h-0.1l0,0l0,0l0,0v-0.1V139l0,0l-0.1-0.1c0-0.1-0.1-0.1-0.1-0.1v-0.1v-0.1v-0.2v-0.1
		l-0.1-0.1V138l-0.1-0.1l-0.1-0.1l-0.1-0.1c-0.1-0.1-0.1-0.1-0.2-0.1l-0.1-0.1l-0.2-0.2l-0.1-0.1c0-0.1,0-0.1,0-0.3v-0.1
		c-0.1-0.3-0.3-0.6-0.5-0.9l-0.1-0.1l-0.6-0.2c-0.3,0.2-0.6,0.5-0.9,0.7l-0.1,0.1h-0.2c-0.1,0-0.2,0.1-0.3,0.1l-0.2,0.1
		c-0.1,0.1-0.2,0.1-0.3,0.2H404h-0.1l-0.1-0.1l-0.1-0.1c-0.1,0-0.1,0-0.1,0l-0.1-0.1l-0.1-0.1l-0.1-0.1l-0.1-0.2v-0.2
		c0.1-0.2,0.1-0.4,0.1-0.6l0.1-0.2l0.1-0.2l0.1-0.1c0-0.1-0.1-0.2-0.1-0.3l0.1-0.1v-0.1l-0.3-0.1l-0.1-0.2l-0.1-0.1l-0.1-0.1
		l-0.1-0.1h-0.4c-0.2,0-0.4,0-0.6,0.1l-0.1,0.1l-0.1-0.1h-0.1l-0.1-0.1l0.2-0.6c0.2-0.2,0.5-0.4,0.8-0.6c0.1-0.1,0.3-0.2,0.3-0.3
		v-0.1c0.1-0.2,0.1-0.4,0.1-0.6c0-0.3,0-0.6-0.1-0.9c0-0.1,0-0.2,0-0.3v-0.1l-0.2-0.1l-0.1-0.1c-0.1-0.1-0.1-0.2-0.3-0.3v-0.1
		c-0.1,0-0.1,0-0.1-0.1c-0.1,0-0.1,0-0.2,0c-0.1,0-0.2,0.1-0.3,0.1c-0.2,0-0.3,0-0.6,0.1l-0.1,0.1l-0.1-0.1v-0.1v-0.1l0.1-0.2
		l0.3-0.4c0.1-0.1,0.2-0.1,0.3-0.2c0.1-0.1,0.3-0.2,0.5-0.3l0.1-0.1l0.1-0.3l-0.1,0.1h-0.1v0.1V127V127v-0.1v-0.1l-0.1-0.1l-0.1-0.1
		c-0.1-0.1-0.1-0.1-0.1-0.1c-0.1-0.1-0.1-0.2-0.1-0.3c-0.1-0.1-0.1-0.2-0.2-0.3l-0.1-0.3l-0.1-0.2c-0.1-0.1-0.2-0.2-0.3-0.3
		c-0.1-0.1-0.2-0.2-0.3-0.3c-0.4-0.1-0.8-0.3-1.1-0.4c-0.3-0.1-0.5-0.3-0.8-0.4l-0.1-0.1c0-0.1-0.1-0.1-0.1-0.3l-0.1-0.1
		c-0.1-0.1-0.2-0.3-0.3-0.4l-0.1-0.1h-0.3l-0.6-0.1l0,0c-0.1,0-0.1,0-0.1,0.1c-0.1,0-0.3,0-0.3,0h-0.2l-0.1,0.4
		c-0.1-0.1-0.3-0.2-0.5-0.3l-0.2-0.1h-0.2l-0.2-0.1c-0.3-0.2-0.6-0.3-0.8-0.6l-0.1-0.1c-0.1-0.1-0.2-0.2-0.3-0.3
		c-0.2-0.1-0.4-0.2-0.7-0.3c-0.8-0.6-1.5-1-2.2-1.7c-0.3-0.1-0.7-0.3-1-0.6l-0.2-0.1l-0.1-0.1c-0.3-0.2-0.6-0.5-0.9-0.6
		c-0.1-0.1-0.3-0.1-0.4-0.1c-0.3-0.1-0.5-0.3-0.7-0.5l-0.1-0.1l-0.1-0.1l-0.4-0.1l-0.5,0.1c-0.1-0.1-0.1-0.1-0.2-0.1l-0.1-0.1
		l-0.1-0.1c-0.4-0.2-0.8-0.3-1.3-0.4l-0.2-0.1l-0.2-0.1c-0.1,0-0.3-0.1-0.3-0.1c-0.1,0-0.3,0-0.4,0h-0.1h-0.3h-0.1h-0.1l-0.1-0.1
		h-0.1l-0.1-0.1c-0.2-0.1-0.3-0.2-0.6-0.3l-0.3-0.1l-0.2-0.1l-0.1-0.1l-0.1-0.1l-0.1-0.1c-0.1-0.1-0.2-0.1-0.3-0.2l-0.2-0.1
		c-0.4-0.2-0.8-0.4-1.2-0.6l-0.2-0.1l-0.6-0.6c-0.1-0.1-0.2-0.3-0.3-0.4c-0.5-0.4-1-0.8-1.5-1.2l-0.3-0.1l-0.2-0.2
		c-0.1-0.1-0.3-0.1-0.4-0.2l-0.1-0.1l-0.2-0.1c-0.1-0.1-0.3-0.1-0.4-0.1c-0.2-0.1-0.4-0.1-0.6-0.1h-0.2l-0.2-0.1
		c-0.1-0.1-0.3-0.2-0.5-0.3l-0.1-0.1c-0.1-0.1-0.2-0.1-0.3-0.2c-0.3-0.1-0.6-0.3-0.9-0.4c-0.1-0.1-0.3-0.2-0.4-0.3
		c-0.1-0.1-0.2-0.3-0.3-0.3l-0.1-0.1l-0.1-0.1c-0.1-0.1-0.3-0.1-0.5-0.1l-0.2-0.1c-0.2-0.1-0.4-0.3-0.6-0.5
		c-0.2-0.2-0.3-0.4-0.5-0.6l-0.1-0.1l-0.1-0.1c-0.2-0.1-0.3-0.3-0.6-0.6c-0.4-0.5-0.8-1-1-1.5l-0.1-0.2l-0.2-0.2
		c-0.2-0.3-0.5-0.7-0.8-1l-0.3-0.3l-0.2-0.3c-0.1-0.1-0.1-0.3-0.2-0.3l-0.2-0.2c-0.1-0.2-0.3-0.4-0.3-0.6l-0.1-0.1l-0.1-0.1
		c-0.1-0.1-0.1-0.1-0.3-0.2s-0.3-0.1-0.5-0.2c-0.1,0-0.1,0-0.2,0h-0.1c-0.1,0-0.3-0.1-0.5-0.1c-0.2,0-0.4,0-0.6,0
		c-0.5,0.1-1,0.2-1.6,0.3c-0.6,0-1.1,0-1.7,0.2l-0.4,0.1c-0.2,0.1-0.3,0.1-0.6,0.2h-0.2h-0.1h-0.1H357h-0.1l-0.1,0.1
		c-0.4,0.1-0.8,0.2-1.1,0.3c-0.6,0.1-1.3,0.3-1.9,0.3c-0.1,0.1-0.2,0.1-0.3,0.1c-0.1,0-0.2,0-0.3,0.1c-0.1,0-0.3,0-0.5,0
		s-0.3-0.1-0.5-0.1l-0.1-0.1l-0.1-0.1c-0.1-0.1-0.2-0.1-0.3-0.2c-0.3-0.2-0.6-0.4-1-0.6c-0.1-0.1-0.3-0.3-0.5-0.4l-0.1-0.1
		c-0.1-0.1-0.3-0.1-0.3-0.1c-0.1-0.1-0.2-0.1-0.3-0.2c-0.1-0.1-0.2-0.3-0.3-0.3l0,0l0,0l0,0l0,0v-0.1l-0.1-0.1
		c-0.1-0.1-0.1-0.2-0.1-0.3c0-0.1,0-0.2,0-0.3v-0.2l-0.1-0.1l-0.1-0.1V100l0.1-0.1h0.1h0.1h0.1l0.1-0.1v-0.3l-0.2-0.6l-1-0.7
		l-0.4-0.2c-0.3,0-0.5,0-0.8,0l-0.2-0.1c-0.1-0.1-0.3-0.2-0.4-0.3l-0.2-0.1c-0.1,0-0.3-0.1-0.4-0.1l-0.8-0.3
		c-0.3-0.1-0.5-0.1-0.8-0.1c-0.1,0-0.3,0-0.5,0c-0.2-0.1-0.3-0.1-0.6-0.2c-0.3,0-0.8-0.1-1.1-0.1l-0.2-0.1l-0.2-0.1l-0.2-0.1
		c-0.2-0.1-0.3-0.3-0.5-0.6c-0.2-0.2-0.5-0.4-0.8-0.6l-0.2-0.2c-0.2-0.3-0.3-0.6-0.6-0.8l-0.1-0.2c-0.1-0.1-0.2-0.2-0.3-0.3
		c-0.1-0.1-0.3-0.3-0.4-0.3l-0.2-0.2l-0.1-0.2l-0.1-0.2l-0.3-0.7c-0.2,0-0.4,0-0.6,0l-0.2-0.1h-0.2l-0.3-0.1l-0.4-0.2h-0.1
		c-0.4-0.2-0.9-0.3-1.4-0.4c-0.1-0.1-0.3-0.2-0.4-0.3l-0.1-0.1c-0.3-0.2-0.5-0.4-0.8-0.6l-0.2-0.3l-0.6-0.8l-0.3-0.1l-0.9-0.1h-0.1
		l-0.1,0.1l-0.1,0.1h-0.1l-0.1,0.1l-0.1,0.1c0,0.1-0.1,0.1-0.1,0.1c-0.3,0.1-0.6,0.3-1,0.4l-0.2,0.1h-0.3h-0.2l-0.5-0.1l-0.3-0.2
		l-0.1-0.1c-0.1-0.1-0.2-0.3-0.3-0.5l-0.1-0.2c-0.1-0.1-0.3-0.3-0.4-0.4c-0.1-0.1-0.3-0.1-0.5-0.2c-0.1-0.1-0.3-0.2-0.3-0.3
		c-0.1-0.1-0.3-0.1-0.5-0.2H325l-0.8-0.5l-0.4-0.1h-0.3l-0.3,0.2l-0.3,0.1c-0.1,0.1-0.2,0.3-0.3,0.6l-0.1,0.1l-0.1,0.2
		c-0.1,0.1-0.2,0.2-0.3,0.3l-0.1,0.2l-0.6,0.4l-0.5,0.3l0.1,0.1l-0.1,0.1l-0.1,0.1l-0.1,0.1l-0.2,0.1h-0.1h-0.1
		c-0.1-0.1-0.3-0.1-0.4-0.1h-0.3c-0.1,0.1-0.2,0.1-0.3,0.2l-0.1,0.1l-0.2,0.1l-0.9,0.4l-0.7,0.6l-0.1,0.1l0,0l-0.2,0.1h-0.3
		l-0.2,0.1l-0.1,0.2c-0.1,0.2-0.2,0.5-0.3,0.7c0,0.1-0.1,0.3-0.1,0.5c-0.1,0.1-0.1,0.3-0.1,0.5c0,0.1-0.1,0.2-0.1,0.3
		c-0.1,0.2-0.2,0.4-0.3,0.6l-0.1,0.1l-0.3,0.3c-0.1,0.1-0.1,0.3-0.2,0.5c0,0.1,0,0.3,0,0.5l0.5-0.1l0.1,0.3v0.3l0.1,0.1v0.3v0.3
		c-0.1,0.1-0.1,0.2-0.1,0.3V97l-0.1,0.1v0.1c-0.1,0.3-0.1,0.6-0.3,0.8c-0.1,0.1-0.1,0.1-0.1,0.2l-0.1,0.1l-0.2,0.1l-0.1,0.1h-0.1
		l-0.1-0.1c-0.1,0.1-0.2,0.1-0.3,0.2l-0.1,0.2l-0.1,0.1c0,0.2,0,0.4-0.1,0.6l0.1,0.2v0.3l-0.1,0.2c0,0.5-0.1,1-0.1,1.4l0.3,0.3
		l0.1,0.2v0.1l-0.1,0.1l-0.1,0.1l-0.1,0.2l-0.1,0.1l-0.1,0.2v0.3l0.1,0.3c0,0.2,0,0.4-0.1,0.6c-0.1,0.3-0.3,0.7-0.6,1l-0.2,0.3
		l-0.1,0.2l-0.2,0.2c0,0.1-0.1,0.2-0.1,0.3v0.1c0,0.1-0.1,0.2-0.1,0.3c0,0.1-0.1,0.3-0.1,0.4c0.1,0.3,0.1,0.7,0.1,1l-0.1,0.7
		l-0.1,0.2l-0.1-0.1V109V109l0.1-0.1c-0.1-0.1-0.2-0.1-0.3-0.2l-0.1-0.1h-0.1c0,0.1-0.1,0.1-0.1,0.2c-0.1,0.1-0.1,0.2-0.2,0.3
		c-0.1,0.1-0.1,0.3-0.1,0.4l-0.1,0.2l-0.1,0.2c-0.3,0.3-0.7,0.6-1.1,1c-0.1,0.2-0.3,0.3-0.5,0.5l-0.1,0.1l-0.1,0.1
		c-0.1,0.1-0.2,0.1-0.3,0.1c-0.2,0.2-0.4,0.4-0.6,0.6c-0.1,0.1-0.3,0.2-0.5,0.3c-0.1,0.1-0.1,0.2-0.1,0.3c-0.3,0.3-0.6,0.7-0.8,1
		c-0.7,0.3-1.3,0.7-2,1h-0.3h-0.2l-0.3,0.1c-0.3,0.2-0.6,0.4-0.9,0.7c-0.3,0.1-0.5,0.2-0.8,0.3l-0.2,0.1l-0.1,0.1h-0.1l-0.3,0.1
		l-0.1-0.1l-0.1-0.1l-0.2-0.1c-0.1-0.1-0.3-0.1-0.4-0.1l-0.2-0.1c-0.2-0.1-0.3-0.1-0.6-0.1c-0.1-0.1-0.3-0.2-0.5-0.3l-0.4-0.1
		c-0.1,0-0.1,0-0.1,0c-0.1,0-0.1,0-0.2,0.1l-0.4-0.1l-0.3,0.3c0,0.1,0,0.3,0,0.4l0,0v0.1c0,0.3,0,0.8-0.1,1.1c0,0.1,0,0.1,0,0.1
		c0,0.1,0,0.1,0,0.1v0.3c0,0.1,0,0.1,0,0.1c0,0.1,0,0.1,0,0.1l0.1,0.2l-0.1,0.6l-0.1,0.3v0.1c0,0.1,0,0.1,0.1,0.1v0.1l-0.1,0.4v0.1
		l-0.1,0.1v0.1v0.1v0.1l-0.1,0.3v0.1v0.1v0.1v0.1v0.3l-0.3,0.7c0,0.1-0.1,0.1-0.1,0.1h-0.1H297h-0.1l-0.5,0.3l-0.6,0.6
		c-0.2,0.3-0.3,0.5-0.6,0.8l-0.2,0.2l-0.1,0.2l-0.2,0.1c-0.2,0.1-0.3,0.1-0.6,0.2l-0.6,0.6c-0.1,0.1-0.1,0.3-0.1,0.4l0.1,0.1
		l0.4,0.4l0.1,0.2l0.1,0.1l0.1,0.1v0.2v0.3c0,0.2,0.1,0.3,0.1,0.6c0,0.4,0,0.8-0.1,1.2l0.1,0.7l-0.2,0.8c0,0.6,0,1.3,0,2l0.2,1.3
		l0.1,0.6l0,0v0.1l0,0l0,0v0.1l0,0l0.1,0.1l0.1,0.1l0.1,0.2l0.1,0.3l0.1,0.3v0.4l0.1,0.2l0.1,0.2l0.1,0.2l0.1,0.3l0.1,0.3
		c0.1,0.3,0.3,0.5,0.5,0.8c0.1,0.1,0.1,0.3,0.2,0.4l0.1,0.3l0.2,0.3l0.2,0.2l0.1,0.2l0.1,0.3v0.3l0.1,0.2c0.1,0.3,0.3,0.6,0.4,0.8
		l0.1,0.3l0.1,0.4l0.1,0.4l0,0l0.1-0.1l-0.1-0.1c-0.2,0.1-0.4,0.1-0.6,0.2l-0.2,0.1c-0.5,0.4-1,0.8-1.5,1.3l-0.2,0.2l-0.1,0.1
		l-0.2,0.2l-0.1,0.1v0.3c-0.1,0.2-0.3,0.4-0.5,0.6l-0.1,0.1c-0.1,0.2-0.3,0.3-0.4,0.6c0,0.1-0.1,0.2-0.1,0.3
		c-0.1,0.1-0.1,0.3-0.2,0.4c0,0.3-0.1,0.6-0.1,0.9l-0.1,0.1v0.1l0.1,0.1l-0.3,0.1l-0.1,0.1h-0.2l-0.2-0.1c-0.3,0.2-0.6,0.4-0.8,0.7
		l-0.2,0.1l-0.2,0.2l-0.2,0.1c-0.3,0.1-0.7,0.3-1,0.6l-0.3,0.1l-0.1,0.1l-0.2,0.1l-0.1,0.1l-0.3,0.3l0.1,0.3c0,0.2,0,0.3,0,0.6
		l-0.1,0.3l-0.1,0.1v0.1c0.1,0.4,0.1,0.8,0.1,1.3c-0.1,0.1-0.1,0.3-0.1,0.5l-0.3,0.6c-0.1,0.1-0.2,0.3-0.3,0.5
		c0,0.2-0.1,0.4-0.1,0.7l-0.3,0.6l-0.3,0.4c-0.4,0.3-0.8,0.8-1.2,1.1c-0.5,0.8-1,1.5-1.6,2.2c-0.2,0.2-0.5,0.3-0.7,0.5
		c-0.2,0.1-0.5,0.2-0.7,0.3l-0.1,0.1l-0.2,0.1c-0.2,0.1-0.4,0.1-0.7,0.1H282l-0.3,0.1l-0.3-0.1c-0.4,0.1-0.8,0.1-1.2,0.1l-0.2,0.1
		l-0.2,0.1l-0.2,0.1l-0.6,0.2l-0.1,0.2l-0.1,0.5l-0.1,0.1l-0.3,0.1l-0.1,0.2l-0.3,0.1c-0.2,0-0.3,0.1-0.6,0.1h-0.2l-0.2,0.1h-0.3
		h-0.2h-0.3l-0.3-0.1h-0.3c-0.2,0-0.3,0.1-0.6,0.1l-0.1,0.1l-0.3,0.1l-0.2,0.1l-0.2,0.2l-0.2,0.1c-0.1,0-0.2,0.1-0.3,0.1h-0.2h-0.1
		H273l-0.1,0.1l-0.1,0.1l-0.3,0.1h-0.1l-0.2-0.1l-0.1-0.3l-0.1-0.1h-0.2c-0.2,0.1-0.3,0.1-0.6,0.1l-0.1,0.1c-0.1,0-0.3,0-0.4,0
		l-0.2,0.2l-0.3,0.3H270l-0.2-0.1l-0.1,0.1l-0.1,0.1l-0.5,0.2h-0.2l-0.3,0.1l-0.1,0.1c-0.1,0-0.3,0.1-0.5,0.1h-0.3h-0.1
		c-0.1,0-0.2,0-0.3,0l-0.1,0.1H267l-0.1,0.1l-0.1,0.1h-0.2h-0.2l-0.2-0.1l-0.1-0.1c-0.1-0.1-0.2-0.2-0.3-0.3v0.1
		c-0.1-0.1-0.1-0.1-0.2-0.2c-0.1-0.1-0.2-0.1-0.3-0.1l-0.1-0.1l-0.1-0.1c-0.1-0.1-0.1-0.1-0.2-0.1l-0.1-0.1
		c-0.1-0.1-0.2-0.1-0.3-0.2c-0.1,0-0.3,0-0.5,0c-0.1,0.1-0.2,0.3-0.3,0.3c-0.1,0.1-0.2,0.1-0.3,0.3l-0.1,0.1l-0.2,0.6l-0.4,0.6v0.1
		c0,0.1,0,0.1,0,0.1v0.1h-0.1l-0.1-0.1l-0.1,0.4c0.1,0.3,0.2,0.7,0.3,1l0.1,0.3c0.1,0.4,0.3,0.9,0.5,1.3l0.1,0.2l0.1,0.2l0.1,0.3
		v0.2c-0.1,0.4-0.1,0.8-0.1,1.2l0.3,0c0,0.2,0.1,0.5,0.1,0.7l-0.1,0.2h-0.2c-0.5-0.1-0.9-0.3-1.3-0.4l-0.2-0.1l-0.1-0.1h-0.2
		c-0.3,0.1-0.6,0.1-0.9,0.1l-0.4,0.1l-0.3-0.1l-0.2-0.1c-0.3-0.6-0.6-0.3-0.6-0.3c-0.1,0.1-0.1,0.3-0.1,0.4c0,0.1,0,0.3-0.1,0.5v0.9
		c0,0.1,0.1,0.3,0.1,0.3v0.1l0.1,0.3l-0.3,0.8v1l0.1,0.3c0.1,0.1,0.1,0.3,0.2,0.4l0.1,0.1c0.2,0.5,0.3,1,0.5,1.5l0.1,0.6
		c0.3,0.6,0.5,1.3,0.6,1.9v0.2l0.1,0.1l0.1,0.1c0,0.1,0,0.1,0,0.2l0.1,0.1l0.1,0.1l0.1,0.1l0.1,0.1c0.2,0.2,0.4,0.5,0.6,0.7l0.1,0.1
		l0.1,0.1l0.1,0.1l0.6,0.3l0.3,0.1c0.2,0.1,0.4,0.3,0.6,0.5c0.1,0.1,0.2,0.1,0.3,0.1l0.1,0.1c0.2,0.2,0.5,0.4,0.8,0.6l0,0l0,0l0,0
		l0,0l0,0l0.5,0.3l0.1,0.1c0.1,0.1,0.2,0.1,0.3,0.3l0.1,0.2c0.1,0.1,0.1,0.3,0.1,0.4c0.1,0.1,0.2,0.3,0.3,0.5l0.3,0.3l0,0l0.1-0.1
		v0.1l0.5,0.2l0.6,0.4l0.1,0.1l0.1,0.1c0,0.1,0.1,0.1,0.1,0.1l0.1,0.1l0.1,0.1l0.3,0.3l0.1,0.3l0,0l0,0l0,0l0,0l0.1,0.1l0.1,0.1
		c0,0,0,0.1,0.1,0.1l0,0l0.1,0.1l0,0l0,0c0.1,0.1,0.1,0.1,0.2,0.1c0,0,0.1,0,0.1,0.1l0,0c0,0,0,0,0.1,0.1c0,0,0,0,0,0.1l0,0
		c0,0,0,0,0.1,0.1v0.1l0,0l0,0h0.1l0,0l0,0l0,0l0,0l0.1,0.1v0.1l0,0c0.8,0.5,1.6,0.8,2.4,1.2l0,0l0,0l0,0l0,0l0,0l0,0h0.1
		c0.1,0.1,0.1,0.1,0.1,0.1c0.1,0.1,0.1,0.3,0.2,0.6c0,0.1,0,0.1,0,0.1v0.1v0.3l0,0l0,0l0,0l0,0l0,0l0,0v0.1l0.1,0.1
		c0.1,0.1,0.1,0.1,0.2,0.1v0.1l0,0c0.1,0.1,0.1,0.1,0.2,0.1l0.2,0.2h0.1h0.1h0.1c0.1,0.1,0.1,0.1,0.2,0.1c0,0.1,0,0.1,0.1,0.1l0,0
		v0.1l0.2,0.2l0.1,0.1v0.1l0.2,0.1l0.1,0.1l0.2,0.1c0,0,0.1,0,0.1,0.1v0.1l0,0v0.1v0.1l-0.1-0.1l0,0c-0.1,0-0.1,0-0.1,0l-0.1-0.1
		c-0.1-0.1-0.3-0.1-0.4-0.1h-0.1h-0.1l0,0l-0.1-0.1c-0.1,0-0.1,0-0.1,0c0,0-0.1,0-0.1-0.1c-0.1,0-0.1-0.1-0.2-0.1
		c-0.1-0.1-0.1-0.1-0.2-0.1l-0.1-0.1l-0.2-0.1c-0.1-0.1-0.1-0.1-0.2-0.1l0,0v-0.1h-0.1l-0.1-0.1l-0.1-0.1c-0.1-0.1-0.2-0.2-0.3-0.3
		l-0.1-0.1h-0.1c-0.2-0.1-0.4-0.3-0.6-0.3l-0.1-0.1h-0.1h-0.1h-0.1h-0.1l-0.2,0.1c0,0.1,0,0.1,0,0.2c-0.1,0.1-0.1,0.1-0.1,0.1
		c-0.1,0.1-0.2,0.1-0.3,0.2l-0.1,0.1l0,0v0.1l0,0l0,0l0.1,0.1c0,0.1,0.1,0.1,0.1,0.1l0.2,0.3l0.1,0.3l0,0c0,0,0,0,0.1,0.1l0,0
		l0.1,0.1v0.1l0,0l0,0c0.1,0.1,0.1,0.1,0.1,0.1c0,0,0,0.1,0.1,0.1l0.1,0.1v0.1l0.1,0.1v0.1l0.1,0.1v0.1l0.1,0.1
		c0.1,0.1,0.1,0.2,0.1,0.3s0.1,0.1,0.1,0.1l0.1,0.1l0.1,0.1l0.2,0.3l0.3,0.3l0.2,0.1l0,0l0,0l0,0l0,0l0,0l-0.1,0.1
		c-0.1,0-0.1,0-0.1,0h-0.1h-0.1h-0.1h-0.1h-0.1l-0.1-0.1c-0.1,0-0.2,0-0.3-0.1h-0.1l0,0l0,0l0,0l0,0h-0.1l-0.3-0.1
		c0,0-0.1,0-0.1-0.1l0,0l0,0l-0.1-0.1l0,0h-0.1l0,0l0,0l0,0h-0.1l0.1,0.3l0.3,0.3c0.1,0.1,0.1,0.1,0.1,0.2l0.1,0.1l0.6,0.5l0.1,0.1
		c0.1,0.1,0.1,0.1,0.1,0.1c0.1,0.1,0.2,0.1,0.3,0.1h0.1l0.1,0.1h0.1l0.2,0.1l0,0h0.1l0,0c0,0,0.1,0,0.1,0.1l0.1,0.1l0.1,0.1
		c0.1,0.1,0.1,0.1,0.1,0.1c0.1,0.3-0.3,0.3-0.3,0.3l-0.1,0.1h-0.1h-0.1c-0.1,0-0.1,0-0.1,0c-0.1,0-0.3,0-0.4,0c-0.1,0-0.1,0-0.1,0
		h-0.1l-0.3-0.1c-0.1,0-0.1,0-0.2,0.1h-0.1h-0.1c-0.1,0-0.1,0-0.1,0c-0.1,0-0.3,0.1-0.4,0.1h-0.1H270c-0.3-0.1-0.6-0.1-0.9-0.1
		l-0.4,0.1c-0.3,0.2-0.6,0.5-0.9,0.7c-0.2,0-0.3,0-0.6,0.1c-0.1-0.1-0.1-0.1-0.2-0.1l-0.1-0.1h-0.1l-0.1,0.1c-0.2,0-0.4,0-0.6,0.1
		l-0.3-0.1l0.1,0.1l-0.7,0.1l-0.6-0.1l0,0c0,0,0,0.1-0.1,0.1h-0.1l-0.1,0.2c-0.1,0.2-0.3,0.4-0.5,0.6l0,0l0.1-0.1l0,0l0,0l0.1,0.2
		h0.1h0.1l0.3-0.1l-0.1,0.1l-0.2,0.5c0,0.1,0,0.1,0,0.1v0.1v0.1l-0.1,0.3v0.1v0.1c0,0.1,0,0.1,0,0.1v0.1v0.1l0.1,0.1l0.2,0.3v0.1
		v0.1v0.1l0,0h0.1l0.1,0.1c0.1,0.1,0.1,0.1,0.2,0.2c0,0.1,0.1,0.1,0.1,0.1v0.1v0.1c0.1,0.1,0.2,0.1,0.3,0.3h0.1l0.1,0.1l0.2,0.4
		l-0.3,0.2h-0.3c-0.3,0.1-0.6,0.1-0.9,0.1h-0.1h-0.1c-0.1,0-0.1,0-0.2,0.1c-0.1,0.1-0.3,0.1-0.4,0.1l-0.1,0.1l-0.1,0.1l-0.1,0.1
		l-0.2,0.1h-0.1v0.1c0,0.1-0.1,0.1-0.1,0.2v0.2v0.1c0,0.1-0.1,0.1-0.1,0.1h-0.1v0.1v0.1l-0.2,0.4v0.1c0,0.1-0.1,0.2-0.1,0.3v0.1
		l0.1,0.3v0.1v0.1c0,0.1,0,0.1,0,0.1v0.3c0,0.1,0,0.1,0,0.1c0.1,0.1,0.1,0.3,0.1,0.5v0.6c0,0.1-0.1,0.3-0.1,0.4l-0.1,0.5l0.3,1
		c0.7,1.2,1,2.5,1.8,3.7l-0.1,0.6l-0.2,0.5l-0.1,0.3l-0.3,1c-0.1,0.5-0.1,0.9-0.2,1.4c-0.1,0.2-0.2,0.4-0.3,0.6l-0.1,0.1l-0.1,0.1
		l-0.1,0.1L263,218l-0.1,0.1l-0.1,0.1c0,0.1,0,0.1-0.1,0.2l-0.1,0.1c-0.1,0.6-0.1,1.3-0.1,2c0.1,0.3,0.1,0.6,0.1,0.9v0.1
		c0.1,0.3,0.1,0.6,0.3,0.8c0.2,0.3,0.3,0.7,0.6,1c0.1,0.3,0.1,0.6,0.1,0.8l0.3,0.7l0.1,0.2v0.1l-0.1,0.1l0.1,0.2l0.3,0.4l-0.1,0.7
		c-0.1,0.2-0.1,0.5-0.1,0.7l-0.1,0.1l-0.1,0.1c0,0.1-0.1,0.1-0.1,0.2c-0.1,0.2-0.2,0.5-0.3,0.7v0.1l-0.1,0.1l-0.1,0.1
		c-0.1,0.4-0.1,0.8-0.1,1.2c-0.2,0.8-0.4,1.5-0.6,2.2v0.2c-0.1,0.3-0.1,0.6-0.1,0.9c-0.1,0.1-0.1,0.3-0.1,0.3
		c-0.1,0.2-0.3,0.4-0.4,0.6l-0.5,0.6l-0.1,0.1l-0.1,0.1l-0.1,0.1l-0.1,0.1l-0.1,0.4l-0.4,0.8c-0.3,0.3-0.6,0.8-0.8,1.1
		c0,0.1,0,0.1-0.1,0.2c0,0.1,0,0.1,0,0.1c-0.1,0.6-0.2,1.1-0.2,1.6v0.3l0.1,0.1l-0.1,0.2l-0.1,0.1c0,0.1,0,0.1,0,0.3l-0.1,0.3l0,0
		l0.1,0.5c0,0.3,0,0.6-0.1,1v0.1v0.1v0.1c0,0.2-0.1,0.4-0.1,0.6l-0.1,0.6l0.1,1l0.1,0.4c0,0.1,0.1,0.1,0.1,0.2c0,0.1,0,0.1,0.1,0.2
		l0.2,0.6l0.5,0.4l0.1,0.3l0.1,0.1c0.2,0.2,0.3,0.5,0.6,0.7l0.1,0.1l0.1,0.1l0.3,0.3c0,0,0.5,1,1.3,2l0.6,0.3l1,1.3l0.8,1.2l1.3,1.6
		l0.3,0.5l0.1,0.5l0.1,0.8l-0.1,0.5v0.6c0.3,0.9,0.8,1.8,1.2,2.7l1.1,1.1l1.5,1c1,0.6,2.1,1.1,3.1,1.7l1,0.2l1.1,0.6l0.8,0.9
		l1.2,0.8l0.3,0.3l0.7,0.8l0.2,0.1l0.6,1.3l0.4,2.2v0.3l0.3,0.9l0.7,1l0.4,0.6l0.7,0.6l1.4,0.4l1.5,0.1c1,0,2.2-0.1,3.2-0.3l0.9,0.2
		c2.1,0,4.2,0.1,6.3,0l1,0.1l0.6,0.1l-0.1-0.1l0.8,0.6l0.8,1l0.9,1l0.3,0.1l0.3,0.4l0.9,1l0.4,0.3l0.6,0.6l0.4,0.3l0.9,0.8l0.3,0.1
		l1,0.1c0.6,0.1,1.3,0.4,1.8,0.6l0.1-0.1l-0.1-0.1h0.1l0.5,0.4l0.7,0.8v0.1l0.7,0.1l0.3,0.1l0.6,0.8l0.3,0.1l0.3-0.1l0.2-0.5l-0.3-1
		l-0.1-0.7l-0.1-0.3v-0.3h0.3l0.2,0.2l0.3,0.5l0.3-0.2l0.3-0.3l-0.1-0.6v-0.1l0.3-0.1l0.2-0.1l0.1-0.1l0.5,0.1h0.6l0.6,0.1l0.1-0.1
		v-0.1l0.1-0.1l1-0.2l0.6-0.6l0.5-0.8l1.1-0.3l1-0.1l1.5-0.8l0.6-0.1l0.3-0.2l0.9-1.1c1-0.8,2-1.7,3.2-2.3l1.7-0.1l0.3-0.1l0.8-0.6
		l0.2,0.2l0.1-0.1l0.1-0.1l0.4-0.1l0.2-0.2l0.3-0.1l1.6-0.7l0.2-0.2l0.3,0.1l0.2-0.4l0.6-0.6l0.6,0.1l0.2-0.1l0.2,0.1l0.6-0.1
		l0.2-0.2l0.4-0.6h0.1l0.3,0.3h0.2l0.5-0.2h0.8l1,0.6l0.5,0.2l0.6,0.5l0.5,0.6l0.3,1.2l0.3,0.6l0.5,0.5l0.6,0.8l0.1,0.3l0.1,0.3
		l0.3,0.4l0.5,0.3l0.1,0.2l-0.1,0.5l0.2,0.2l0.2,0.1l0.8-0.1l0.8,0.2l0.6,0.1l0.2,0.1l0.2,0.1l0.1,0.2l0.8,0.6l0.4,0.1l0.1,0.1v0.1
		l0.3,0.2l0.2-0.2h0.3c0.3,0.2,0.6,0.4,1,0.7l0.6,0.2l0.2-0.1l0.1-0.1l0.4-0.1l0.5,0.1l0.2,0.3l0.8,0.6c0.6,0.5,1.2,1,1.7,1.7
		l0.6,0.4l0.8,1l0.6,0.3l0.6,0.7l-0.2,0.1c0.9,0.4,1.7,1,2.6,1.5h0.3l1.5,1.5l0.3,0.5l0.6,1.1l0.2,1.3v0.4l-0.1,0.3l0.1,0.2l0.5,0.6
		l0.2,0.4v0.1l-0.1,0.6l0.1,0.3l0.2,0.6l0.6,1.2l0.4,0.3l0.2,0.3l0.7,0.8l0.3,0.5l0.1,0.4l0.1,0.2l0.8,0.7l0.1,0.4l0.2,0.3l0.6,0.6
		l0.4,0.2l1.7,0.6l0.6,0.3c0.6,0.4,1.3,0.9,1.7,1.5l0.6,0.3l0.6,0.2l0.6,0.1l2.7-0.2l0.2,0.1l0.3,0.3c0.3,0.3,0.4,0.3,0.4,0.3
		l1.1,1.5l0.5,0.9l0.1,0.6c-0.1,1.1,0.1,2.2,0.1,3.3l0.1,1.1c-0.1,0.8-0.1,1.6-0.1,2.4l-0.1,0.6v0.3c-0.6,1.5-1.2,2.5-1,4.2l0.1,0.3
		l0.1,0.2l0.7,0.6l0.5,0.6h0.1l0.4,0.4l0.3,0.4l0.6,0.4l0.3,0.4l0.1,0.2v0.8l0.3,0.3l-0.1,0.1l0.3,0.8l0.1,0.3l0.1,0.2l-0.1,0.3
		l0.1,0.4l-0.1,0.3v0.2l0.2,0.2l0.2,0.6v0.1l0.1,0.6l-0.1,0.8l0.1,1.5v0.3l0.1,0.4l0.1,0.8v0.1l0.1,0.3l-0.1,0.1l0.4,0.9v0.6
		l0.1,0.4l0.3,0.6l0.1,0.4l0.5,0.6l0.5,1l0.1,0.6v0.6l0.1,0.3l0.3,0.6l0.5,0.6l0.4,0.8l0.1,0.6l0.1,0.4l0.2,0.3l0.5,0.4l0.3,0.4
		l0.7,1.3l0.8,1l0.6,1.1l0.1,0.3v0.6l-0.1,0.2l-0.1,0.2l-0.1,1.5l0.1,1.3l0.1,0.3c0.3,0.5,0.8,0.9,1.2,1.4c0.3,0.6,0.6,1.3,0.8,2
		c0.6,0.8,1.1,1.5,1.7,2.1l0.6,0.5l0.2,0.1l0.7-0.2l0.3,0.1l1,0.4l0.8-0.3l0.2-0.2c0.4-0.8,0.8-1.6,1.1-2.4l0.1-0.1l0.1-0.1h0.3
		l0.8,0.6l0.3,0.1l0.5,0.1l0.7-0.1l0.8,0.2l0.3,0.2l0.6,0.6l0.8,0.6l0.6-0.1l0.8-0.5l0.3-0.1l0.3,0.1l0.1,0.1l0.2,0.3l0.3,0.3
		l0.6,0.3l0.8,1.3l0.1,0.3l0.2,0.4l0.5,0.4l0.5,0.8l0.3,0.2l0.8,0.4l1.3,0.3l1-0.1l0.5,0.1l1.5,0.8l0.6,0.2l0.8,0.1l0.4,0.2l0.4,0.3
		l0.7,0.2l0.5,0.3l1.2,1.3l0.8,0.2l0.6,0.4l0.1,0.3l1.2,1.1"/>
</g>
</svg>
