<?xml version="1.0" encoding="utf-8"?>
<!-- Generator: Adobe Illustrator 18.1.1, SVG Export Plug-In . SVG Version: 6.00 Build 0)  -->
<svg version="1.1" xmlns="http://www.w3.org/2000/svg" xmlns:xlink="http://www.w3.org/1999/xlink" x="0px" y="0px"
	 viewBox="0 0 533.8 1001.4" enable-background="new 0 0 533.8 1001.4" xml:space="preserve">
<g id="cat-creek">
	
		<path id="t1_p585_3_" fill="none" stroke="#FFFFFF" stroke-width="4" stroke-linecap="round" stroke-linejoin="round" stroke-miterlimit="10" d="
		M518.4,714.2l0-0.3l-0.2-0.3l0.1-0.9l0.2-0.1l0-0.3l-0.4-0.6l-0.9-0.9l-0.4-0.3l-0.2,0.1l0.8,0.1l0.1,0.2l0.2-0.2l0.2-0.1l0.7,0.1
		l0.2-0.4l0-0.3l-0.2-0.3l0.1-0.3l-0.1-0.6l0-0.4l-0.2-0.3l-0.2-0.6l-0.3-0.3l-0.2-0.7l-0.2,0.1l-0.2,0.5l-0.2,0.1v0.2l-0.4,0.3
		h-0.5h0.2l0.3-0.3l0.3-0.1v-0.8l-0.2-0.5l0.3-0.4l0.2-0.5h0.3l0.3-0.6v-0.2l0.2-0.2l-0.2-0.2l0-0.5l-0.2-0.4l-0.1-0.5l0.2-0.4
		l-0.1-0.5l0.2-0.8l-0.1-0.2l-0.5,0.2l-0.4,0.3l-0.7-0.1l-0.2,0.3l-1,0.1l-0.3,0.3l-1.8-0.2l-0.3,0.3l-1.3-0.6l-0.8-0.6l-0.5-0.2
		l-0.3-0.5l-0.6-0.1l-0.7-0.3l-0.2,0.2l0.2,0.1l0.4,0.1l0-0.3l-0.1-0.2l0.2-0.4l0.5-0.3l0.2-0.3l0-0.3l0.1-0.2l0.4-0.3l1.3-0.1
		l1.1-0.5l0.5-0.3l0.4-0.6l0.2-0.1l0.1-0.5l-0.3-0.6l0-0.3l-0.3-0.6l-0.7,0.4l-0.5,0.1l-0.2-0.1l0,0.2l-0.1-0.2l-0.2,0.1
		c-0.7-0.3-1.4-0.6-2.1-0.9l-0.3-0.5l-0.9-0.8h-0.2l-0.4-0.1l-0.2,0.1l-1-0.4l-0.7-0.1l-0.1-0.3l-0.5-0.4l-0.3-0.5l-0.5-0.5
		l-0.4-0.9l-0.6-0.4l-0.2-0.3l-0.4-0.3l-0.2,0.1l-0.2-0.1l-1-1.1l-1.5-0.7l-1-0.9l-0.7-0.4h-0.2l0.1,0.2l0.3-0.3l0.4-0.1l0.2,0.3
		l0.5,0.4h1l0.2-0.1l0.9,0.1l0.4-0.1l0.8-0.8l0.3-0.1l0.6,0.1l0.5-0.1l0.4,0.3l0.2-0.1l0.2-0.1l1,0.3c0.6,0,1.1,0,1.7-0.1l1.2-0.6
		l0.2-0.3l0-0.5l0.2-0.4l0-0.3l0.2-0.5v-0.3l-0.3-1l-0.3-0.3l-0.2,0.1v0.3l-0.3,0.1h-1.4l-0.3-0.4l0.1-0.9l0.2-0.3v-0.4l0.1-0.3
		l0.5-0.4l0-0.2l0.1-0.2l-0.1-0.3l0.1-0.2l0.2-1l0.2-0.2l0.1-0.6l-0.1-0.2l0.2-0.4l-0.2-0.3l-0.8-0.4l-0.9-0.6l-0.7-0.4H505
		l-0.6-0.6l-0.6,0.1l-0.2,0.3l-0.5,0.1l-0.4,0.2l-0.4-0.1l-0.2,0.2l-0.7,0.1l-0.2-0.2l-0.9-0.1l-0.7-0.2l0.2-0.2l0-0.2l-0.1-0.3
		l-0.1-0.1l-0.8-0.1l-0.5,0.2l-0.2-0.1l-0.5-0.1l-0.4-0.5l-0.7-0.5l-1.2-0.5l-1,0.1l-0.7-0.4c-0.8,0-1.7,0-2.5,0.2h-1l-0.9,0.2
		c-1-0.3-2-0.6-3.1-0.9H485l-1-0.8l-0.5,0.1l-0.6-0.2h-0.7l-0.7-0.4l-0.5-0.2c-0.2-0.3-0.4-0.6-0.6-0.9l-0.2-0.6l-0.2-0.3l-0.3-0.3
		l-1.2-0.4l-0.7,0.1l-0.2,0.2l-0.6,0.3l-0.2,0.1l-1.2-0.2l-0.4,0.1l-0.2-0.1l-0.2,0.1l-0.7-0.2l-0.2,0.2l-0.2-0.1l-0.3-0.1l-0.9,0.3
		h-0.5l-0.8-0.2l-1.2-0.4l-0.2,0.1l-1-0.4l-1-0.2l-1.1-0.4l-0.5-0.1l-0.3,0.1l-0.9,0.9l-0.3,0.5l-0.2,0.1l-0.2,0.1l-1.2,0.2
		l-0.8,0.4l-0.1,0.3l-0.2-0.1l-0.4,0.3c-0.5-0.1-1-0.1-1.5-0.2h-1.2l-0.6,0.2l-0.3,0.3l-0.7-0.1v0.2l-0.7,0.2l-0.3-0.1l-1.3,0.1
		l-0.4-0.1l-0.4-0.2h-0.9l-0.4-0.1l-0.3,0.3h-0.2l-0.2,0.6l-0.2,0.1l-0.2,0.5c-0.2,0.2-0.4,0.4-0.6,0.6h-0.2l-0.6,0.6l-0.9,0.1
		l-0.2,0.1l-0.1,0.3h-0.6l-1.1,0.4l-0.9-0.1l-0.2,0.1l-0.5-0.1l-0.4,0.1l-0.2,0.3l-0.9,0.1l0,0.3l-1.1,0.8l-0.5,0.2l-0.6,0.3
		l-0.3,0.3l-0.5,0.1l-0.8,0.7l-0.2,0.4l-0.3,0.3l-0.2-0.1l-0.4,0.3l-0.2,0.3l0,0.4l-0.3,0.2l-0.7,0.7l-0.2,0.1l-0.3,0.3l-0.2,0.3
		l-1.2,0.9l0,0.2h-0.4l-1,1.1l-0.5,0.1l0,0.3l-0.5,0.2l-0.8,0.6l-0.8,0.4l0,0.2l0.1,0.1l0.6-0.3l1.1-1v-0.9l0.4-0.7l-0.1-0.4
		l0.3-0.8l-0.1-0.3l0.2-0.5l0-0.4l0-0.2l0.2-0.4l0-0.3l0.3-0.6l0-0.2l0.2-0.3l0.4-0.1l0.4-0.9l0.6-0.5l0.5-0.1v-0.3l0.6-0.5l0.1-0.4
		l0.3-0.4l0.1-0.4l0.2-0.1v-0.3l-0.3-0.2l-0.3-1.2l-0.2-0.4l0.2-0.8l-0.1-0.2h0.2v-0.6l0.2-0.3l-0.3-0.4l-0.1-0.4l0.8-0.4h0.4
		l1.3-0.4l1-0.1l0.2-0.3l0.7-0.4l0.3-0.4l0.5-0.3l-0.2-0.6l0.1-0.2l-0.2-0.3l-0.1-0.4l-0.7-0.2l-0.2,0.3l-0.1,0.3h-0.3l-0.1,0.2
		l-0.7,0.3l-0.5-0.2l-0.5,0.2L438,663l-0.9,0.1l-0.4-0.2l-0.7-0.1l-1.2,0.3l-0.2,0.3l-1,0.6l-0.1,0.3v0.5l-0.3,0.3l-0.7,1.2
		l-0.2,0.2v0.3l-0.1,0.3l-0.2,0.1l-0.2,0.6l0,0.2h-0.4l-1.1,1.2l-1.4,0.6l-0.5,0.3h-0.2l-0.2,0.4l-0.5,0.1l-1.1,0.5h-0.2l-0.3-0.2
		l-1.4,0.3l-0.1-0.1l-0.5,0.1l-0.3,0.3l-0.4,0.2h-0.7l-0.8,0.2l-0.6-0.1l-0.7,0.4l-0.7,0.1l-0.2,0.2l-0.3-0.1l-0.7,0.3l-0.5,0.1
		l-0.2,0.1L416,673l-0.1,0.2l-0.4,0.1l-0.5-0.2l-0.2,0.1l-0.3-0.1l-2,0.7l-0.4,0.1l-0.4-0.4H411l-0.3,0.1l-0.2,0.5l-0.7,0.1
		l-0.3,0.3l-0.7,0.2l-0.1,0.2l-1-0.1l-0.2-0.1l-0.7,0.1l-1.1-0.1l-0.7,0.1l-0.9-0.4h-0.5l-0.2,0.1l0,0.2l-0.5-0.2l-0.9,0.3l-0.5-0.2
		l-0.8,0.3l-0.2-0.1l-0.6,0.4h-0.3l-0.9,0.6l-1.5-0.1l-0.8,0.1l-0.5,0.3h-0.4l-0.8,0.5h-0.7l-0.6-0.3l-0.6,0.1h-0.4l-0.5,0.4
		l-0.5-0.1l-0.2-0.1l-0.2,0.1v0.2l-0.4,0.1l0.1,0.2l-0.1,0.2l0.1,0.3v0.6l-0.1,0.2l-0.4,0.4l-0.3,0.5l0.2,0.4l-0.1,0.4l-0.3,0.6
		l-0.5,0.5l-0.3,0.1l-0.2,0.2l-0.2,0.4l-0.2,0.2l-0.2,0.3l0,0.4l-0.1,0.2l0.2,0.3l0.3,0.3l-0.2-0.1l0-0.6l-0.1-0.2l-0.7-0.4
		l-0.3-0.5l-0.5-0.3l-0.7-0.7l-0.2-0.8l-0.6-1.1l0.1-0.2l-0.7-1l-0.4-0.1l-0.4-0.4l-0.7-0.3h-0.2l-0.4-0.4l-0.2-0.1l-0.2,0.1
		l-0.2-0.1l-0.5-0.5l-0.5,0.1l-0.7-0.3l-0.6,0.3l-0.2-0.1l-1.7,0.1l-0.5,0.3l-0.1,0.2l-0.7,0.5l-0.2,0.4v0.9l-0.2,1.3l0,0.6l0.4,0.6
		l0,0.4l0.2,0.1l0,0.3l0.2,0.3l0.1,0.4l-0.5,0.3l-0.4,0.6l-0.7,0.3l-0.5-0.1l-0.1-0.1l-0.3,0.2l-0.2-0.2l-0.9-0.1l-0.3,0.3l-1,0.3
		l-1.7-0.3l-0.7-0.5l-0.8,0.2l-0.4-0.2l-0.3,0.3l-0.6-0.1l-0.2-0.4l-0.5-0.3l-0.3-0.4l0-0.1l-0.5-0.6l0.2-0.2l-0.6-0.4l-0.3-0.4
		l-0.3-0.1l0.2-0.1l-1-2.1l-0.8-0.8l-0.5-0.3l-0.2,0.1l-0.5-0.2l-1.1,0.2l-0.7,0.9l-1.2,0.1l-0.1-0.1l-0.2,0.2l-0.9,0.3l-0.2-0.1
		c-0.4,0.8-0.8,1.6-1.2,2.3l-0.5,0.3l-0.2,0.4l-0.3,0.2l-0.2,0.4l-0.6,0.6l-0.9,0.1l-0.8-0.4l-0.8-0.1l-0.1,0.1l-0.5,0.1l-0.4-0.5
		l-0.1-0.2l-0.7-0.2l-0.3-0.6l-2-2.5l-0.4-1l-0.3-0.4l-0.3-0.8l0.1-0.2l-0.2-1l0-0.4l-0.2-0.5l0.2-0.3l0-0.5l-0.2-0.4l0-0.9
		l-0.3-0.7l0-0.3l-1.1-1.1l-0.7-0.4l-0.4-0.4l-0.4-1.1l-0.5-0.6l-0.2,0.1l0-1.1l0-0.5l-0.1-1.3l-0.2-0.4"/>
</g>
<g id="gibraltor">
	
		<path id="t1_p752_2_" fill="none" stroke="#FFFFFF" stroke-width="4" stroke-linecap="round" stroke-linejoin="round" stroke-miterlimit="10" d="
		M279,989.8l0-0.7l0.5-0.7l0.1-0.6l-0.1-0.7l0.1-0.5l0.2-0.4l0.9-1l0.3-0.4l0.2-1.1l-0.1-0.7l0-0.3l0.1-0.2l1.6-1.5l0.5-0.3l1.6-0.6
		c1.7-0.4,3.3-0.8,5-1l0.5,0.2l2-0.1l0.6-0.2l0.8,0.3l0.8,0.1l0.7,0.3l1.1,0.1l1.2-0.2l0.8-0.3l1.1-0.3l1.3-0.1l1.1,0.1l2.9,0.8
		l0.5-0.1l1.8,0.3l2.9,1l0.9,0.2h1.2l1.6,0.2l0.9-0.3l0.5,0.1l0.7-0.4l1.5-0.3c1.3-0.5,2.5-1.1,3.6-1.8c0.6-0.2,1.3-0.5,1.9-0.8
		l0.7-0.7l0.5-1l1-1.5c1.7-1.7,3.6-3.3,5.1-5.1l0.7-0.5l2-0.8l2.3-1.3l0.8-0.2c0.7-0.4,1.3-0.8,2-1.2c1.3-0.3,2.6-0.5,4-0.8
		l-1.1-0.4l-1.2-0.1c-1.1-0.2-2.1-0.5-3.1-0.8l-2.1-0.9c-1.8-0.2-3.5-0.7-5.2-1.1l-1.3-0.5l-1.5-0.3l-2.5-0.7
		c-1.6-0.8-3.1-1.7-4.5-2.8l-1.2-1.4l-1.1-1.7c-0.4-1-0.9-2-1.4-2.9l-0.5-2.5l-0.2-0.3l-0.4-1.2l-0.4-2.7l-0.3-0.8l-0.5-2.7
		l-0.2-2.9l0.1-1.1l-0.3-1.7l-0.2-0.3c-0.1-0.3-0.1-0.5-0.2-0.8c0-0.6,0.1-1.1,0.3-1.7l0.8-1l0.3-0.8l0.5-0.8l0.8-1.8l0.1-1.9
		l0.2-0.8l0.3-0.5l0-1.5l0.4-1.5l0.8-1.9v-1l0.3-1.2l0.6-1.3l0.2-0.8l-0.4-1.2l0.5-2l0-0.8l-0.4-0.6l-0.3-0.2l-0.1-0.2v-0.3l0.7-3.1
		l0.3-0.8l0.9-1.3l0.3-0.3l0.5-0.1l1.2,1.1l0.5,0.7l0.7,0.7l0.8,1.1l0.4,0.3l1,0.4l1,0.1l0.5-0.1l1.3,0.5l0.9,0.6l1.1,0.5l1.4,0.1
		l1.1-0.1l1.7-1.1l0.4-0.1l1.1-1l0.5-0.3l0.9-0.3l0.5-0.6l1.3-2.2l-0.4-0.6l-1.2-1.1l-0.5-0.3L335,903c-0.5-0.4-1.1-0.7-1.6-1.1
		l-0.8-0.8l-0.3-0.4l-0.5-1.1c-0.2-0.7-0.3-1.4-0.4-2.1l0.4-1.1l0.9-1.4l1.1-2.4l0.3-0.4l0.8-1.5l0.3-1l0.8-1.1l0.5-1l0.6-0.8
		l0.5-1.2l0.1-0.3l0-0.6l-0.1-0.9l0.7-1l0.2-0.4l0.2-0.6l-0.1-0.6c0.2-1,0.4-2.1,0.7-3.1l0.2-1.1l0.2-0.5c0.1-1,0.2-2,0.4-3.1v-1.3
		l-0.1-0.4l0.1-0.6c0-1.3-0.2-2.5-0.4-3.7l-0.2-0.5c-0.1-0.5-0.1-1-0.1-1.5l0.3-0.9l-0.3-0.6l0.3-0.4l0.1-1l-0.9-1.1l-0.1-0.3
		l0.2-0.9l-0.1-0.4l-0.3-0.1l-0.4-0.3l-0.2-0.4l0-0.4l-0.9-1.4l-1.1-1.2l0-0.4l-0.1-0.3V855l0.2-0.2l1.6,0.7l1,0.3l1.1,0.7h0.9
		l1.2,0.6l1.3,0.2l0.5,0.2l0.5,0.3l1.5,1.4l2.2,2.7c0.9,0.9,1.8,1.8,2.8,2.6l1,1.1l0.7,0.6l0.7,0.4l1.2,0.4l1.8-0.1l1.9-1l0.4-0.4
		l0.4-1l0.8-2.5l0.4-3.6l-0.1-1.1l-0.3-0.4l-1.2-0.6l-2-0.4l-2.6-1.4l-0.8-0.1l-0.6,0.1l-0.7-0.5l-0.8-1.2l-1.3-0.9
		c-0.8-0.7-1.5-1.5-2.2-2.2c-0.4-0.6-0.8-1.2-1.1-1.8l-0.2-1l0.1-0.4H346l-0.6-0.7l-0.8-1.5l-1-1.5l-0.2-0.4l-0.2-0.8L343,841
		l-0.5-0.4l-0.2-0.6l-0.1-0.6l-0.8-1.4l-0.6-1.6l-0.3-0.5l-0.3-0.3l-1.1-0.8c-0.8-0.4-1.5-0.7-2.3-1l-1-0.7l-1.9-2.1l-1-0.9
		l-0.3-0.1l-2.4-1.7l-0.3-0.4l-1.3-1.1c-0.4-0.5-0.7-0.9-1-1.4l1.4,0.8l2.6,0.8l1.8,0.1l1.9,0.5l1.5,0.1l1.8-0.2l1.1-0.3l1.3-0.6
		c1.2-0.4,2.4-0.7,3.6-1l1.6-0.1l1.2-0.4h0.7l0.3-0.3l0.8-1l0.3-0.3l0.3-0.5l0.3-1.5v-0.1l-0.1-0.2l-1.4,1.1l-1.7,0.4h-0.4l-0.9-0.4
		l-1.1-0.1c-1.6-0.4-3.2-0.9-4.9-1.3l-2.8-1.3l-2.1-1.4l-1.5-2.5l-0.5-1.3l-0.7-1.3l-1.6-1.5l-0.5-0.3l-2.3-0.2
		c-2.1,0.3-4.4,0.5-6.5,0.4l-0.3-0.2l1.5-1.3l0.5-0.5c0.7-1.2,1.6-2.3,2.6-3.4l0.4-1l1.2-1.8l0.4-1.1l0.3-0.4l1.2-0.6l2.5-2.2
		l0.3-0.4v-0.1c-0.6-0.6-1.1-1.3-1.6-2l-1.9-1.4l-0.9-1.3l-1.8-2l-1.2-2.3c-0.4-1.2-0.9-2.4-1.4-3.6l-0.2-1l-0.4-1.1l0-0.5l0.1-0.6
		l-0.2-1.4l0.1-0.8l-0.1-0.9l-0.6-1.7v-1.2l0.2-1.5l-0.1-0.8l0.2-1l0-0.8l0.4-1.3l0.5-1.1c0.3-1.7,0.3-3.4,0.2-5.1l-0.1-0.6
		l-0.1-0.4l-0.5-1l-0.1-2.5l-0.3-0.5c-0.4-1.6-1-3.2-1.5-4.8l-0.5-1.1l-0.3-1c0-0.9,0-1.9,0-2.8l-0.3-2.1l-0.7-2l-1.1-2.1l-0.3-0.8
		l0-0.4l0.5-2.9l-0.2-1.4l0-1.3l-0.2-0.4l-0.1-1.1h0.2l0.4,0.4l0.7,0.3l0.3-0.1l0.3-0.3c0.9-2.2,1.5-4.5,2.5-6.7l0.5-0.7
		c0.1-0.2,0.1-0.4,0.2-0.6L322,728l-0.9,0.6l-1.1,0.5l-0.7,0.1l-0.4-0.1l-0.8-1l-0.1-0.3v-0.3l0.6-0.4l0.3-0.3l0.4-0.8V726l-0.2-0.6
		v-0.6c0.3-1,0.7-1.9,1-2.9l0-0.6l0.5-1.1l0.5-0.8l0.7-2.2l0.2-0.2v-0.6l-0.4-0.9v-0.7l0.2-0.4l0.2-0.1l0.7,0.2h1.1l0.4-0.2l0.3-0.3
		l0.8-1.9l0.4-0.7l0.5-1.1l0.5-0.7l0.4-0.3c0-0.9,0.1-1.8,0.3-2.7l0-1.7l0.2-1l0-1c0.4-2,1.3-4.1,2-6l0.2-0.3l0.1-0.4
		c0.6-1.4,1.2-2.7,1.9-4.1c0.7-1,1.5-1.9,2.3-2.9l0.8-0.8l2.6-1.1l3.6-0.9l0.8-0.4l0.1-0.3l0.1-0.8c-0.2-1.2-0.4-2.5-0.6-3.7l0-0.8
		l-0.2-0.8l0-0.1l-0.2-0.5c-0.1-1.6-0.4-3.3-0.8-4.9l0-1l0.1-1.1l0.2-1.1l0.3-0.6c0.2-0.7,0.3-1.4,0.4-2.1c0-0.7,0-1.4-0.1-2.2
		l-0.1-0.4l0.1-0.8l0.2-0.5l0.5-0.8l0.4-1l0-0.6l1.1-1.9l0.7-1.8v-0.8l-0.7-1.7l0-1.2l1.5-1.5l0.5-0.9l0.1-0.7l-0.3-2.8l-0.3-1
		c-0.1-1-0.3-2-0.6-3.1l-0.3-0.8l-0.2-1l-0.2-0.6l-0.1-0.6l0-0.6l-0.3-1.5v-0.3l-0.2-0.9l-0.4-1.1l-0.2-0.8v-0.4l-0.2-0.9l-0.3-0.8
		l-0.6-1.3l-1.5-2.4c-0.5-1-1.1-2-1.7-3l-0.3-0.9v-0.4l0.1-0.4l0.3-0.7l0.8-0.8l0.3-0.1l0.2-0.2l1.5-0.4l0.6,0.2l1.6-0.4l1.1-0.4
		l0.9-0.8l0.8-0.3l0.6-0.4l0.8-1.1l0.5-0.4l1-1.4l0.5-1.3l0.2-0.3l0.1-0.7l0.5-1.7l0-0.7l0.2-0.8l0.1-0.8l0.3-1l0.1-0.9l0.2-1
		c0-0.6,0.1-1.2,0.2-1.8l0-1.5l-0.1-0.1l0-0.8c0-0.5,0.1-1.1,0-1.6c-0.1-1.2-0.3-2.3-0.5-3.5c-0.4-0.9-0.7-1.9-1-2.8l-0.5-1.1
		l-0.5-0.6l-0.5-1l-0.5-0.6l-0.3-0.9l0-1.3l-0.4-0.8l-1.1-1.3l-1.2-1.9l-1.1-1.1l-0.8-0.4l-1.8-1.3c-1.5-1.4-3.1-2.5-4.6-3.9
		l-0.8-0.9c-1.4-1-2.7-2.1-4.2-3.1l-0.8-0.4l-0.8-0.2c-1.7-0.8-3.3-1.8-5-2.7l-1.2-1.1l-2.2-0.8l-2-0.3c-1.2-0.7-2.4-1.4-3.6-2.2
		l-2.6-0.7l-0.8-0.4l-0.6-0.6l-0.4-1l-1.5-2.4l-1.3-1.3l-1.2-0.9l-0.7-0.8l-0.2-0.1l-0.4-1l-0.6-0.8l-0.4-1.3l-0.3-0.3
		c-0.8-1.6-1.4-3.4-2.4-4.9l-0.4-0.4l-0.3-0.5l-1.2-1.5l-0.5-1.1l-1.8-2.4l-0.3-0.6l-0.8-1.5l-0.5-0.5l-0.3-0.6l-0.3-0.3l-0.4-0.8
		l-0.2-0.8l-0.6-0.6c-0.5-1.2-1-2.3-1.5-3.4l-0.2-0.3c-0.3-1.2-0.7-2.5-1.2-3.7l-0.1-0.6l-0.3-0.6l0-1l-0.5-0.6l-1.3-1.8l-0.1-0.4
		l-0.2-0.2l-0.5-1.8l-0.2-0.3l-0.9-0.2h-1.7l-1.4-0.4l-0.3-0.2c-0.2-0.3-0.4-0.7-0.6-1l-0.3-0.8l-0.5-0.8l-0.2-0.1l-0.3-0.8
		l-0.3-0.4l-0.3-0.1l-1,0.6l-1.2,0.1l-0.3-0.1l-0.5-0.6l-0.2-0.4l-0.3-1.1l-0.1-0.9l-0.1-0.3c-0.4-0.6-0.8-1.2-1.2-1.7l-0.3-0.2
		c-0.3-0.4-0.5-0.7-0.8-1.1l-0.5-0.1l-0.6,0.1l-0.4-0.1l-2.3-2l-0.5-0.7l-1.8-1.3c-0.4-0.5-0.7-1-1.1-1.6l-0.8-1.7l-0.6-0.8
		l-0.4-0.8l-0.1-0.5v-1.4c-0.3-0.7-0.6-1.3-0.9-2c-0.3-0.9-0.6-1.8-1-2.6l-0.5-1.9l-0.9-1.5l-0.7-1.6l-1-1.3l-0.5-1.5l-0.5-0.6
		l-0.2-0.7l-0.5-0.6l0-0.4l-0.2-0.3l-0.1-0.5l-0.3-0.6c-0.3-1-0.6-2-0.7-3.1l0.1-0.8l-0.6-1.6l-0.2-0.6l0-1l-0.2-1l-0.3-0.5
		l-0.3-0.3v-0.2l0.3-0.3l0-0.2l-0.6-1.2l-0.3-0.1l-0.2-0.3l0.1-0.5l-0.3-0.3l0-0.1l-0.6-0.3l-0.6-1.3l-0.5-0.5l-0.2-0.3l-0.4-0.3
		l-0.2-0.5l-0.9-1.7l-0.5-1.3l-0.3-1.3l0-0.6l-0.3-0.7l-0.4-0.7l-0.4-1.2l-0.3-0.4l-0.9-2.5l-0.3-0.2l-0.2-0.4l-0.5-2.1l-1.1-2.3
		l-0.3-1.1l0-0.6l-0.4-1.7c-0.2-0.5-0.4-1-0.6-1.5l-0.2-0.6l0.6-1.2l0.8-3.3c0.5-1.3,1.2-2.5,2-3.7l0.8-1.9l0.8-1.1l0.3-0.8l0.7-1
		l0.2-0.7c1.2-1.7,2-3.6,3-5.5l0.2-0.7l0.2-0.3l0.2-0.5l0.5-1.1c0.2-0.6,0.4-1.3,0.5-2l0.1-0.1l0.5,0.8l0.1,0.4l0.2,0.4l0.1,0.6
		l0.2,0.6l0.1,0.2c0.4-0.7,0.8-1.5,1.3-2.2l0.3-0.8l0.2-1l0.1-0.3l0.5-0.6l0.8-1.7l0.5-1.9l0-0.4l-0.1-0.7l-0.7-1l-0.2-0.6l0.2-1
		l0.5-1l-0.2-0.7l0-0.5l0.1-0.5l0.3-0.8l-0.1-0.7l0.3-1.5l0.2-2.4l0.1-0.2l0.1-0.1l0.7-1c0.5-0.5,0.9-1,1.3-1.5l0.3-0.2l0.7-0.3
		l0.6-0.5l0.2-0.3l0.5-0.4l0.5-0.9l0.5-0.5l0.3-0.1l0-0.3l1-1.3l0.6-1.5l0.8-0.6l1.3-1.7l0.5-0.3l-0.1,0.3l-0.2-0.1l-0.3,0.4"/>
</g>
<g id="stahl-creek">
	
		<path id="t1_p475_2_" fill="none" stroke="#FFFFFF" stroke-width="4" stroke-linecap="round" stroke-linejoin="round" stroke-miterlimit="10" d="
		M341.9,458.1l-0.2,0.5l-0.2,0.2l0-0.4l-0.4,0.2l-0.5,0.1l-0.7,0.8L339,460l-0.6,0.8l-0.2,0.1l-0.2,0.3v0.2l-0.7,1.8l0,0.9l-0.1,0.4
		l0,0.7l0.1,0.9l0,0.6l0.2,0.1l0,0.4l-0.2,0.5l-0.2,0.4l-0.2,0.1l-0.3-0.1l-0.8-0.6l0.1-0.4l-0.3-0.8l-0.1-0.9l0.1-0.1v-0.4
		l-0.1-0.3l0-0.2l-0.3-0.8l0-0.2l-0.2-0.3l0-0.3l-0.1-0.3l0.1-0.3l-0.3-0.6l-0.1-0.6v-0.3l0.1-1.1l0-0.3l-0.2-0.2l0-0.6l-0.1-0.1
		l0.2-0.2l-0.1-0.3l0.2-0.3l-0.3-0.3l-0.1-0.9l-0.4-0.9l-0.2-0.2l-0.4-0.1l-0.2,0.1l-0.5,0.7l-0.3,0.8l0.1,0.5l0.3,0.4l0.2,0.8
		l0,0.9l-0.1,0.1l-0.1,0.4l0.1,0.3l0,0.2l-0.1,0.5l0,0.2l0.2,0.4l-0.1,0.4l0,0.9l-0.1,0.5l0.1,0.5l-0.2,0.9l0,0.2l-0.1,0.4v0.8
		l-0.1,0.3l0.2,0.7l-0.2,0.6l0,0.5l-0.1,0.4l-0.2,0.3l0.1,0.4l0,0.2l-0.2,0.2l-0.1,0.7l-0.1,0.2c0,0.5,0,0.9,0.1,1.4l0.3,0.4l0,0.4
		l0.2,0.6l0.2,1.3l0.1,0.1c0,0.4,0,0.8,0,1.2l0.3,1.1l0,0.8l0.2,0.8l0.7,0.6l0.5,0.7l0.6,0.6l0.4,0.8v0.3l-0.3,0.4l-0.4,0.1
		l-0.1,0.2l-1.8,0.3l-3.1,0.9h-0.6l-0.6,0.5l-0.5,0.1l-1.2-0.1l-0.5,0.1l-1.3-0.4L324,483l-0.7-0.2l-0.2-0.2h-0.4l-0.2-0.1l-0.2-0.3
		H322l-0.4-0.3l-0.2-0.4l-0.3-0.3l0-0.2l-0.9-1l-0.2-0.3l-0.5-0.4l-0.4-0.5l-0.2-0.1l-0.5-0.9l-0.3-0.3l-0.4-1l-1-1.4l-0.2-0.1
		l-0.3-0.4v-0.2l-0.3-0.4l-0.1-0.7l-0.4-0.4l-0.4-1l-0.5-0.6l-0.5-0.8l-0.5-0.4l-0.3-0.6l-0.8-0.9l-0.2-0.1l-1.6-0.6
		c-1.1,0.1-2.2,0.2-3.3,0.2l-1-0.3l-2.5-0.1l-0.5-0.3c-1.4,0-2.9-0.2-4.3-0.4l-0.8,0.1l-0.7-0.2l-1.6-0.8l-0.9-0.1l0.1-0.3l-0.4,0.1
		l-0.8-0.3l-0.4-0.3l-0.1-0.3l-0.5-0.3l-0.2-0.1l-0.3-0.6l-0.4-0.2l-0.1-0.2l-0.4-0.8l-0.6-0.8l-0.2-0.6l-0.8-1.1l-0.3-1l-0.4-0.7
		l-0.2-1.3l-0.1-0.2v-0.4l-0.1-0.1l-0.1-0.4l0-0.8l0.3-0.4l-0.1-1.1l0.1-0.3l0-0.6l0.1-0.3l-0.2-0.4l0.1-0.4l-0.1-1l0.1-0.7
		l-0.1-0.2l0.3-1.1l0.2-1.4l0.6-1l0.1-0.2l0-0.4l0.2-0.5l0.2-0.1l0.3-0.6l0.2-0.4l0.2-0.1l1-0.9l0.4-0.3l0.2,0.1l0.2-0.3h0.5
		l0.7-0.3l0.9-0.8v-0.2l0.3-0.5l0-0.4l0.3-0.9v-0.4l0.1-0.1l0-0.2l0.3-0.6l0.5-0.4l0.4-0.2l0.1-0.1l0-0.3l1.1-0.9l0.2-0.5l0-0.7
		l-0.2-0.8l-0.3-0.3l-0.1-0.4l0-0.6l-0.1-0.4l-0.1-0.2l-1.1-0.3l-0.2-0.2l-0.4-0.1l-0.8-0.3l-0.2,0.1l-0.4,0.5l0.2-0.6v-0.2
		l-0.2-0.1l-0.3-0.6l-0.4-0.4l-0.9-0.7l-0.1-0.2l-0.2-0.1l-0.2-0.3l-0.8-0.3h-0.2l-0.2-0.2c-0.6-0.4-1.2-0.8-1.9-1.1H289l-0.5-0.2
		l-0.9-0.9l-0.4-0.6l-0.4-0.3c-0.3-0.4-0.5-0.8-0.7-1.2h-0.2l-0.2-0.2l-0.5-0.3l-0.3-0.7l0.1-0.3v-0.2l-0.1-0.1l0.1-0.4l-0.2-0.7
		l0-0.5l0.2-0.3l0-1.9l-0.2-0.3l-0.2-0.6l-0.3-0.4l-0.2-0.3l0.1-0.3c-0.1-0.3-0.2-0.6-0.3-0.9l-0.2-0.1l-0.2-0.4l-0.2-0.9l0.3-0.5
		l0-0.4l-0.4-0.5l-0.4-0.9l-0.2-0.1v-0.3l0.1-0.2l0-0.2l-0.2-0.1l0-0.3l-0.4-0.3v-1.1l0.2-0.3l-0.1-0.2l0.2-0.3l-0.1-0.4l-0.2-0.3
		l0-0.7l-0.3-0.3v-0.3l-0.1-0.2l-0.5-0.6l0.1-0.2l-0.1-0.1V406l-0.2-0.3l0.1-0.2l-0.3-0.8l0-0.4l-0.2-0.1l-0.3-0.4l-0.3-0.2
		l-0.3-0.4l-0.2-0.1l-0.1,0.1l0-0.2l-0.3-0.2l-1-1.1c-0.3-0.1-0.6-0.2-0.9-0.3c-0.8-0.7-0.8-1.5,0-2.2"/>
</g>
<g id="stahl-peak">
	
		<path id="t1_p475_5_" fill="none" stroke="#FFFFFF" stroke-width="4" stroke-linecap="round" stroke-linejoin="round" stroke-miterlimit="10" d="
		M318.8,362.4c0,0.2,0.4,0.3,0.4,0.3l0.2-0.1l0.2-0.3l0.2,0.6l0.5,0.6l0.2-0.1l0.4,0.5l0.3-0.1h0.2l0.3,0.5v0.3l0.4,0.4l0.3,0.2
		l0.1,0.4c0.2,0.3,0.5,0.6,0.7,0.9h0.2l0,0.2l0.3,0.1l0.3,0.6h0.2l0.1,0.3l0.4,0.1l0.7,0.4l0.4,0.4l0.5,0.2l0.2,0.3v0.2l0.5,0.3h0.2
		l0,0.2l0.2,0.3l0,0.2l0.6,0.6v0.2l0.2,0.1v0.2l0.2,0.1l0.2,0.4l-0.1,0.4l0.1,0.4l0.3,0.5l0.3,0.2l0.8,1.3l0.6,0.3l0.1,0.5l0.4,0.3
		l0.1,0.6l0.2,0.1l0.1,0.3v0.4l0.3,0.2v0.2l0.3,0.6l0.1,0.6l1.8,2.8l0.4,0.2l0.2,0.4h0.2l0.1,0.4h0.2l0,0.3l0.4,0.7l0.2-0.1l0.1,0.3
		l0.2-0.1l0.1,0.1l0.2,0.1l0.2,0.7l0.2,0.4l0,0.2l0.2-0.1l0.1,0.1l0.3,0.6l0.1,0.4l0.4,0.7l0.2,0.3v0.2h0.2l0.1,0.1l0,0.2l0.2,0.3
		l0.6,0.5v0.2l0.2,0.1l0.1,0.2l0.2,0.1l0.1,0.3l0.3,0.4l0.7,0.5l0.1,0.4l0.6,0.2l0,0.2l0.3,0.2l0.4,0.2h0.4l0.3,0.3l0.2-0.1l0.2,0.1
		l0.4-0.2l0.2,0.4l0.2-0.1h0.2l0.4,0.2l0.4-0.1l0.3,0.3l0.6,0.3h0.2l0.1,0.3l0.2-0.2l0,0.2l0.2,0.1l0.2-0.1l0.2,0.1l0.4,0.1l0.6,0.4
		h1.5l0.5,0.3h0.3l-0.3-0.1l-0.5-0.4l-0.4-0.2L349,392l0.1-0.3l0.5,0.1l0.8,0.6l0.7-0.2l1,0.2l0.1,0.2l0.3-0.1l0.4,0.1l0.1,0.2
		l0.5-0.1l0.4,0.1l0.1,0.2l0.2-0.1l0.4,0.1l0.2-0.1l0.1,0.1h0.3l0.1-0.2l0.4-0.3l0.3-0.4l0.2-0.1l0.1-0.1l0-0.2l0.3-0.3v-0.3
		l1.5-1.6l0.4-0.1l0.7-0.9l0.3-0.1l0.2-0.4l-0.2,0.2l0.2-0.3l0.5-0.4c0.1-0.4,0.3-0.5,0.3-0.5l0,0.3l-0.1,0.4l-0.1,0.3l-0.2,0.1
		l0,0.2l-0.4,0.3l0,0.4l0.1,0.3l0.1,0.1l0.4-0.1l0.2,0.1c0.7-0.2,1.4-0.3,2.1-0.4l1.3,0.2l0.5,0.2h0.4l0.5-0.2l1.1-0.1l0.1,0.1h0.2
		v0.1l-0.2,0.3l-0.5,0.3l-0.5,0.2l-0.8,0.8l-1.1,0.6l-0.3,0.3l-0.4,0.7l-0.6,0.2l-0.7,0.8l1-0.4h0.3l0.8-0.3l1.1-0.1l0.4,0.3
		l1.2,0.2l0.5-0.1l0.7,0.3l0.3-0.1l0.3,0.1l0.2-0.1l-0.1,0.4l-0.6,0.5l-1.3,0.8l-0.3,0.3l-0.9,0.3l-0.1,0.3c-1,0.8-2,1.7-3,2.5
		c0.8-0.2,1.7-0.5,2.5-0.6l0.6,0.1l0.5,0.3l0.9,0.3l1.2-0.1l1.2,0.1l0.9,0.4l0.9-0.1l-0.1,0.3l-0.3,0.3c-0.4,0.2-0.7,0.4-1.1,0.6
		l-0.6,0.8l-0.3,0.2l-1.6,0.5l-0.3,0.2l-0.2-0.1l-0.2,0.4l-1.2,0.2l-0.5,0.4l-1.9,0.8l-0.1,0.1l0.8-0.1l2.3,0.6c1,0,2.1,0.1,3.1,0.2
		l1,0.4l1.1,0.2c0.7,0.3,1.5,0.5,2.2,0.6l0.8,0.4l1,0.2l2.9,2.1l1.6,0.4l0.4,0.3l1.7,0.7l0.8,0.2l0.5-0.1l0.3,0.1l0.3-0.3l0.4-0.1
		l0.2-0.1l0.1,0.2v0.2l-0.3,0.4c-0.3,0.3-0.6,0.5-0.9,0.7l-0.3-0.1l-0.1,0.2l-0.2,0.2l-3.5,1.7l-0.2,0.3l-1,0.2l-1,0.5l-0.1-0.3
		l-0.3,0.1l-0.6,0.4l-2.8,1l-2.5,0.5l-1.2,0.9l-1.7,0.6h-0.4l-0.2,0.2l-1.6,0.6l-0.3-0.1l0.4-0.2h0.6l0.4,0.4l1.6,0.7h1.4l1.9,0.6
		l0.7,0.4l1.7,0.1l0.5,0.3l2.1,0.7l0.4-0.1l1.5,0.1l0.7-0.1l0.3,0.1l0.5-0.1l1,0.1l0.9-0.1l0.4,0.1l0.8-0.1l0.8-0.3l1.9-1.2l0.5-0.1
		l2.5-1.5l0.3-0.1h0.5l0.3-0.1l1.2,0.6l1.6,0.4l0.6-0.3l0.2-0.3l0.5-0.5l0.3-0.4l0.9-0.2l0.5-0.4l0.6-0.4l0.3-0.3l1.1-0.6l0.2-0.4
		v-0.4l0.1-0.3l0.3-0.6l0.3-0.4l0-0.5c0.2-0.2,0.5-0.5,0.7-0.7l0-0.2l0.5-0.6l0.5-0.1l0.5-0.3l0.8-0.2l0.3-0.4l0.3-0.1l0.7-0.5
		l0.3-0.1l0.3-0.4l1-0.7l0.2-0.1l0.7-0.6l0.5-0.2c0.2-0.3,0.5-0.6,0.7-1l0.4-0.3c0.2-0.3,0.4-0.6,0.6-0.8l0.3-0.1l0.5-0.4l0.2-0.5
		l0.7-0.8v0.3l-0.1,0.1l-0.1-0.2l0.2-0.6l0.8-1.5l0.3-0.4v-0.3l0.4-0.4c0.5-0.3,1.1-0.6,1.6-0.8l0.3,0.1l0.1-0.1l0.1-0.8l-0.2-0.5
		l0.3-0.6l-0.1-0.2l0.5-1.2l0.4-0.4l1.1-0.7l0.5-0.6l0.2,0.1l0.5-0.1l0.1-0.2l0.8-0.1l1.2-0.4l0.5-0.4l0.7-0.8l0.1-0.3l0.2-0.1
		l0.5,0.1l0.4-0.2l0.8-0.1l0.3-0.3l0.4-0.1l0.5-0.3l0.2-0.3l0.3-0.2l0.2-0.4l0.5-0.6v-0.3l-0.1-0.2l0-0.3l-0.1-0.2l0-0.5l-0.1-0.3
		l0.1-0.6l0.3-0.6l1.5-1.4l0.5-0.1l0.8-0.5l0.8-0.1l0.3-0.2l0.3,0.1l0.4-0.6l0-0.2l0.7-0.7l0.7-1.2l0.2-0.1l0.1-0.4l0.5-0.6v-0.3
		l0.5-1.7l0.7-0.5l-0.1-0.1l0-0.2l0.1-0.1l0-0.2l0.3-0.3l0.1,0.1l0.3-0.3l0.2-0.4l0.4-0.4l0.7-0.3l0.6,0.8l0,0.4l0.4,0.4l1.2,0.5
		l0.5-0.3l0.8,0.1l0.3-0.3l0.8-0.3l0.5-0.5l1.5-0.6l0.4,0.2l1.2-0.6l1-0.8l0.5-0.2l1.3-0.3l1.3-1.4l1-0.6l0.7-0.8l0.5-0.4h0.3
		l0.8-0.3h1.1l0.2-0.1h0.2l0.5-0.4l0.8-0.4l1.1-0.4l1.8-1h0.5l0.4-0.3l0-0.4l0.2-0.3l-0.2,0.1h-0.3l-0.6-0.4l-0.8-0.3l-0.4-0.3h-0.4
		l-0.9-0.6l-0.3,0.1l0-0.3l0.2-0.3l-0.1,0.3l-0.3-0.1l0.8-0.1l0.7-0.3l0.7-0.6l0.5-0.5l0.3-0.6l0.5-0.6l1.1-0.6l0.9-0.3l0.5,0.3
		l1.5,0.4l1.1,0.6l0.6,0.1l0.5,0.3l0.4-0.1l0.3-0.4l0.8-0.4l0.8-0.3l0.6-0.1l0.3-0.2l1.1-0.2l1.1-0.4l2.1-1.2l1.2-0.3l1.4-0.7
		l1.1,0.1l2.4-0.4l1.9-0.9l0.3-0.4l0.7-0.3l0.3,0.2l0.4-0.1h0.4l1.4-0.3l0.3-0.3l0.1-0.3l0.5-0.3h0.5l1.7-0.6l1.1-0.6l1,0.1l0.5-0.1
		l3.1,0.3l1-0.1l0.5-0.2l1.1,0.5l1.4,0.3l0.8,0.4l0.4-0.1l1,0.5h0.6l1,0.6l1,0.8l1.8,2l0.6,0.5l1.3,0.6l0.3,0.3l0.8,0.5l0.8,0.8
		l0.4,0.8l0.2,0.7l0.9,1.1l0.3,0.2h0.2l0.6-0.2l-0.2-0.8l-0.2-0.3l-0.5-0.7l-0.4-0.8l-0.7-0.8l-0.7-1.4l-0.7-1l-0.8-0.6l-0.2-0.4
		l-1-1l-0.5-0.8l-1.1-1l-0.8-1.4l-0.3-0.3l-1.3-0.4l-0.3-0.3l-0.3-0.1l-0.9-0.7l-2.1-0.8l-1.1-0.9l-0.5,0.1h-0.5l-1-0.4l-0.5-0.6
		l-1-0.3l-0.8-0.4l-1.6-0.3l-1.4-0.5l-1.2-0.1l-0.4-0.1l-0.2-0.3l-0.9-0.3l-0.7-0.4l-0.5-0.1l-0.5-0.3l-1-0.1l-0.5-0.3l-1.1-0.3
		l-2.7-0.4h-0.5c-0.6-0.1-1.3-0.3-1.9-0.4l-0.4-0.3l-0.5-0.2c-0.9-0.3-1.9-0.4-2.8-0.5l-1.4-0.4l-1.2-0.1l-2.5,0.6l-0.5-0.1
		l-0.8-0.4l-0.2-0.3l-0.7-0.3l-2.2-0.1l-0.2-0.1l-0.7,0.1l-0.2-0.1l-0.3,0.2l-1.9,0.1l-1.5-0.3l-0.8,0.1l-0.7-0.3h-0.3l-0.9-0.2
		h-2.2l-1.2-0.1l-0.4-0.1l-0.3-0.2l-0.9-0.3l-1.1-0.6l-0.5-0.4l-0.2-0.3l-0.8-0.7l-0.3-0.4l-0.1-0.4l0.3-1.2l0.3-0.3l1.3-0.3
		l0.7-0.4l0.2-0.3h0.4l0.3-0.3l0.4,0.1l0.3-0.2l0.2-0.3l0.9-0.3l0.2-0.3l0.6-0.3l0.5,0.1l0.3-0.1l0.6-0.3l0.9-0.3l0.3-0.3l0.2-0.1
		l0.1,0.1l0.5-0.1l1.2-0.4l0.7-0.1"/>
</g>
<g id="highline">
	
		<path id="t1_p363_1_" fill="none" stroke="#FFFFFF" stroke-width="4" stroke-linecap="round" stroke-linejoin="round" stroke-miterlimit="10" d="
		M195.3,511.4l0.3-0.1l0.2-0.4l0.2-0.1v-0.2l0.9-0.8l0.1-0.3l0.1-0.4l-0.2-0.6l0-0.4l0.1-0.4l0.4-0.3l0.3-0.6l0.2-0.1l0.4,0.5
		l0.4,0.2l0.4,0.8l0,0.4l0.2,0.1l0.3-0.4l0.1-0.2l0-0.5l0.1-0.8l0.9-3.1l0-1.3l-0.1-0.2l0.1-0.3l0.2-0.1l0.3-0.4l0.4-0.4l0.2-0.3
		l0.1-0.4l0.5-0.4l0.1-0.9l0.2-1l0.5-0.6l0.2-0.8l0.3-0.5l0.1-0.4l0.1-0.1l-0.3-0.8V494l0.3-0.3h0.4l0.3,0.3h0.3l0.3,0.3l0.1-0.1
		l0.2-1.7l0.2-0.6l1.1,0.4l0.3,0.3l0.3,0.6l0.5,0.4l0.2,0.3l1.1,1.3l0.1,0.4l0,0.6l0.3,0.8l0,0.1l0.1,0.6l-0.1,0.7l-0.2,0.5l0,0.6
		l-0.1,0.7l0.1,0.3l0.2-0.6l1.2-1.5l0.2-0.6l0.1-0.6l0.3-0.3l0.6-1l0.6-0.6l0.2-1.5l0.4-0.8l0.2-0.8l0-1l0.2-0.7l0.4-1.1v-0.6
		l-0.2-0.2l0-1.2l0.1-0.3l0-0.4l-0.1-0.1l0-0.3l0.6-1.5l0.4-1.6l0-0.3l-0.4-0.8l-0.3-1.1l-0.1-0.1l-0.1-0.7l-0.2-0.6l-0.1-0.9
		c-0.3-0.7-0.5-1.4-0.8-2.1l-0.6-0.4l-0.1-0.2l1.2-0.1l1,0.3l0.4,0.4l0.5,0.3l0.6,0.3l0.5,0.3l1.3,1.4l0.6,0.4l0.2,0.3l0.5,0.1
		l0.2,0.2c0.2,0.8,0.5,1.7,0.8,2.5l0.8,1.2l0.3,0.9l0.3,1.4v0.9l0.1-0.1l0-0.5l0.6-1.8l0-1.1l-0.1-0.7l0.1-1.1
		c0.2-1,0.5-2.1,0.8-3.1l0.4-0.9l0.2-0.6l0-0.7l0.1-1.5c0-0.9,0-1.8,0-2.7l-0.2-1l-0.2-0.5l-0.1-3.6c-0.1-0.5-0.2-1.1-0.3-1.6
		l-0.9-1.4l-0.6-0.7l-0.8-0.6l-1-0.5l-1.1-0.8l-1.1-1.8l-0.3-0.6l-1.2-1.8l2.9,1.3l0.8,0.2l0.4-0.1l0.7-0.2l0.2-0.4l0-0.3l0.1-0.8
		l0.3-0.6l0.9-0.2l-0.9-0.6l-0.7-0.7l-1-1.5l-0.2-0.5l0.3-1.8l0.5-1l0.3-1.1l0.5-0.5l0.7-1.1l0-0.3l-0.3-0.4l0-0.3
		c0.1-0.2,0.2-0.4,0.3-0.6l0.1-0.6l0.2-0.3l0.1-0.4l0.3-0.6l0.3-0.2l0.3-0.4l0.1-0.6l1-2.1l0.4-0.4l0.6-0.3l0.5-0.7l0.1-0.6v-0.9
		l0.2-0.8l-0.2-1.1l0.1-1l0.6-1.1l1-1.4l0.1-0.3l0.2-0.7l0.5-0.9l0.1-0.6l0.1-0.2l0.1-0.8l0.2-0.5l0.2-0.9l0.3-0.8l0.1-0.6l0.3-0.4
		l0-0.3l0.3-0.6l0.6-0.9l0.6-0.3l0.2-0.3l0.9-0.6l1.6-0.3l0.4-0.2l0.4-0.6l0.5-0.4l0.1-0.3l0-0.3l0.2-0.1l0-0.2
		c0.5-0.8,1-1.6,1.5-2.5l0.6-0.8l0.7-0.3l0.5-0.9l0.3-0.1l2.3-1.3h0.5l0.6,0.1h1.8l0.8,0.2c1.9,0,4.2,0.7,5.9-0.5l3.2-2.3l0.9-0.4
		l1.3-0.3l1.5-0.8l0.6-0.2l0.8-0.4l0.9-1.4c0.3-0.2,0.6-0.5,1-0.7l1.8-0.7l2.8-2l1-0.5l0.5-0.6l0.3-0.2l1.7-0.6l0,0.1l0.6-0.3
		l0.5-0.1l2.6-1.6l0.7-0.1l0.3-0.1l0.3-0.4l0.7-0.4l1.1-0.1l0.6-0.3c0.5-0.5,1.5-0.2,1.5-0.2l0.2-0.1l0.2,0.1l0.6-0.3l0.5-0.1
		l0.4-0.3l0.7-0.4l0.5-0.9l0.5-1.6l0.2-0.4l0-0.3l0.8-1.3l-0.1-0.1l0.1-0.3l0.6-0.5l0.2-0.4l0.5-0.4l0.4-0.6l0.7-0.3l0.7-0.6
		l0.2-0.1l0.4,0.1l0.2-0.4l0.4-0.3l0.3-0.4l0-0.8l0.1-0.1l-0.1-0.4l0-0.6l-0.1-0.2l0.3-0.4l0.5-0.3l0.2,0.1l0.3-0.1l0.5-0.4l0.2-0.1
		l0.5,0.1l0.8-0.3l0.3-0.2l0.7-1l0.9-0.6l0.3-2.3l0.1-0.1l0-0.2l0.1-0.6l0-0.2l0.1-0.4l0-0.6l0.2-0.5l0.4-0.8l0.2-0.6l0.2-0.1v-0.2
		l0.3-0.3l0.1-0.2l0.2-0.1l0.2-0.6l0.3-0.1l0.4-0.4l0.1-0.2v-0.4l0.1-0.1l1-0.3l0.1,0.2l0.6,0.4l0.4-0.1l1,0.4l0.3,0.4h0.2l0.3,0.3
		l0.4,0.7l0.2,0.1l0.2-0.1l0.2-0.3l0.3-0.9l0.1-0.1v-0.3l0.2-0.6l0.1-0.6l-0.2-0.6l0.1-0.2l1-0.7l0.7-0.1l0.4,0.1l0.3-0.3h0.7
		l0.5-0.3l0.5-0.1l0.1-0.2l0.5-0.2l0.2-0.3l0-0.4l0.4-0.7l0.1-0.5l0.6-0.8h0.2l0.5-0.4v-0.2l0.1-0.6l0.3-0.3l0.3-0.2h0.3l0.8-0.1
		l0.2-0.3l0.2-0.1l0.1-0.2l0.2-0.2l0.5-0.1l0.5-0.5l1.7-0.8l0.3-0.3l0.1-0.7l0.2-0.4l0.4-0.3l0.4-0.1l0.2-0.2l0.2-0.3h0.2l0.2-0.3
		l0.9-0.1l0.2,0.1l0.2-0.1l0.7,0.1l0.1-0.2l0.3-0.1l0.6,0.1c0,0,0.3,0.1,0.3-0.2l0-0.3l0.3-0.8v-0.3l1.1-0.9l0.4-0.1l0.8-1l0.2-0.8
		l0.2-0.3l0.3-0.7l0.2-0.1v-0.3l0.2-0.6v-0.4l-0.1-0.2l0-0.1l0-0.3l0.3-0.3l0-0.4l0.1-0.4l0.1-0.2v-1.1l0.2-0.4l0.3-1.1
		c-0.2-0.9-0.4-1.8-0.5-2.7l-0.4-0.6l-0.1-0.6l0-0.2l-0.3-0.4l0-0.2l-0.1-0.3l-0.3-0.2l-0.2-0.4v-0.3l-0.2-0.1l-0.5-0.9h-0.2
		l-0.1-0.3l-0.2-0.8l-0.7-0.7l-0.6-0.8h-0.2l0-0.3v-0.2l-0.2-0.4l-0.3-0.3l-0.2-0.1l0.2-0.3l-0.3-0.6l-0.3-0.3l-0.2-0.6l-0.5-0.6
		h0.2l0-0.3l-0.2-0.2l-0.1-0.4l-0.1-0.4l0.1-0.1h-0.2l0.3-0.8l-0.1-0.1l0-0.4l0.3-0.5l0.1-0.4l-0.1-0.2l0-0.2l0.3-0.3l0.3-1.2l0-1
		l0.3-0.3l0-0.4l0.5-0.6l0.8-1.5l0.5-0.5l0.1-0.3l0.3-0.5c0.2-0.4,0.5-0.7,0.8-1l1-0.3l1.1-0.9l0.1-0.2l0.8-0.5l0.4-0.4l0.1-0.6
		l0.7-0.8l0-0.2l0.4-0.4l0.6-1l0.7-0.5l0-0.3l0.3-0.5v-0.1l0.1-0.4h0.2l-0.1-0.2l0.6-1.1l0.2-1.1l0.2-0.4l0.2-1.2l-0.2-2l0-1.1
		c-0.1-0.3-0.2-0.6-0.3-1l-0.1-0.7v-0.3l0.3-0.9v-0.3l-0.2-1.1l0.1-0.5v-1.2l-0.1-0.3l0.1-0.2l0.2-0.1l0.2-0.8l0.2-0.3l0.2-0.1
		l0.7-0.1l0.1-0.2l0-0.6l-0.2-0.4l-0.4-0.4l-0.2-0.8l-0.2-0.3l-0.3-0.9l-0.3-0.5l-0.7-0.8l-0.5-1.3v-0.8l0.3-0.3l-0.1-1l-0.7-2.2
		V293l-0.4-0.9l0-0.4l-0.1-0.2l-0.4-0.1l-0.3-0.3v-0.4l-0.5-0.7l-0.1-0.4l-0.3-0.3l-0.2-0.4l-0.1-0.1l-0.2,0.1l-0.2-0.2l-0.2,0.1
		l-0.1-0.2H323l-0.5-1.3l0.3-0.3l0.4-0.5l0.3-0.2l0.3-0.4h0.2l0.3-0.6l0.2-0.1l0.3-0.3l0.3-0.6l0.3-0.3v-0.2l0.3-0.3v-0.2l-0.2-0.3
		l-0.1-0.6H325l-1.1-0.4l-0.3-0.3l-0.7,0.2l-0.4-0.1l-0.3,0.1l-0.1-0.2l-0.2,0.1l0.1-0.1l0-0.4l0.6-0.9l0.3-0.3l0.2-0.1l0.6-0.6
		l0-0.3l-0.1-0.1l0.5-0.4h0.2l0.1-0.4l0.5-0.3l0.3-0.3l0.1-0.4l0.1-0.2l0-0.2l-0.2-0.2H325l0.4-0.3l0.1-0.3l0-0.7l0.2-0.1l0.2-0.4
		l0.2-0.8l0.3-0.4l0.4-0.3l0.5-1V272l0.2-0.6v-0.3l0.3-0.3l0.4-0.2l0.3-0.9l0.4-0.6l0-0.2l0.1-0.2l0-0.3l0-0.3l-0.1-0.1l0.8-1.3
		l0.1-0.4l0.2-0.1l0.3-0.3v-1.1l0.5-0.6l0.8-0.7l0.8-1.1l0.7-0.4l0.4-0.5l0.9-0.2l0.3-0.2l0-0.2l1.1-0.7h0.7l1.3-0.3l0.1-0.4h0.2
		l0.1-0.2l-0.1-0.4l0.3-0.6l0.2-0.1l0.5-0.9l0.7-0.6l0-0.4l0.5-0.6l0.5-1.3l0.1-0.2l0.8-0.1l0.8-1.1l0.7-0.2l0.5-0.4h0.2l0.3,0.3
		l0,0.2l0.1,0.2l0.8,0.6l1.4,0.4l0.5,0.4l1.3,0.3l0.3,0.3v0.1l0.9,0.7l0,0.4l0.3,0.5l0.2,0.1l0.5-0.4l1.6-0.2l0.3-0.2h0.3l0.3-0.2
		l0.5,0.3l0.3,0.3l0.8,0.4l0.4,0.5l0.3,0.6l0.6,0.5l0,0.3l0.3,0.3l0.3,0.3l0.2,0.1l0.3,0.3l0.2,0.1l0.3-0.1l0.1,0.2l0.2-0.1l0.1,0.4
		h0.3l0.2,0.1l0.3-0.1l0.2,0.1l0.3,0.4h0.2l0.8,0.6l0.2-0.1l0.9,0.1l0.7-0.3l0.8,0.1l0.8,0.2h0.4l0.2-0.1l0.4,0.1l0.5-0.2l0-0.1
		l0.8-0.1l0.1-0.1l1.1-0.4l1.4-0.3l0.5-0.2l0.6,0.3l1.6,0.2l0.3-0.1l0.4-0.6l0.9-0.4l0-0.3l-0.2-0.3l1.1-0.1l1-0.4l0.5,0.1l0.3,0.3
		l0.7,0.3l0.3-0.1l1.4-0.3c0.4-0.4,0.8-0.8,1.2-1.2l0-0.3l0.3-0.7l0.3-0.3l0.7-0.3l0.5,0.1l0.2-0.1l0.5,0.2l0.9,0.1l0.3-0.1l0.1-0.2
		l0.4,0.1l1-0.3h0.6l0.3-0.3l0.4-0.1h0.5l0.9-0.4l0.5-0.4l0.2,0.1l1-0.2l0.8,0.4l0.9,0.2l2.7-0.1l0.6,0.3l0.4-0.1l0.5-0.3l0.5-0.1
		l0.8-0.3l1.4,0.1l0.2-0.1l0-1l-0.1-0.2l0.2-0.3h0.3l0.2,0.1c0.3,0,0.6,0.1,0.9,0.1l0.4-0.3l0.1-0.2l-0.2,0.1l0-0.4l-0.2-0.1
		l0.1,0.2l0.2-0.1l0.3,0.3l0.2-0.1l0.3,0.1h0.6l0.5,0.2l0.6,0.4l0.2,0.7l0.5,0.3l0.3-0.5l0.2-1l0.3-0.3l0.6,0.1l0.4-0.1l0.1,0.2
		l0,0.2l0.4,0.7l0.2,0.1l0.3,0.1l0-0.4l-0.2-0.4l0-0.1l0.5-1.1l0.8-0.2l0.5-0.4l0.8-0.2l1.2,0.2l1.2-0.3l0.5,0.3l1.2,0.1l0.4-0.2
		l0-0.3l0.7-0.6l0.4-0.1l0.1,0.1l0.2-0.1l0.9,0.5l0.5,0.2h0.4l0.1,0.3l0.8,0.3l0.7,0.4h0.2l0.7,0.3l1.6,0.1l0.2-0.1h0.5l0.5-0.4
		l0.2,0.1l0.8-0.6h0.5l0.5-0.2h0.5l0.4,0.3l0.7-0.1l0.1-0.2l0.2-0.1l0.8-0.1h0.7l0.3,0.1l0.5-0.2l0.6,0.1l0.2-0.1l0.8,0.2h0.5
		l0.8-0.3l0.3-0.3l0.2,0.1l0-0.2l0.2-0.2l0-0.7l-0.1-0.6c0.1-0.4,0.1-0.7,0.1-1.1l0.3-0.3v-0.3l0.2-0.2l0.1-0.4l0.6-0.5l0-0.1
		l0.2-0.1l0.2-0.1v-0.2l0.3-0.3l0.4-0.6l0.3-0.3l0.6-1l0.3-0.3l0.3-0.5l0.2-0.1l0-0.1l-0.2-0.4l0.1-0.1l0.1-0.6c0-0.3-0.1-0.7-0.2-1
		l0-0.3h0.2l0.5-0.8l0.1-0.4l0.2-1.8l0.4-0.6l0.2-0.1l0.2-0.6l0.2-0.1l0-0.4l0.2-0.6l0.2-0.3l0.2-0.1l0.2-0.4l0.2-0.1l0.2-0.2
		l0.3-0.7l0-0.3l0.3-0.8h0.3l0.1-0.1l0.8,0.1c0.3,0,0.6,0.4,0.6,0.4l0.2,0.2l0.4,0.1l0.1,0.3l0.9,0.2l0.3,0.3l0.1,0.5l0.1,0.3
		l-0.1,0.4l0.1,0.2v0.3l0.3,0.4l0.7,0.4l0.4,0.5l0.1,0.5l-0.2,1l-0.3,0.8l-0.1,0.2l-0.1,0.5l-0.5,0.6l-0.2,0.6l-0.3,0.1l0.3,0.7v1.2
		l0.3,0.5h0.2l0.1,0.6l0.3,0.2l0.3,0.6l0.3,0.2v0.2l0.2,0.5l1.1,0.9l1.3,1.7l0,0.6l0.2,0.1l0,0.2l0.2,0.4v0.4l0.1,0.5l0.1,0.3
		l0.1,0.1l0,0.5l0.2,0.1l0,0.2l0.2,0.3l0.3,1.1l0.3,0.5v0.3l0.5,0.7l0.9,0.5l0.4,0.4l0.3,0.1c0.3,0.3,0.6,0.6,0.9,0.9l0,0.3l0.5,0.5
		l-0.1,0.1l0,0.2c0.2,0.3,0.3,0.6,0.5,1v-0.2l0.1,0.3l0.6,1l0.1,0.1l0.2-0.1l0.1,0.1l0.1,0.4l0.3,0.2l0.4,0.4l0.4,0.3l0.2,0.3v0.2
		l0.2,0.3l0.5,0.6l0,0.2l0.2,0.1l0.2,0.3l0.1-0.1l0.1,0.1l0.5,1.2l0.8,1.2l0.2,0.4l0.3,0.4l0.2,0.6l0.7,1l0.4,0.1l1,0.8l0.3,0.1
		l0.3,0.2l0.7,0.6l0.3,0.4l0.1,0.3l0.3,0.3l0,0.4l0.3,0.3l0,0.2l0.2,0.1l0.3,0.6l0,0.4l0.2,0.3l-0.1,0.2l0.1,0.2l-0.1,0.2l0.3,0.8
		l0,0.3l0.1,0.2l-0.1,0.3l0.7,0.8l0.1,0.4l0.2,0.2l0.1,0.2l0,0.4l0.5,0.6v0.3l0.1,0.2l0.4,0.6l-0.1,0.6l-0.1,0.2v0.4l0.3,0.5
		l-0.3,0.4l0,0.4l-0.1,0.1l0.1,0.2l-0.1,0.1v0.4l-0.2,0.3v0.3l0.3,0.8l-0.3,0.1l-0.3,0.9l0,0.6l-0.4,0.3l-0.3,0.3l0.1,0.4v0.4
		l-0.3,0.6l0,0.3l-0.2,0.4v0.6h-0.2l-0.2,0.3h-0.4l-0.3-0.2h-0.6l0,0.2h-0.2l-0.2,0.4l0.2,0.4l-0.1,0.3l-0.2-0.1l-0.7,0.1l-0.2-0.1
		l-0.3,0.2h-0.5l-0.1-0.2l-0.4,0.1l-1.3,0.8v0.4l0.1,0.1l0,0.3l0.1,0.3l0.3,0.2l0.8,1l0.2,0.6l-0.1,0.2l0,0.2l0.3,0.3l0.1,0.3l0,0.3
		l-0.3,0.3l-0.3,0.8l-0.1,0.1v0.3l0.3,0.4l0.2,0.6v0.4l-0.2,0.7l-0.2,0.3l0.5,0.5v0.4l-0.4,0.1l-0.3,0.3l-0.7,0.1l-0.4,0.3l-0.5,0.1
		l-0.6,1l0.1,0.4l-0.1,0.2l-0.9,0.5l-1-0.3l-0.2,0.1l0,0.2l-1.2,0.4l-0.4-0.1l-0.1-0.1h-0.2l-0.3,0.3l-0.2-0.1l-0.3,0.3l0,0.4
		l-0.2-0.1l-0.6,0.3l-0.2-0.1l-0.5,0.4l-0.1,0.2l-0.3,0.1l-0.3,0.4v0.2l-0.3,0.3l0,0.3l-0.4,0.3l-0.1,0.2v0.3l-0.7,0.3l0,0.3
		l-0.4,0.1l0,0.3l-0.2-0.3l-0.2-0.1l-0.2,0.1l0,0.3l-0.4-0.1l-0.5,0.4v0.2l-0.8,0.9l-0.2,0.7l-0.2,1.3l0.2,0.6l-0.1,0.9l-0.3,0.3
		h-0.2l0,0.2l-0.3,0.3l0,0.2l-0.7,0.4h-0.4l-0.5,0.6l-0.1,0.4l-0.3,0.4l0,0.4l-0.4,0.4l0.1,0.2l-0.2,0.1v0.4l0.1,0.5l-0.2,0.9
		l-0.1,1.2l0,0.9l-0.1,0.4l-0.3,0.5l0,0.4l-0.2,0.1l0,0.2l-0.2,0.1c0.1,0.5,0.2,1.1,0.3,1.7l-0.1,0.1v0.6l-0.1,0.4l-0.6,0.8
		l-0.5,0.5l-0.4,0.2l0,0.2h-0.2l-0.1,0.7l0,0.2l-0.1,0.6v0.7l0.9,0.2l1,0.6h0.8l0.5,0.1l0.3-0.3l0.9-0.1l1.8,0.2l0.6,0.2l0.3,0.4v1
		l0.1,0.6l-0.1,0.3l-0.2,0.2l0,0.2l-0.2,0.1l0.1,0.3l-0.1,0.2v0.6l-0.2,0.4v0.3l-0.3,0.1l0,0.2l0.2,0.4l0.9,0.5l0.8,0.1l0.6-0.3
		l0.6,0.1l0.7-0.1l0.7-0.5h0.5l0.2-0.1l0.5,0.1l0.8,0.5h0.7l0.4-0.2l0.4,0.6l0.2,0.1l0.2,0.3l0.3-0.2l0.9,0.7h1.2l0.8,0.3l0.8,0.1
		l0.3,0.1l1.5-0.4l0.6-0.4l0.3-0.5l0.5-0.4l0.3-0.4l0.2-0.1l1.2-0.1l0.4,0.3l0.6,0.1l0.2,0.1l1.1-0.1l1.3,0.1l1.4-0.3l0.4,0.2
		l0.7-0.2l0.7,0.3l1,0.1l0.2,0.2c0.6,0,1.3,0,1.9,0.1l0.6-0.1l0.4-0.2l1.7-0.1l0.6,0.4l0.3,0.1l0.3,0.3l0.5,0.6l0.4,0.1l1,1l0.8,0.3
		h0.6l0.3,0.2l0.3,0.1l0.8,0.1l0.7-0.3l0.2-0.2l0.1,0.1l0.1-0.3l0.2-0.1l0.1-0.4l0.3-0.4l0.4-0.5l0-0.3l0.1-0.4l0.1-1.1l-0.1-0.3
		l0.2-0.8l-0.1-0.6l0.7-0.4"/>
</g>
<g id="theriault-lake">
	
		<path id="t1_p108_2_" fill="none" stroke="#FFFFFF" stroke-width="4" stroke-linecap="round" stroke-linejoin="round" stroke-miterlimit="10" d="
		M242.3,345.4l-0.6,0.3l-0.5,0.4v1.4l0.1,0.7l0.7,0.7l1.2,0.8l1,0.2l0.7,0.6l0.5,0.8l0.3,0.1l0.4-0.1l0.5,0.3l0.8,0.8l0.5,0.8
		l0.3,0.3c0.1,0.4,0.3,0.8,0.4,1.1l0,0.4l0.3,1l0.3,0.5c0.1,0.2,0.2,0.5,0.2,0.8v0.4l0.2,1l0.4,0.8l0.7,0.6l0.6,0.4l0.4,1l0.5,0.4
		l1.2,1.2l0.8,0.6l0.2,0.3l0.9,0.8l0.7,1l0.5,0.5l0.6,0.1l0.6,0.6l0.3,0.1l0.5,0.6l2.1,1.3l0.5,0.1l1.3,0.7l0.7,0.6l0.4,0.1l0.8,0.7
		l0.1,0.8l0,0.6l0.3,0.9l0.9,0.7l0.2,0.6c0,0.6,0,1.2-0.1,1.8l-0.5,2.2l-0.3,0.5l-0.1,0.4l-0.9,0.9l-0.1,0.5l0.1,0.3l-0.7,0.1
		l-2-0.2l-1.4,0.1l-1,0.4l-1,0.1v0.1l0.5,0.6l0.3,0.5l0.8,0.6l0.6,1l0.7,0.7l0.6,0.8l0.8,0.8l0.3,0.4l1.3,1l1.5,0.8l0.4,0.5l0.3,0.3
		l0.5,0.8l0.4,0.9l0.1,0.4l-0.1,0.8l0.2,0.3l0.5,0.4l0.2,0.3l0.7,0.4h0.4l1.6-0.4l1-0.1l1.6-0.5c1-0.5,2.1-1,3.1-1.5l0.3-0.3
		c0.6-0.3,1.2-0.6,1.8-0.9l0.1,0.1l0.3,1l0.1,1.1l0.4,0.4h0.3l0.1,0.1l1,0.4l1,0.9"/>
</g>
<g id="bluebird-lake">
	
		<path id="t1_p192_2_" fill="none" stroke="#FFFFFF" stroke-width="4" stroke-linecap="round" stroke-linejoin="round" stroke-miterlimit="10" d="
		M17.2,243.7c0.3-0.1,0.5-0.1,0.8-0.2l0.4-0.4h0.2l0.4-0.4l0.2-0.3l0.5-0.3l0.8-0.1l1.6,0.1l0.5,0.2l0.4,0.4l0.6,0.1l1.3,0.6
		l0.2,0.2l1.5,0.5l0.8,0.1l0.5,0.2l0.5,0.1l0.5,0.4l0.8,1l0.5,1.2l1.1,1l1.9,1.2l0.3,0.3l0.7,0.4l0.5,0.4l0.3,0.8l-0.1,2.6l-0.3,0.6
		l-0.1,0.3l0.1,0.2l0.3,0.3l0.8,0.6l0.1,0.1l1.4-0.7h0.2l2.4,0.6l1.6,1l0.8,0.3l1-0.3h1l0-0.1l0.4-0.2c0.3,0,0.6,0.1,0.9,0.1
		l0.2,0.3l0.1,0.3l0.2,0.2l0.2-0.1l0.3-0.6l0.7-0.7l0.4-0.8l0-0.4l0.3-0.6l0.2-0.7c0-0.5,0.1-1,0.2-1.5l-0.1-0.3l-0.4-0.6l-0.4-1.2
		c0-0.7,0-1.4,0-2.1l0.1-0.4l0-0.5l0.2-0.4l0.3-1.4l0.5-0.6l0.8-0.7l0.2-0.7l0.3-0.4l0.3-0.1l1.2,0.1l0.7,0.6l0.5,0.1l0.5-0.1
		l0.9-0.3l1.8-0.1l1.1,0.2l1.1-0.1l0.7,0.6l0.8,1.1v0.8l0.1,0.4l0,0.3l0.2,0.7l-0.1,0.3l0,0.2l-0.1,0.2l-0.3,0.7l0,0.5l-0.2,0.7
		l0.2,0.5l-0.1,0.5l0.4,0.1l0.5,0.3l1.1,1.4l2.3,2l0,0.1l0.5,0.6l0.4,0.2l0.4,0.4l0.1-0.1l-0.1-1.2l0.2-1.3l0.7-1.5v-0.2l0.1,0.1
		l0.6,1.5l0.2,0.2l0.3,0.8l0.4,0.3l0.5,0.1l0.4,0.4l0.3,0.6l1.2,0.6l1.6,0.4l1.4,0.6l1.1,0.9c1.4,0.5,2.7,1.2,3.9,1.9l2.2,0.9
		l0.7,0.6l0.9,0.6l0.8,1l0.5,0.1l1-0.3h1l1,0.2l2.1-0.3l1.3-0.8l0.6-0.1l0.5-0.3l0.1-0.3l0.1-0.6l0.2-0.5l-0.1-0.6l0.3-0.6l0.3-1.3
		l0.4-1l0.9-0.9L93,255l2.2-0.3l0.7,0.1l1.3-0.5l0.7-0.5l0.5-0.8l0.6-0.4h0l0.4-0.1l0.5,0.1l0.8-0.4l0.8-0.6l1.5-0.6l0.5-0.1
		l0.6,0.1l2.6-0.1l1.4,0.1l1.3-0.3l0.9,0.1l0.6-0.3h0.3l4.2,0.7l0.7,0.3l1.6,0.1l1.3-0.1l2.2,0.5l0.5,0.1l0.6-0.1l1.9,0.4l1.9,0.1
		l0.8,0.1l1.5-0.6h1.1l1.6-0.8l2.2,0.1c1-0.1,2-0.2,3-0.1l3-0.4l1.6-0.5l0.5-0.1l1.6-0.8l0.3-0.3l0-0.5c-0.6-1.7-1-3.5-1.4-5.3
		c-0.5-1-0.9-2-1.2-3.1l0-0.6l-0.2-0.7l-1-0.5l0.7,0.1"/>
</g>
<g id="wolverine">
	
		<path id="t1_p150_2_" fill="none" stroke="#FFFFFF" stroke-width="4" stroke-linecap="round" stroke-linejoin="round" stroke-miterlimit="10" d="
		M180.2,324.9L180.2,324.9L180.2,324.9L180.2,324.9l0.1-0.2l0.5-0.3c0,0,0,0,0,0l0,0h0l0.2-0.1l0.2,0.1c0,0,0.1,0,0.1,0
		c0.1,0,0.1,0,0.2,0l0.2,0l0.1,0c0.1,0,0.1,0,0.2,0l0.1,0l0,0l0,0h0.1c0,0,0.1,0,0.1,0l0.4,0.2l0.1,0.1c0,0,0.1,0,0.1,0l0,0l0,0v0
		l0.1,0.1l0.4,0.4l0,0h0l0,0c0,0,0,0,0,0l0.2,0.1l0.1,0l0.1,0l0.1,0l0,0l0.3-0.1l0.1,0l0.1,0c0.1,0,0.1,0,0.2,0l0.7,0.1
		c0.1,0,0.2,0,0.2,0.1l0.1,0l0,0l0,0l0,0l0.1-0.2c0.1,0,0.1-0.1,0.2-0.1l0-0.1l0-0.1l-0.1-0.3l0-0.1c0,0,0,0,0-0.1v0l0,0l0,0l0-0.2
		h0l0,0c0-0.1,0-0.1,0-0.2c0-0.1,0-0.1,0.1-0.2l0-0.1c0-0.4,0-0.7-0.1-1.1l0-0.1l0-0.1c-0.1-0.4-0.2-0.8-0.2-1.1l0,0l0,0l0,0l0,0
		l-0.1-0.3l0,0l0-0.1l0-0.1l0,0l-0.1-0.5l0,0l0,0l0,0l0,0l0,0l0-0.1l0-0.1l0-0.1l0,0c-0.2-0.1-0.3-0.3-0.5-0.5l-0.2-0.4l0-0.1l0-0.1
		l0-0.1l0,0l0,0l0,0l-0.1-0.3l0,0h0c0,0,0-0.1,0-0.1l0.2-0.4l0.2-0.2c0-0.1,0-0.1,0-0.2c0-0.1,0-0.2,0-0.2L185,317l0-0.1l0-0.1
		l0-0.1l-0.1,0l-0.1-0.1c0,0-0.1-0.1-0.1-0.1l0-0.1l0-0.1l-0.2-0.2l0,0l0,0v0l0,0l0,0c-0.1,0-0.2-0.1-0.3-0.1l-0.1,0l0,0l0,0l0,0
		l0,0l-0.1-0.1l0,0v0c-0.2-0.2-0.4-0.4-0.6-0.6l0,0l0,0l0,0l0-0.1l-0.4-0.2l-0.2,0l-0.1,0.1c0,0-0.1,0.1-0.1,0.1l0,0.1l-0.2,0
		l-0.1,0l-0.1,0l-0.1,0c-0.2,0.2-0.5,0.3-0.7,0.5l-0.1,0l0,0l0,0c0,0,0,0,0,0c-0.2-0.1-0.4-0.2-0.6-0.2l-0.1,0l0-0.1
		c0-0.1,0-0.1,0-0.2l-0.1-0.4c0,0,0-0.1-0.1-0.1l-0.1-0.1l0-0.1l-0.1-0.2l0-0.1c0,0,0-0.1,0-0.1l0-0.1l0-0.1l-0.1-0.8l0-0.1l0-0.1
		l0-0.1l0-0.1l-0.5-0.7h0l0,0l0-0.1l0-0.1l0-0.1l-0.4-0.2l-0.1-0.2l-0.1-0.1l-0.1-0.1l0-0.1l0-0.1l-0.1-0.1
		c-0.1-0.1-0.1-0.1-0.2-0.2l0-0.1l0-0.1l-0.1-0.1l-0.1-0.2c-0.2-0.1-0.4-0.3-0.5-0.4l-0.1-0.1l-0.1,0l-0.1-0.2l0,0l0,0l0,0l0-0.1
		l0-0.3l-0.1,0l-0.1,0.1l0-0.1l0-0.1l0-0.1l0-0.1l0-0.2l0-0.1c0-0.1,0.1-0.2,0.2-0.3l0-0.1l0.1-0.3l0.1-0.1l0-0.1c0,0,0-0.1,0.1-0.1
		c0.1-0.1,0.2-0.2,0.3-0.4l0-0.1c0.1-0.3,0.1-0.5,0.2-0.8l0-0.1l0,0c0-0.1,0-0.2,0.1-0.3l0.1,0l0.3-0.2l0.4-0.1l0.2-0.1h0.1l0.1,0
		l0,0c0.1,0,0.2-0.1,0.3-0.2l0,0c0-0.1,0.1-0.1,0.1-0.2c0.1-0.1,0.2-0.2,0.4-0.3c0.1-0.1,0.1-0.2,0.2-0.2l0-0.1
		c0.1-0.1,0.3-0.1,0.4-0.2c0,0,0.1-0.1,0.1-0.1c0.1-0.1,0.1-0.2,0.2-0.2l0.1-0.1l0,0l0.1,0c0.1-0.1,0.3-0.2,0.4-0.2l0-0.1l0.1,0
		l0.2-0.1l0.1-0.2l0.1-0.3l0-0.1l0-0.1c0-0.1,0-0.1,0.1-0.2c0.1-0.1,0.3-0.3,0.4-0.4l0-0.1l0-0.1l0-0.1l0-0.1l0,0
		c-0.1-0.3-0.1-0.6-0.2-1l-0.2-0.2l0-0.1l0-0.1c-0.1-0.4-0.2-0.8-0.3-1.1l0,0c0,0,0-0.1,0-0.1c0-0.2,0-0.5,0-0.7l0-0.1
		c0,0,0-0.1,0-0.1c0.1-0.2,0.1-0.3,0.1-0.5c0,0,0.1-0.1,0.1-0.1l0.1,0l0.1-0.1l0.2-0.1c0.1-0.1,0.1-0.2,0.2-0.3l0.1-0.1l0-0.1l0-0.1
		l0.1-0.1l0-0.1c0,0,0-0.1,0-0.1l0-0.1l0-0.1l0-0.2c0,0,0-0.1,0.1-0.1l0-0.1l0-0.1c0-0.1,0-0.2,0-0.2l0-0.1v-0.1l0-0.1
		c0-0.1,0-0.1,0-0.2l0.1-0.2l0-0.1l0.1-0.1l0-0.1l0,0l0-0.3l0.1,0l0.1-0.1l0.1,0c0.1-0.1,0.2-0.2,0.3-0.4l0.1,0c0.1,0,0.1,0,0.2,0
		l0.2,0.1l0.1,0c0.2-0.1,0.4-0.3,0.6-0.4l0.1,0l0,0c0.2,0,0.3-0.1,0.5-0.1l0,0l0.1,0l0.1,0l0,0l0.3-0.5l0,0l0,0c0,0,0-0.1,0-0.1
		l0.3-0.4c0.1-0.2,0.2-0.3,0.3-0.5h0l0,0l0,0l0.2-0.2l0.1-0.1l0.1-0.1l0,0l0.1,0l0.1,0l0-0.1l0.2-0.2l0-0.1l0-0.1l0.1-0.1l0.1-0.1
		l0.1-0.1l0.4-0.6l0.1,0c0.1-0.1,0.1-0.1,0.2-0.2c0.2-0.1,0.4-0.2,0.5-0.3l0.8-0.8l0.3-0.4l-0.1,0l0-0.1l0,0l0,0l0,0
		c0.1-0.1,0.3-0.2,0.4-0.3c0,0,0-0.1,0.1-0.1l0-0.1c0-0.1,0-0.1,0-0.2c0.3-0.5,0.7-0.9,1.1-1.3c0.1-0.2,0.3-0.4,0.4-0.6l0.1,0
		l0.1-0.1l0-0.1c0.1-0.2,0.2-0.4,0.3-0.6l0.1-0.1h0l0-0.1l0.1-0.1l0-0.1l0.2-0.1l0.3-0.7l0,0l0,0l0,0h0l0.1-0.1l0-0.1l0-0.1l0-0.1
		l0.1-0.1c0-0.1,0.1-0.3,0.1-0.4l0.1-0.1c0.1-0.1,0.2-0.2,0.2-0.3c0-0.1,0.1-0.1,0.1-0.2l0,0l0.1-0.2l0,0l0,0v0l0.1-0.2l0.1-0.1
		c0.1,0,0.1-0.1,0.2-0.1l0.1-0.1l0.2-0.1c0.1-0.1,0.3-0.3,0.4-0.4l0-0.5l-0.1-0.2l0,0v0c0,0,0,0,0-0.1l0.1,0l0-0.3l0-0.1l0,0
		c0,0,0-0.1,0-0.1l0.1-0.3v-0.1c0-0.2,0-0.3,0.1-0.5l0,0l0-0.1l0,0l0-0.1l0-0.1l0.4-0.5l0.2-0.7c0,0,0,0,0-0.1l0,0l0,0l0,0l0-0.2
		l0-0.1l0,0c0-0.2,0.1-0.3,0.2-0.5l0,0l0,0l0.1,0c0-0.1,0.1-0.3,0.1-0.4l0.1-0.1c0,0,0-0.1,0-0.1c0.1-0.2,0.1-0.4,0.2-0.6l0-0.1
		l0-0.1l0,0l0,0l0,0l0-0.5l0,0l0-0.1l0,0l0-0.1c0-0.2-0.1-0.4-0.1-0.6l0-0.1l0,0l0,0l0,0l-0.2-0.3c-0.2-0.1-0.4-0.2-0.6-0.3
		c0,0-0.1,0-0.1-0.1l-0.1,0l-0.1-0.2l-0.1-0.1l0-0.1l-0.1,0l-0.1-0.1l-0.2-0.3l-0.1,0l0,0l0,0l0,0c-0.2-0.1-0.3-0.2-0.5-0.4
		c0-0.1-0.1-0.1-0.1-0.1c-0.1-0.1-0.1-0.2-0.2-0.2l-0.5-0.5l-0.6-1l-1.2-1.4l-0.1-0.2l-0.2-0.2c0-0.1,0-0.2-0.1-0.3
		c-0.2-0.3-0.3-0.6-0.5-0.9v0l0,0c0,0,0,0-0.1-0.1l0,0l0,0l0,0l0,0l-0.1,0l0,0l0,0h0v0l0,0l0-0.2l0-0.1l0.5-0.7l1.1-1l0.4-1
		c0.7-0.5,1.3-1,1.9-1.6l1-0.7l1-1l0.9-0.7l0.4,0l0.3-0.2c0.3-0.5,0.6-1.1,0.9-1.7c0-0.2,0.1-0.3,0.1-0.5c0.1-0.7,0.3-1.4,0.4-2.1
		l-0.1-0.9l-0.6-1.3l-0.9-0.9l-1.4,0.4l-1.1-0.4l-0.9-0.7l-0.6-1c-0.1-0.2-0.2-0.3-0.3-0.4c-0.1-0.2-0.2-0.4-0.3-0.5l-0.2-0.1
		l-0.4-0.5l-0.2-0.1l-0.1,0c-0.1-0.1-0.2-0.2-0.3-0.2l0.1-1l0.4-0.5l0-0.2l-0.1-0.3c-0.6,0.2-1.1,0.5-1.7,0.7
		c-0.5,0.1-1,0.1-1.6,0.1l-0.8-0.1l-0.2-0.1l-0.1-0.1c-0.1-0.4-0.1-0.7-0.3-1l-0.2-0.2l-0.3-0.2l-0.2-0.1l-0.2,0h-0.4l-0.2-0.2
		l0-0.3c0.3-0.7,0.6-1.5,0.8-2.3c0.2-0.3,0.4-0.6,0.7-0.8c0.2-0.1,0.3-0.3,0.5-0.4l0.6-0.3l0.2-0.1l0.7-0.4l0.4-0.8l-0.1-0.7
		l-0.1-0.4c-0.3-0.4-0.6-0.7-0.9-1l-0.7-0.3c-1.2-0.3-2.3-0.7-3.5-1l-1.2-0.1l-1,0.6c-0.8,0.8-1.5,1.7-2.2,2.6
		c-0.5,0.6-1.1,1.1-1.7,1.6c-0.1,0.1-0.2,0.2-0.4,0.3l-0.2,0.2l-0.2,0.1c-0.6,0.3-1.2,0.6-1.9,0.9c-0.2,0.2-0.5,0.4-0.7,0.5
		c-0.2,0.1-0.5,0.2-0.7,0.3h0l0,0l-0.1-0.1l-0.1-0.1l-0.7-0.3l-0.5-0.1l-0.2-0.1c-1.2-0.5-2.5-0.8-3.8-1.1l-0.5,0l-1.2-0.4l-1.6-1.1
		l-0.9-0.5l-0.6-0.4c-1-1-1.8-2.1-2.7-3.2l-0.4-0.7l0.1-0.6l0-0.1l0.1-1.3l0-0.1l0.1-0.1l-0.1-1.3l-0.1-0.2c0-0.7,0-1.3,0.2-2
		c0.3-0.9,0.7-1.7,1.2-2.5l0.1-0.3c0.1-0.3,0.3-0.6,0.4-0.8c0.3-0.9,0.7-1.7,1.2-2.5c0.9-1.4,2-2.6,2.8-4.1l0.8-2l0.4-1.5l0.9-1.2
		l0.3-0.2c0.7-0.2,1.5-0.4,2.2-0.5l0.5-0.5l0.2-0.3c0.2-0.5,0.4-1,0.6-1.6l0.4-0.8l0.2-0.2l0.6-0.3c0.2-0.1,0.4-0.1,0.7-0.2
		c0.3,0,0.5-0.1,0.8-0.1l0.3-0.1l0.5-0.2l0.3-0.4c0-0.6,0-1.2,0-1.8l0-0.2l0-0.2l0-0.2c0-0.1,0-0.3,0-0.4c0.1-0.3,0.2-0.6,0.3-0.9
		l0.5-1c0.7-0.5,1.3-1,1.9-1.6c0.1-0.2,0.3-0.3,0.4-0.5l0.1-0.3l0.2-0.2c0.2-0.3,0.5-0.5,0.7-0.8l0.7-0.4l0.6-0.6
		c0.2-0.1,0.4-0.3,0.6-0.4l0.1-0.1l0.1-0.3l0.1-0.7l-0.6-1.1l0.1-0.4l0.1,0l0.1,0l-0.3-0.3l0.2-0.3l0.5-0.6l0-0.1l0.3,0.2l0.1,0h0.1
		l0.1,0l0.1,0l0.2-0.2l0-0.1c0,0,0-0.1,0-0.1l0,0l0-0.4l0.1-0.2l0.4,0.2l0.1-0.1c0.2-0.1,0.4-0.2,0.6-0.3l0-0.2
		c0.1-0.1,0.1-0.1,0.2-0.2l0-0.1l0-0.1l0.3-0.4l0.2-0.1c0.1-0.1,0.2-0.1,0.4-0.2l0.1-0.1c0.1,0,0.2-0.1,0.3-0.1
		c0.4-0.2,0.8-0.4,1.1-0.6l0,0l0.3-0.1l0.1-0.1c0.3-0.1,0.5-0.2,0.8-0.2l0.1,0l0.1,0c0.1,0,0.2-0.1,0.3-0.1l0,0.1l0,0
		c0,0,0.1-0.1,0.1-0.1h0.1l0.1,0l0.4-0.2l0-0.1v-0.1l0.1,0l0.1,0l0.7-0.3l0.2-0.1l0-0.1l0.1,0l0.1-0.1l0,0l0.1,0l0.2-0.2
		c0.1-0.1,0.2-0.1,0.3-0.2l0,0l0,0l-0.1-0.2c0.2,0,0.4,0,0.5,0l0.1,0h0.1c0.1,0,0.1,0,0.2,0l0.1-0.1l0.1-0.1c0-0.1,0.1-0.2,0.2-0.2
		c0.2-0.2,0.4-0.4,0.6-0.6l0.4-0.2l0.2,0.1l0.1-0.1l0.1,0c0,0,0,0-0.1,0l0,0l0,0c0.1-0.1,0.2-0.1,0.3-0.2l0.1,0l0,0l0,0l0-0.1l0.1,0
		c0.1-0.1,0.2-0.2,0.4-0.3l0.2-0.1l0.1,0l0.1,0l0.1,0c0.1,0,0.1,0,0.2,0l0.1,0l0.1,0l0,0l0.1,0l0,0l0.3-0.1l0.1,0l0-0.2l0.2-0.1
		l0-0.1l0.5-0.3l0.1,0.1l0.1,0.1l0.1,0l0,0c0,0,0,0.1,0,0.1c0.1-0.1,0.2-0.3,0.2-0.4l0.1-0.1l0.1,0l0,0c0.2-0.1,0.3-0.1,0.5-0.2
		l0,0.1l0.1,0l0-0.1l0.1,0c0.1,0,0.1,0,0.2,0l0.1,0.1c0.2-0.1,0.4-0.2,0.6-0.3l0.2-0.2l0-0.1l0,0l0.1,0h0l0.2-0.3
		c0.1-0.1,0.1-0.2,0.2-0.3c0,0,0.1,0,0.1,0l0.1,0l0.1,0l0.2-0.1l0-0.2l0.1-0.1c0.1-0.1,0.2-0.2,0.3-0.3c0-0.1,0-0.1,0.1-0.2l0.7-0.5
		l0.1,0l0.1-0.1l0.1,0l0.2-0.1l0-0.1l0.4-0.1l0.1,0c0.1,0,0.1-0.1,0.2-0.1l0.1-0.1l0.5-0.2l0.1,0l0.1,0c0.2,0,0.4,0,0.6-0.1l0.6,0.3
		c0.1,0,0.1-0.1,0.2-0.1l0,0l0-0.1c0.2,0,0.4-0.1,0.6-0.1c0-0.1,0.1-0.1,0.1-0.2c0.2-0.1,0.4-0.2,0.5-0.3c0.1-0.1,0.1-0.1,0.2-0.2
		l0.1,0c0.2-0.2,0.5-0.4,0.7-0.6l0.2-0.1c0.1,0,0.1-0.1,0.2-0.1l0,0l0.1-0.1l0-0.1l0-0.1l0.1-0.1l0.1-0.1l0.1-0.1l0.6-0.6l0.4-0.3
		l0.1-0.1l0.1-0.1l0.1,0l0.1,0l0.5-0.6c0.1-0.1,0.2-0.1,0.3-0.2l0.1-0.1l0.1-0.1l0-0.1l0.6-0.4l0.1-0.1l0.1,0h0.1l0.1,0l0.1,0
		l0.4-0.1c0.3,0,0.5,0,0.8,0c0.3-0.1,0.7-0.2,1.1-0.2l0.1,0c0.1,0,0.2,0,0.3,0l0.4-0.3c0.1,0,0.2,0,0.3,0l0.1,0l0,0l0.1,0
		c0.2-0.1,0.4-0.1,0.7-0.1c0.1,0,0.2,0,0.3,0l0.7-0.1l0.3-0.1l0.1-0.1l0.1-0.1l0.1-0.1l0.1-0.1l0.2-0.2c0.4-0.6,0.8-1.2,1.2-1.8
		l0.1-0.2c0-0.1,0.1-0.2,0.2-0.2l0.2-0.5l0-0.3c0.4-0.6,0.8-1.2,1.2-1.8l0.4-0.9l0.4-0.3c0.2-0.2,0.3-0.4,0.4-0.5
		c0.3-0.3,0.5-0.6,0.8-1l0.1-0.1l0.1-0.1c0.4-0.3,0.8-0.6,1.2-0.9l0.7-1l0.2-1.3c0-0.4,0-0.7,0-1.1c0.1-0.3,0.1-0.6,0.2-1
		c0.1-0.1,0.1-0.3,0.1-0.4l0-0.2l0.2-0.8l0.4-0.6c0.3-0.4,0.5-0.8,0.7-1.2l0.4-0.4l0.1-0.1c0.1-0.1,0.3-0.3,0.4-0.4
		c0.2-0.3,0.3-0.6,0.5-0.8c0.1-0.1,0.1-0.2,0.2-0.3c0.3-0.4,0.6-0.8,0.9-1.2l0.1-0.1c0,0,0.1-0.1,0.1-0.1l0-0.1
		c0.2-0.1,0.5-0.3,0.7-0.4c0.1-0.1,0.2-0.2,0.3-0.2c0.4-0.2,0.7-0.5,1-0.7l0.1-0.1l0.1-0.2l0-0.2c-0.1-0.2-0.2-0.5-0.3-0.7l-0.2-0.3
		l-0.2-0.4l-0.2-0.3l-0.1-0.3l-0.1-0.3l0-1.1l0.1-0.4l0.2-0.4c0-0.8,0.1-1.6,0.1-2.4c0.1-0.4,0.1-0.8,0.2-1.2
		c0.1-0.3,0.2-0.5,0.2-0.8c0.1-0.3,0.3-0.6,0.4-0.9l0.1-0.4c0-1.3,0.2-2.7,0.5-3.9l0-0.5c0.5-1.2,1-2.5,1.3-3.9
		c0.2-0.3,0.3-0.6,0.4-0.8l0.2-0.3l0.2-0.7c0.5-2.3,1.7-4.2,2.7-6.3l0.1-0.4l0.2-0.5l0.1-0.5l0-0.4l0.1-0.4c0-0.3,0.1-0.5,0.1-0.8
		c0.1-0.7,0.3-1.4,0.4-2.1c0.2-0.5,0.3-1,0.4-1.5l0.2-0.4l0.1-0.4l0.2-0.4c0.1-0.5,0.2-0.9,0.4-1.4l0.1-0.2c0.1-0.2,0.1-0.3,0.1-0.5
		l0.2-0.5l0.1-0.1c0.1-0.2,0.1-0.5,0.3-0.7c0.1-0.2,0.2-0.4,0.3-0.6c0.1-0.5,0.2-0.9,0.4-1.3c0-0.2,0.1-0.4,0.1-0.7
		c0.1-0.5,0.3-1,0.5-1.5c0-0.2,0.1-0.5,0.1-0.7l0.2-0.5l0.1-0.4c0.2-0.6,0.4-1.2,0.6-1.8l0.2-0.4c0-0.4,0.1-0.7,0.2-1.1
		c0-0.2-0.1-0.3-0.1-0.5l-0.1-0.3c-0.1-0.2-0.3-0.4-0.4-0.6c-0.2,0-0.4-0.1-0.6-0.1l-0.3,0.1l-1.2,0.6l-0.1,0l-0.3-0.5l-0.1-0.8
		l0-0.1c0-0.1,0-0.2,0-0.3l-0.1-0.1c-0.1-0.5-0.3-0.9-0.5-1.3l-0.1-0.1v-0.1l0-0.1l-0.3-0.5l-0.2-0.5l0-0.1c0,0,0,0,0-0.1l0-0.1
		l0-0.1l0-0.2l0-0.1c0-0.1,0-0.2,0-0.4l-0.1-0.4c0,0,0-0.1,0-0.1l-0.1-0.1l-0.1-0.1l0-0.1l0-0.1c-0.2-0.4-0.5-0.8-0.7-1.2
		c-0.2-0.9-0.3-1.7-0.4-2.6l0-1.1l-0.2-1.1l-0.3-0.8l-0.1-0.3l-0.3-0.9l-1.1-0.9l-0.4-0.8v-0.1l-0.2-0.4l-0.2-0.1
		c-0.7-0.7-1.4-1.4-2-2.1c-0.2-0.2-0.4-0.4-0.7-0.5l-0.1,0c-0.2,0-0.3,0.1-0.5,0.1l-0.3,0c-0.1,0-0.2,0.1-0.3,0.1
		c-0.1,0-0.2,0-0.4,0.1l-0.2,0l-0.3-0.2c-0.2-0.1-0.3-0.3-0.5-0.4l-0.1,0l-0.1,0l0,0l0,0l0,0l0-0.1l0-0.1l0,0l-0.1-0.1
		c0-0.1-0.1-0.2-0.1-0.2l0-0.1l0-0.2l0-0.3l0-0.1l-0.1-0.2l0-0.3l-0.1-0.2l-0.1-0.2l-0.1-0.2c-0.1-0.1-0.2-0.2-0.3-0.2l-0.1-0.1
		l-0.3-0.3l-0.1-0.2c0-0.1,0-0.2,0-0.4l0-0.1c-0.2-0.4-0.5-0.9-0.7-1.3l-0.1-0.2l-0.8-0.3c-0.5,0.3-0.9,0.7-1.3,1l-0.2,0.1l-0.3,0
		c-0.1,0-0.3,0.1-0.4,0.1l-0.3,0.1c-0.1,0.1-0.3,0.2-0.5,0.3l-0.2,0l-0.2,0l-0.2-0.2l-0.1-0.2c-0.1,0-0.1,0-0.2,0l-0.2-0.1l-0.2-0.1
		l-0.2-0.2l-0.1-0.3l0-0.3c0.1-0.3,0.1-0.6,0.2-0.9l0.1-0.3l0.1-0.3l0.1-0.2c0-0.1-0.1-0.3-0.2-0.4l0.1-0.2l0-0.2l-0.4-0.2l-0.1-0.3
		l-0.2-0.2l-0.2-0.1l-0.2-0.1l-0.6,0c-0.3,0-0.6,0-0.9,0.1l-0.2,0.1l-0.1-0.1l-0.2,0l-0.2-0.2l0.3-0.8c0.3-0.3,0.7-0.6,1.1-0.8
		c0.2-0.1,0.4-0.3,0.5-0.4l0-0.1c0.1-0.3,0.1-0.6,0.2-0.9c0-0.4,0-0.8-0.1-1.3c0-0.2,0-0.3,0-0.5l0-0.2l-0.3-0.2l-0.1-0.2
		c-0.1-0.2-0.2-0.3-0.4-0.5l0-0.2c-0.1,0-0.1,0-0.2-0.1c-0.1,0-0.2,0-0.3,0c-0.2,0-0.3,0.1-0.5,0.1c-0.3,0-0.5,0-0.8,0.1l-0.2,0.1
		l-0.1-0.1l0-0.1v-0.2l0.1-0.3l0.4-0.6c0.2-0.1,0.3-0.2,0.5-0.3c0.2-0.2,0.5-0.3,0.7-0.5l0.1-0.1l0.2-0.5l-0.1,0.2l-0.1,0l0,0.2
		l0-0.5l0-0.1l0-0.1l0-0.1l-0.1-0.1l-0.2-0.2c-0.1-0.1-0.1-0.2-0.2-0.2c-0.1-0.1-0.1-0.3-0.2-0.4c-0.1-0.1-0.2-0.3-0.3-0.4l-0.2-0.4
		l-0.1-0.3c-0.1-0.1-0.3-0.3-0.4-0.5c-0.2-0.2-0.3-0.3-0.5-0.5c-0.6-0.2-1.1-0.4-1.6-0.6c-0.4-0.2-0.7-0.4-1.1-0.6l-0.2-0.2
		c0-0.1-0.1-0.2-0.1-0.4l-0.2-0.2c-0.1-0.2-0.3-0.4-0.5-0.6l-0.2-0.1l-0.4,0l-0.9-0.1l0,0c-0.1,0-0.1,0-0.2,0.1c-0.2,0-0.4,0-0.5,0
		l-0.3,0L212,67c-0.2-0.1-0.5-0.3-0.7-0.4l-0.3-0.1l-0.3,0l-0.3-0.1c-0.4-0.3-0.8-0.5-1.1-0.8l-0.2-0.2c-0.2-0.1-0.3-0.3-0.5-0.4
		c-0.3-0.2-0.6-0.3-1-0.5c-1.1-0.8-2.2-1.5-3.2-2.4c-0.5-0.2-1-0.5-1.5-0.8l-0.3-0.1l-0.2-0.1c-0.4-0.3-0.8-0.7-1.3-0.9
		c-0.2-0.1-0.4-0.1-0.6-0.2c-0.4-0.2-0.7-0.4-1-0.7l-0.2-0.1l-0.2-0.1l-0.6-0.2l-0.7,0.1c-0.1-0.1-0.2-0.1-0.3-0.2l-0.1-0.1
		l-0.2-0.1c-0.6-0.3-1.2-0.5-1.8-0.6l-0.3-0.1l-0.3-0.1c-0.2,0-0.4-0.1-0.5-0.2c-0.2,0-0.4,0-0.6,0l-0.2,0l-0.4,0l-0.2,0l-0.2,0
		l-0.2-0.1l-0.2,0l-0.1-0.1c-0.3-0.2-0.5-0.3-0.8-0.5l-0.5-0.2l-0.3-0.1l-0.2-0.1l-0.2-0.1l-0.2-0.1c-0.2-0.1-0.3-0.2-0.5-0.3
		l-0.3-0.1c-0.6-0.3-1.1-0.6-1.7-0.9l-0.3-0.2l-0.9-0.9c-0.2-0.2-0.3-0.4-0.4-0.6c-0.7-0.6-1.4-1.2-2.1-1.7l-0.4-0.2l-0.3-0.3
		c-0.2-0.1-0.4-0.2-0.6-0.3l-0.2-0.2l-0.3-0.2c-0.2-0.1-0.4-0.1-0.6-0.2c-0.3-0.1-0.6-0.1-0.9-0.2l-0.3,0l-0.3-0.1
		c-0.2-0.2-0.4-0.3-0.7-0.5l-0.2-0.2c-0.1-0.1-0.3-0.2-0.4-0.3c-0.4-0.2-0.9-0.5-1.3-0.6c-0.2-0.1-0.4-0.3-0.6-0.4
		c-0.1-0.2-0.3-0.4-0.5-0.5l-0.2-0.2l-0.2-0.1c-0.2-0.1-0.5-0.2-0.7-0.2l-0.3-0.2c-0.3-0.2-0.6-0.5-0.9-0.7
		c-0.3-0.3-0.5-0.6-0.7-0.9l-0.2-0.2l-0.2-0.2c-0.3-0.2-0.5-0.5-0.8-0.8c-0.6-0.7-1.1-1.5-1.5-2.2l-0.2-0.3l-0.3-0.3
		c-0.3-0.5-0.7-1-1.1-1.5l-0.4-0.4l-0.3-0.4c-0.1-0.2-0.2-0.4-0.3-0.5l-0.3-0.3c-0.2-0.3-0.4-0.6-0.5-0.9l-0.2-0.1l-0.2-0.1
		c-0.1-0.1-0.2-0.2-0.4-0.3c-0.2-0.1-0.5-0.2-0.7-0.3c-0.1,0-0.2,0-0.3,0l-0.2,0c-0.2,0-0.4-0.1-0.7-0.1c-0.3,0-0.6,0-0.8,0
		c-0.7,0.2-1.5,0.3-2.3,0.5c-0.8,0-1.6,0-2.4,0.3l-0.6,0.1c-0.3,0.1-0.5,0.2-0.8,0.3l-0.3,0h-0.2l-0.2,0l-0.2,0l-0.2,0l-0.2,0.1
		c-0.6,0.1-1.1,0.3-1.6,0.5c-0.9,0.2-1.8,0.4-2.7,0.5c-0.1,0.1-0.3,0.1-0.5,0.2c-0.2,0-0.3,0-0.5,0.1c-0.2,0-0.5,0-0.7,0
		c-0.2,0-0.4-0.1-0.7-0.1l-0.2-0.1l-0.2-0.1c-0.1-0.1-0.3-0.2-0.4-0.3c-0.5-0.3-0.9-0.6-1.4-0.9c-0.2-0.2-0.4-0.4-0.7-0.6l-0.1-0.1
		c-0.2-0.1-0.4-0.1-0.5-0.2c-0.2-0.1-0.3-0.2-0.5-0.3c-0.1-0.2-0.3-0.4-0.4-0.5l0,0v0l0,0l0,0l0-0.1l-0.1-0.2
		c-0.1-0.1-0.2-0.3-0.2-0.4c0-0.2,0-0.3,0-0.5l0-0.3l-0.1-0.2l-0.2-0.2l0-0.1l0.1-0.1l0.2,0l0.2,0l0.1,0l0.1-0.1l0-0.5l-0.3-0.9
		l-1.5-1l-0.6-0.3c-0.4,0-0.7,0-1.1,0l-0.3-0.2c-0.2-0.2-0.4-0.3-0.6-0.5l-0.3-0.1c-0.2,0-0.4-0.1-0.6-0.1l-1.2-0.5
		c-0.4-0.1-0.7-0.1-1.1-0.1c-0.2,0-0.4,0-0.7,0c-0.3-0.1-0.5-0.2-0.8-0.3c-0.5,0-1.1-0.1-1.6-0.2l-0.3-0.2l-0.3-0.1l-0.3-0.2
		c-0.3-0.2-0.5-0.5-0.7-0.8c-0.3-0.3-0.7-0.6-1.1-0.9l-0.3-0.3c-0.3-0.4-0.5-0.8-0.8-1.2l-0.2-0.3c-0.1-0.2-0.3-0.3-0.4-0.5
		c-0.2-0.2-0.4-0.4-0.6-0.5l-0.3-0.3l-0.2-0.3l-0.1-0.3l-0.5-1c-0.3,0-0.6,0-0.9,0l-0.3-0.1l-0.3,0l-0.4-0.1l-0.6-0.3l-0.2,0
		c-0.6-0.3-1.3-0.5-2-0.6c-0.2-0.2-0.4-0.3-0.6-0.5l-0.2-0.2c-0.4-0.3-0.7-0.6-1.2-0.8l-0.3-0.4l-0.8-1.1l-0.4-0.1l-1.3-0.1l-0.2,0
		l-0.1,0.1l-0.1,0.1l-0.2,0l-0.1,0.1l-0.1,0.1c0,0.1-0.1,0.1-0.2,0.2c-0.5,0.2-0.9,0.4-1.4,0.6l-0.3,0.1l-0.4,0l-0.3,0l-0.7-0.2
		l-0.5-0.3l-0.2-0.2c-0.2-0.2-0.3-0.4-0.5-0.7l-0.1-0.3c-0.2-0.2-0.4-0.4-0.6-0.6c-0.2-0.1-0.5-0.2-0.7-0.3
		c-0.2-0.2-0.4-0.3-0.5-0.5c-0.2-0.1-0.5-0.2-0.7-0.3l-0.3,0l-1.1-0.7l-0.6-0.1l-0.4,0l-0.4,0.3l-0.4,0.2c-0.2,0.2-0.3,0.5-0.5,0.8
		l-0.1,0.2l-0.1,0.3c-0.2,0.2-0.3,0.3-0.5,0.5l-0.1,0.3l-0.8,0.6l-0.7,0.4l0.1,0.2l-0.1,0.1l-0.1,0.1l-0.1,0.1l-0.3,0.1l-0.2,0
		l-0.1,0c-0.2-0.1-0.4-0.1-0.6-0.2l-0.4,0c-0.2,0.1-0.3,0.2-0.5,0.3l-0.1,0.2l-0.3,0.1l-1.3,0.6l-1,0.8l-0.2,0.1l0,0l-0.3,0.1
		l-0.4,0l-0.3,0.2l-0.2,0.3c-0.2,0.3-0.3,0.7-0.5,1c0,0.2-0.1,0.5-0.1,0.7c-0.1,0.2-0.1,0.5-0.2,0.7c0,0.1-0.1,0.3-0.1,0.4
		c-0.1,0.3-0.3,0.6-0.4,0.9l-0.1,0.2l-0.4,0.5c-0.1,0.2-0.2,0.5-0.3,0.7c0,0.2,0,0.5,0,0.7L97.2,27l0.1,0.4l0,0.4l0.1,0.2l0,0.4
		l0,0.4c-0.1,0.1-0.1,0.3-0.2,0.4v0.2l-0.1,0.2l0,0.2c-0.1,0.4-0.2,0.8-0.4,1.2c-0.1,0.1-0.2,0.2-0.2,0.3l-0.2,0.2L96,31.6l-0.2,0.1
		l-0.2,0l-0.2-0.1c-0.2,0.1-0.3,0.2-0.5,0.3l-0.2,0.3l-0.1,0.2c0,0.3,0,0.6-0.1,0.9l0.2,0.3l0,0.4l-0.1,0.3c0,0.7-0.1,1.4-0.1,2
		l0.4,0.5l0.2,0.3l0,0.2l-0.1,0.2l-0.2,0.2L94.6,38l-0.2,0.2l-0.1,0.3l0,0.4l0.1,0.5c0,0.3,0,0.6-0.1,0.8c-0.2,0.5-0.5,1-0.8,1.4
		L93.2,42L93,42.3l-0.3,0.3c0,0.2-0.1,0.3-0.1,0.5v0.1c0,0.1-0.1,0.3-0.1,0.4c0,0.2-0.1,0.4-0.1,0.6c0.1,0.5,0.2,1,0.2,1.5l-0.2,1
		l-0.2,0.3l-0.1-0.2l0-0.2l0-0.1l0.2-0.2c-0.2-0.1-0.3-0.2-0.5-0.3l-0.1-0.1l-0.1,0c0,0.1-0.1,0.2-0.1,0.3c-0.1,0.2-0.2,0.3-0.3,0.5
		c-0.1,0.2-0.1,0.4-0.2,0.6l-0.2,0.3l-0.1,0.3c-0.5,0.5-1,0.9-1.6,1.4c-0.2,0.3-0.5,0.5-0.7,0.7l-0.2,0.1l-0.2,0.1
		c-0.1,0.1-0.3,0.1-0.4,0.2c-0.3,0.3-0.6,0.6-0.9,0.8c-0.2,0.1-0.5,0.3-0.7,0.5c-0.1,0.1-0.2,0.3-0.2,0.4c-0.4,0.5-0.8,1-1.1,1.5
		c-1,0.5-1.9,1-2.9,1.4L81.4,55l-0.3,0l-0.4,0.2c-0.4,0.3-0.9,0.6-1.3,1c-0.4,0.1-0.7,0.3-1.1,0.5l-0.3,0.1l-0.2,0.2L77.6,57
		l-0.5,0.1L77,57l-0.2-0.2l-0.3-0.2c-0.2-0.1-0.4-0.1-0.6-0.2l-0.3-0.2c-0.3-0.1-0.5-0.2-0.8-0.2c-0.2-0.1-0.5-0.3-0.7-0.4l-0.6-0.2
		c-0.1,0-0.2,0-0.2,0c-0.1,0-0.2,0-0.3,0.1l-0.6-0.1L72,55.9c0,0.2,0,0.4,0,0.6l0,0l0,0.1c0,0.5,0,1.1-0.1,1.6c0,0.1,0,0.1,0,0.2
		c0,0.1,0,0.1,0,0.2l0,0.5c0,0.1,0,0.1,0,0.2c0,0.1,0,0.2,0,0.2l0.2,0.3l-0.2,0.8l-0.1,0.4l0,0.1c0,0.1,0,0.1,0.1,0.2l0,0.1
		l-0.1,0.6l0,0.2l-0.1,0.1l0,0.1l0,0.1l0,0.1L71.5,63l0,0.1l0,0.1l0,0.1l0,0.1l0,0.4l-0.4,1C71.1,64.9,71,65,70.9,65l-0.2,0l-0.2,0
		l-0.1,0l-0.7,0.4l-0.8,0.9c-0.3,0.4-0.5,0.7-0.8,1.1l-0.3,0.3L67.6,68l-0.3,0.1c-0.3,0.1-0.5,0.2-0.8,0.3l-0.9,0.8
		c-0.1,0.2-0.2,0.4-0.2,0.6l0.1,0.2l0.6,0.6l0.2,0.3l0.2,0.2l0.1,0.2l0,0.3l0,0.4c0,0.3,0.1,0.5,0.1,0.8c0,0.6,0,1.2-0.1,1.7l0.2,1
		l-0.3,1.1c0,0.9,0,1.8,0,2.8l0.3,1.8l0.2,0.8l0,0l0,0.1l0,0l0,0l0,0.1l0,0l0.1,0.2l0.2,0.2l0.1,0.3l0.2,0.5l0.1,0.5l0,0.6l0.1,0.3
		l0.2,0.3l0.2,0.3l0.2,0.4l0.1,0.4c0.2,0.4,0.4,0.7,0.7,1.1c0.1,0.2,0.2,0.4,0.3,0.6l0.1,0.4l0.3,0.5l0.3,0.3l0.2,0.3l0.2,0.4l0,0.4
		l0.1,0.3c0.2,0.4,0.4,0.8,0.6,1.1l0.1,0.4l0.2,0.6l0.1,0.6l0,0l0.2-0.1l-0.1-0.1c-0.3,0.1-0.6,0.2-0.9,0.3l-0.3,0.2
		c-0.7,0.6-1.5,1.2-2.2,1.8l-0.3,0.3l-0.2,0.2l-0.3,0.3l-0.2,0.2l0,0.4c-0.2,0.3-0.4,0.6-0.7,0.9l-0.2,0.2c-0.2,0.3-0.4,0.5-0.6,0.8
		c0,0.2-0.1,0.3-0.1,0.5c-0.1,0.2-0.2,0.4-0.3,0.6c0,0.4-0.1,0.9-0.1,1.3l-0.1,0.2l0,0.1l0.1,0.1l-0.4,0.2l-0.1,0.1l-0.3,0l-0.3-0.2
		c-0.4,0.3-0.8,0.6-1.2,1l-0.3,0.2l-0.3,0.3l-0.3,0.2c-0.5,0.2-1,0.5-1.5,0.8l-0.5,0.1l-0.2,0.2l-0.3,0.1l-0.2,0.2L59,105l0.1,0.4
		c0,0.3,0,0.5,0,0.8l-0.1,0.4l-0.1,0.2l0,0.2c0.1,0.6,0.1,1.2,0.1,1.8c-0.1,0.2-0.2,0.5-0.2,0.7l-0.4,0.8c-0.2,0.2-0.3,0.5-0.5,0.7
		c0,0.3-0.1,0.6-0.1,1l-0.4,0.9l-0.5,0.6c-0.6,0.5-1.2,1.1-1.7,1.6c-0.7,1.1-1.5,2.1-2.3,3.2c-0.3,0.3-0.7,0.5-1,0.7
		c-0.3,0.1-0.7,0.3-1,0.4l-0.2,0.2l-0.3,0.2c-0.3,0.1-0.6,0.1-1,0.2l-0.4,0l-0.5,0.1l-0.4-0.1c-0.6,0.1-1.1,0.1-1.7,0.2l-0.3,0.1
		l-0.3,0.2l-0.3,0.1l-0.8,0.3l-0.1,0.3l-0.2,0.7l-0.2,0.2l-0.4,0.2l-0.1,0.3l-0.4,0.2c-0.3,0-0.5,0.1-0.8,0.2l-0.3,0l-0.3,0.1
		l-0.5,0l-0.3,0l-0.4,0l-0.5-0.1l-0.5,0c-0.3,0-0.5,0.1-0.8,0.2l-0.2,0.2l-0.4,0.1l-0.3,0.2l-0.3,0.3l-0.3,0.1
		c-0.2,0-0.3,0.1-0.5,0.1l-0.3,0l-0.2,0l-0.2,0l-0.2,0.2l-0.1,0.2l-0.4,0.1l-0.2,0l-0.3-0.1l-0.1-0.4l-0.2-0.1l-0.3,0
		c-0.3,0.1-0.5,0.1-0.8,0.2l-0.2,0.1c-0.2,0-0.4,0-0.6,0l-0.3,0.3l-0.5,0.4l-0.2,0l-0.3-0.1l-0.2,0.1l-0.1,0.1l-0.7,0.3l-0.3,0
		l-0.5,0.2l-0.1,0.2c-0.2,0-0.5,0.1-0.7,0.1l-0.4,0l-0.2,0c-0.1,0-0.3,0-0.4,0l-0.1,0.1l-0.2,0l-0.1,0.1l-0.1,0.1l-0.3,0h-0.3
		l-0.3-0.1l-0.1-0.2c-0.1-0.1-0.3-0.3-0.4-0.4l0,0.1c-0.1-0.1-0.2-0.2-0.3-0.3c-0.2-0.1-0.3-0.2-0.5-0.2l-0.2-0.1l-0.1-0.1
		c-0.1-0.1-0.2-0.1-0.3-0.2l-0.2-0.1c-0.2-0.1-0.3-0.2-0.5-0.3c-0.2,0-0.5,0-0.7,0c-0.1,0.2-0.3,0.4-0.4,0.5
		c-0.1,0.1-0.3,0.2-0.4,0.4l-0.2,0.2l-0.3,0.9l-0.6,0.8l0,0.1c0,0.1,0,0.2,0,0.2l0,0.2l-0.1,0l-0.1-0.1l-0.1,0.6
		c0.1,0.5,0.3,1,0.5,1.5l0.1,0.4c0.2,0.6,0.5,1.3,0.7,1.9l0.2,0.3l0.1,0.3l0.2,0.4l0,0.3c-0.1,0.6-0.2,1.1-0.2,1.7L23,135
		c0,0.3,0.1,0.7,0.1,1l-0.1,0.3l-0.3,0c-0.7-0.2-1.3-0.4-1.9-0.6l-0.3-0.1l-0.2-0.1l-0.3,0c-0.4,0.1-0.9,0.1-1.3,0.1l-0.6,0.1
		l-0.4-0.2l-0.3-0.2c-0.4-0.8-0.9-0.4-0.9-0.4c-0.1,0.2-0.1,0.4-0.2,0.6c0,0.2,0,0.5-0.1,0.7l0,1.3c0,0.2,0.1,0.4,0.1,0.5l0,0.1
		l0.1,0.4l-0.4,1.2l0,1.5l0.1,0.4c0.1,0.2,0.2,0.4,0.3,0.6l0.1,0.1c0.3,0.7,0.5,1.4,0.7,2.1l0.1,0.8c0.4,0.9,0.7,1.8,0.9,2.7l0,0.3
		l0.1,0.2l0.1,0.1c0,0.1,0,0.2,0,0.3l0.1,0.1l0.2,0.2l0.2,0.1l0.2,0.2c0.3,0.3,0.6,0.7,0.8,1l0.1,0.2l0.2,0.2l0.1,0.2l0.8,0.5
		l0.5,0.2c0.3,0.2,0.6,0.5,0.9,0.7c0.2,0.1,0.3,0.2,0.5,0.2l0.2,0.1c0.3,0.3,0.7,0.6,1.1,0.9l0,0l0,0l0,0l0,0v0l0.7,0.4l0.1,0.2
		c0.1,0.1,0.3,0.2,0.4,0.4l0.2,0.3c0.1,0.2,0.1,0.4,0.2,0.6c0.1,0.2,0.3,0.5,0.5,0.7l0.4,0.4l0,0l0.1-0.2l0,0.1l0.7,0.3l0.8,0.6
		l0.2,0.2l0.1,0.1c0,0.1,0.1,0.1,0.1,0.1L29,158l0.1,0.1l0.4,0.5l0.2,0.4l0,0v0h0c0,0,0,0,0,0l0.1,0.1l0.1,0.1c0,0,0,0.1,0.1,0.1
		l0,0l0.1,0.1l0,0l0,0c0.1,0.1,0.2,0.1,0.3,0.2c0,0,0.1,0,0.1,0.1l0,0c0,0,0,0,0.1,0.1c0,0,0,0,0,0.1l0,0c0,0,0,0,0.1,0.1l0,0.1l0,0
		l0,0l0.1,0l0,0l0,0l0,0l0,0l0.2,0.1l0,0.1l0,0c1.1,0.7,2.3,1.1,3.4,1.7l0,0l0,0l0,0h0l0,0l0,0l0.1,0c0.1,0.1,0.1,0.1,0.2,0.2
		c0.1,0.2,0.2,0.5,0.3,0.8c0,0.1,0,0.1,0,0.2l0,0.1l0,0.4l0,0l0,0l0,0c0,0,0,0,0,0l0,0v0l0,0.1l0.1,0.1c0.1,0.1,0.2,0.2,0.3,0.2
		l0,0.1l0,0c0.1,0.1,0.2,0.1,0.3,0.2l0.3,0.3l0.1,0c0,0,0.1,0,0.1,0l0.1,0c0.1,0.1,0.2,0.2,0.3,0.2c0,0.1,0,0.1,0.1,0.2l0,0l0,0.1
		l0.3,0.3c0,0,0.1,0.1,0.1,0.1l0,0.1l0.3,0.2l0.1,0.2l0.3,0.2c0,0,0.1,0,0.1,0.1l0,0.1l0,0l0,0.1l0,0.1l-0.1-0.1l0,0
		c-0.1,0-0.1,0-0.2,0l-0.1-0.1c-0.2-0.1-0.4-0.1-0.6-0.2l-0.1,0l-0.2,0l0,0c0,0-0.1-0.1-0.1-0.1c-0.1,0-0.1,0-0.2,0
		c0,0-0.1,0-0.1-0.1c-0.1,0-0.2-0.1-0.3-0.1c-0.1-0.1-0.2-0.1-0.3-0.2l-0.1-0.1l-0.3-0.1c-0.1-0.1-0.2-0.2-0.3-0.2l0,0l0-0.1l-0.1,0
		l-0.1-0.1l-0.1-0.1c-0.1-0.1-0.3-0.3-0.4-0.4c0,0-0.1-0.1-0.1-0.1l-0.1,0c-0.3-0.2-0.6-0.4-0.9-0.5l-0.1-0.1l-0.1,0l-0.1,0l-0.1,0
		l-0.2,0l-0.3,0.1c0,0.1,0,0.2,0,0.3c-0.1,0.1-0.1,0.1-0.2,0.1c-0.1,0.1-0.3,0.2-0.4,0.3l-0.1,0.1l0,0l0,0.1l0,0l0,0l0.1,0.2
		c0,0.1,0.1,0.1,0.2,0.1l0.3,0.4l0.2,0.5l0,0c0,0,0,0,0.1,0.1l0,0l0.1,0.1l0,0.2l0,0l0,0c0.1,0.1,0.1,0.2,0.2,0.2c0,0,0,0.1,0.1,0.2
		l0.1,0.1c0,0,0,0.1,0,0.1l0.1,0.1l0,0.1l0.1,0.2l0,0.1c0,0,0.1,0.1,0.1,0.1c0.1,0.1,0.2,0.3,0.2,0.4c0,0.1,0.1,0.1,0.1,0.2l0.1,0.1
		l0.1,0.1L34,169l0.4,0.4l0.3,0.2l0,0l0,0l0,0l0,0l0,0l-0.1,0.1c-0.1,0-0.1,0-0.2,0l-0.1,0l-0.1,0l-0.1,0l-0.1,0l-0.1,0l-0.1-0.1
		c-0.2,0-0.3,0-0.5-0.1l-0.2,0l0,0l0,0l0,0l0,0l-0.1,0l-0.4-0.1c0,0-0.1,0-0.1-0.1l0,0l0,0l-0.2-0.1l0,0l-0.2,0l0,0l0,0h0l-0.1,0
		l0.2,0.4l0.4,0.5c0.1,0.1,0.1,0.2,0.2,0.3l0.1,0.1l0.8,0.7l0.1,0.1c0.1,0.1,0.1,0.1,0.2,0.2c0.1,0.1,0.3,0.1,0.4,0.2l0.1,0
		c0,0,0.1,0.1,0.1,0.1l0.1,0l0.3,0.2l0,0l0.1,0l0,0c0,0,0.1,0,0.1,0.1l0.2,0.1l0.1,0.1c0.1,0.1,0.1,0.1,0.2,0.2
		c0.1,0.4-0.4,0.4-0.4,0.4l-0.2,0.1l-0.1,0l-0.1,0c-0.1,0-0.1,0-0.2,0c-0.2,0-0.4,0-0.6,0c-0.1,0-0.1,0-0.2,0l-0.1,0l-0.4-0.1
		c-0.1,0-0.2,0-0.3,0.1l-0.1,0l-0.1,0c-0.1,0-0.2,0-0.2,0c-0.2,0-0.4,0.1-0.6,0.1l-0.1,0l-0.1,0c-0.4-0.1-0.9-0.1-1.3-0.2l-0.6,0.1
		c-0.5,0.3-0.9,0.7-1.3,1c-0.3,0-0.5,0-0.8,0.1c-0.1-0.1-0.2-0.1-0.3-0.1l-0.1-0.1h-0.1l-0.1,0.1c-0.3,0-0.6,0-0.8,0.1l-0.5-0.1
		l0.1,0.2l-1,0.2l-0.9-0.1l0,0c0,0,0,0.1-0.1,0.1l-0.1,0l-0.1,0.3c-0.2,0.3-0.4,0.6-0.7,0.8l0,0l0.1-0.1l0,0c0,0,0,0,0,0l0.2,0.3
		l0.1,0l0.2,0l0.4-0.1l-0.1,0.1l-0.3,0.7c0,0.1,0,0.1,0,0.2l0,0.1l0,0.1l-0.1,0.5l0,0.2l0,0.2c0,0.1,0,0.1,0,0.2l0,0.1l0,0.1
		l0.1,0.2l0.3,0.5l0,0.1v0.1l0,0.1l0,0l0.1,0l0.1,0.1c0.1,0.1,0.2,0.2,0.3,0.3c0,0.1,0.1,0.1,0.1,0.2l0,0.1l0,0.1
		c0.2,0.1,0.3,0.2,0.5,0.4l0.2,0l0.1,0.1l0.3,0.6l-0.4,0.3l-0.5,0c-0.4,0.1-0.9,0.1-1.3,0.2l-0.1,0h-0.1c-0.1,0-0.2,0-0.3,0.1
		c-0.2,0.1-0.4,0.2-0.6,0.2l-0.2,0.1l-0.1,0.2l-0.1,0.1l-0.3,0.2l-0.1,0l0,0.1c0,0.1-0.1,0.2-0.1,0.3l0,0.3l0,0.1
		c0,0.1-0.1,0.2-0.2,0.2l-0.1,0l0,0.1l0,0.1l-0.3,0.6l0,0.2c0,0.1-0.1,0.3-0.1,0.4l0,0.1l0.2,0.4l0,0.1l0,0.1c0,0.1,0,0.1,0,0.2
		l0,0.5c0,0.1,0,0.1,0,0.2c0.1,0.2,0.1,0.4,0.2,0.7l0,0.9c0,0.2-0.1,0.4-0.1,0.6l-0.1,0.7l0.4,1.4c1,1.7,1.5,3.6,2.6,5.3l-0.1,0.9
		l-0.3,0.7l-0.1,0.4l-0.5,1.4c-0.1,0.7-0.2,1.3-0.3,2c-0.1,0.3-0.3,0.6-0.4,0.8l-0.1,0.1l-0.1,0.1l-0.1,0.1l-0.3,0.4l-0.1,0.1
		l-0.1,0.1c0,0.1,0,0.2-0.1,0.3l-0.1,0.2c-0.1,0.9-0.1,1.8-0.2,2.8c0.1,0.4,0.1,0.9,0.1,1.3l0,0.1c0.1,0.4,0.2,0.8,0.4,1.2
		c0.3,0.5,0.5,1,0.8,1.5c0.1,0.4,0.2,0.8,0.2,1.1l0.4,1l0.1,0.3l0,0.2l-0.1,0.2l0.1,0.3l0.4,0.6l-0.1,1c-0.1,0.3-0.2,0.7-0.2,1
		l-0.1,0.1l-0.1,0.2c0,0.1-0.1,0.2-0.1,0.3c-0.2,0.3-0.3,0.7-0.4,1l0,0.2l-0.1,0.2l-0.1,0.2c-0.1,0.6-0.2,1.1-0.2,1.7
		c-0.3,1.1-0.6,2.1-0.8,3.2l0,0.3c-0.1,0.4-0.2,0.9-0.2,1.3c-0.1,0.2-0.1,0.4-0.2,0.5c-0.2,0.3-0.4,0.6-0.6,0.9l-0.7,0.8l-0.1,0.1
		l-0.1,0.1l-0.1,0.2l-0.1,0.2l-0.2,0.6l-0.6,1.2c-0.4,0.5-0.8,1.1-1.1,1.6c0,0.1,0,0.2-0.1,0.3c0,0.1,0,0.2,0,0.2
		c-0.2,0.8-0.3,1.6-0.3,2.3l0,0.5l0.1,0.2l-0.1,0.3l-0.1,0.2c0,0.1,0,0.2,0,0.4l-0.1,0.4l0,0l0.2,0.7c0,0.5,0,0.9-0.1,1.4l0,0.2
		l0,0.1l0,0.1c0,0.3-0.1,0.6-0.1,0.9l-0.1,0.8l0.1,1.4l0.2,0.6c0,0.1,0.1,0.2,0.1,0.3c0,0.1,0,0.2,0.1,0.3l0.3,0.9l0.7,0.6l0.2,0.4
		l0.1,0.1c0.3,0.3,0.5,0.7,0.8,1l0.2,0.2l0.2,0.2l0.4,0.4c0,0,0.7,1.5,1.9,2.9l0.8,0.5l1.4,1.8l1.1,1.7l1.8,2.3l0.4,0.7l0.2,0.7
		l0.2,1.2l-0.1,0.7v0.9c0.5,1.3,1.1,2.6,1.7,3.9l1.6,1.6l2.1,1.4c1.5,0.8,3,1.6,4.4,2.5l1.5,0.3l1.6,0.9l1.1,1.3l1.7,1.2l0.5,0.5
		l1,1.2l0.3,0.2l0.9,1.9l0.6,3.1v0.4l0.5,1.3l1,1.5l0.6,0.8l1,0.8l2,0.6l2.1,0.2c1.5,0,3.1-0.2,4.6-0.4l1.3,0.3c3,0,6,0.2,9,0
		l1.4,0.1l0.9,0.2l-0.1-0.1l1.2,0.8l1.1,1.5l1.3,1.4l0.4,0.2l0.4,0.6l1.3,1.5l0.6,0.5l0.8,0.9l0.6,0.5l1.3,1.2l0.4,0.2l1.5,0.2
		c0.9,0.2,1.8,0.6,2.6,0.9l0.1-0.1l-0.1-0.2h0.1l0.7,0.6l1,1.1v0.1l1,0.1l0.5,0.2l0.9,1.2l0.4,0.1l0.4-0.2l0.3-0.7l-0.5-1.4l-0.1-1
		l-0.2-0.5v-0.4h0.4l0.3,0.3l0.4,0.7l0.4-0.3l0.4-0.5l-0.2-0.9v-0.1l0.5-0.2l0.3-0.2l0.1-0.2l0.7,0.1h0.9l0.8,0.1l0.2-0.1l0-0.1
		l0.2-0.2l1.4-0.3l0.9-0.9l0.7-1.2l1.6-0.4l1.5-0.1l2.2-1.1l0.8-0.2l0.5-0.3l1.3-1.6c1.5-1.2,2.8-2.5,4.6-3.3l2.4-0.2l0.5-0.2
		l1.1-0.8l0.3,0.3l0.2-0.1l0.1-0.2l0.6-0.2l0.3-0.3l0.5-0.1l2.3-1l0.3-0.3l0.4,0.1l0.3-0.6l0.9-0.8l0.8,0.1l0.3-0.2l0.3,0.1l0.8-0.1
		l0.3-0.3l0.6-0.9h0.2l0.5,0.4h0.3l0.7-0.3h1.1l1.4,0.9l0.7,0.3l0.9,0.7l0.7,0.9l0.5,1.7l0.4,0.9l0.7,0.7l0.9,1.2l0.2,0.5l0.1,0.5
		l0.4,0.6l0.7,0.5l0.1,0.3l-0.2,0.7l0.3,0.3l0.3,0.1l1.2-0.1l1.2,0.3l0.8,0.1l0.3,0.1l0.3,0.1l0.2,0.3l1.2,0.8l0.6,0.1l0.1,0.1v0.2
		l0.5,0.3l0.3-0.3h0.4c0.5,0.3,0.9,0.6,1.4,1l0.8,0.3l0.3-0.1l0.2-0.1l0.6-0.1l0.7,0.2l0.3,0.5l1.2,0.8c0.9,0.7,1.7,1.5,2.4,2.4
		l0.8,0.6l1.2,1.4l0.8,0.5l0.8,1l-0.3,0.2c1.3,0.6,2.5,1.4,3.7,2.1h0.5l2.2,2.1l0.5,0.7l0.8,1.6l0.3,1.9l0,0.6l-0.1,0.5l0.1,0.3
		l0.7,0.8l0.3,0.6l0,0.2l-0.1,0.8l0.2,0.4l0.3,0.9l0.9,1.7l0.6,0.5l0.3,0.5l1,1.1l0.4,0.7l0.1,0.6l0.1,0.3l1.1,1l0.2,0.6l0.3,0.4
		l0.9,0.8l0.6,0.3l2.4,0.8l0.8,0.4c0.9,0.6,1.8,1.3,2.5,2.1l0.8,0.4l0.9,0.3l0.8,0.1l3.9-0.3l0.3,0.1l0.4,0.5
		c0.4,0.5,0.6,0.4,0.6,0.4l1.6,2.2l0.7,1.3l0.2,0.8c-0.1,1.6,0.1,3.2,0.1,4.8l0.2,1.6c-0.1,1.2-0.1,2.3-0.1,3.5l-0.2,0.9v0.5
		c-0.9,2.1-1.7,3.6-1.5,6l0.1,0.4l0.2,0.3l1,0.8l0.7,0.8h0.2l0.6,0.6l0.5,0.6l0.8,0.6l0.4,0.6l0.1,0.3l0,1.1l0.5,0.5l-0.1,0.2
		l0.5,1.1l0.1,0.4l0.2,0.3l-0.1,0.4l0.2,0.6l-0.1,0.4l0,0.3l0.3,0.3l0.3,0.8l0,0.1l0.2,0.9l-0.2,1.1l0.2,2.2v0.5l0.2,0.6l0.2,1.1
		l0,0.2l0.1,0.4l-0.1,0.2l0.6,1.3v0.8l0.1,0.6l0.5,0.8l0.2,0.6l0.7,0.9l0.7,1.5l0.2,0.9l0,0.8l0.1,0.4l0.5,0.9l0.7,0.8l0.6,1.1
		l0.1,0.9l0.2,0.6l0.3,0.5l0.7,0.6l0.5,0.6l1,1.8l1.1,1.5l0.8,1.6l0.1,0.4l0,0.9l-0.1,0.3l-0.2,0.3l-0.1,2.2l0.2,1.8l0.1,0.4
		c0.5,0.7,1.1,1.3,1.7,2c0.4,0.9,0.8,1.9,1.2,2.8c0.8,1.1,1.6,2.1,2.5,3l0.9,0.7l0.3,0.1l1-0.3l0.4,0.1l1.5,0.6l1.1-0.5l0.3-0.3
		c0.6-1.1,1.1-2.3,1.6-3.5l0.2-0.2l0.2-0.1h0.4l1.2,0.9l0.5,0.2l0.7,0.1l1-0.1l1.2,0.3l0.4,0.3l0.8,0.9l1.2,0.8l0.8-0.1l1.2-0.7
		l0.4-0.1l0.5,0.1l0.2,0.1l0.3,0.4l0.5,0.4l0.8,0.5l1.2,1.9l0.1,0.4l0.3,0.6l0.7,0.6l0.7,1.1l0.4,0.3l1.1,0.6l1.8,0.5l1.4-0.2
		l0.7,0.1l2.2,1.1l0.9,0.3l1.1,0.2l0.6,0.3l0.6,0.4l1,0.3l0.7,0.4l1.7,1.8l1.1,0.3l0.8,0.6l0.1,0.4l1.7,1.6"/>
</g>
</svg>
